<?xml version="1.0" encoding="utf-8"?>
<!-- Generator: Adobe Illustrator 16.0.0, SVG Export Plug-In . SVG Version: 6.00 Build 0)  -->
<!DOCTYPE svg PUBLIC "-//W3C//DTD SVG 1.1//EN" "http://www.w3.org/Graphics/SVG/1.1/DTD/svg11.dtd">
<svg version="1.1" id="Layer_1" xmlns="http://www.w3.org/2000/svg" xmlns:xlink="http://www.w3.org/1999/xlink" x="0px" y="0px"
	 width="92px" height="92px" viewBox="0 0 92 92" enable-background="new 0 0 92 92" xml:space="preserve">
<path fill="#C8D0D8" d="M0,46C0,20.59,20.59,0,46,0s46,20.59,46,46S71.41,92,46,92S0,71.41,0,46z"/>
<path fill="#F7F7F7" d="M16.51,81.3C24.49,87.98,34.78,92,46,92c11.471,0,21.971-4.2,30.02-11.15
	c-7.31-4.32-17.99-10.959-19.119-13.92c0.149-0.949,0-2.729,0.789-3.789c1.99-0.381,2.09-5.091,2.09-7.261
	c3.32-0.46,4.711-5.81,4.75-8.94c0.021-1.85-0.59-3.199-2.469-3.18c-0.131-1.91,0.539-3.35,0.459-4.24
	c1.851-2.37,2.201-13.98-6-13.62c-5.629-12.91-32.51-3.11-25.2,14.7c0.09,1.83-0.37,1.64-0.35,3.4c-1.98-0.07-1.92,1.6-1.85,3.8
	c0.1,2.74,2.23,7.39,5.19,8.3c0.35,2.58-0.04,6.68,2.66,7.551c0.48,0.8,0.26,2.479,0.26,3.479C31.75,74.2,22.13,78.57,16.51,81.3z"
	/>
</svg>
