<?xml version="1.0" encoding="utf-8"?>
<!-- Generator: Adobe Illustrator 16.0.4, SVG Export Plug-In . SVG Version: 6.00 Build 0)  -->
<!DOCTYPE svg PUBLIC "-//W3C//DTD SVG 1.1//EN" "http://www.w3.org/Graphics/SVG/1.1/DTD/svg11.dtd">
<svg version="1.1" id="Layer_1" xmlns="http://www.w3.org/2000/svg" xmlns:xlink="http://www.w3.org/1999/xlink" x="0px" y="0px"
	 width="422.626px" height="66px" viewBox="0.374 0 422.626 66" enable-background="new 0.374 0 422.626 66" xml:space="preserve">
<path fill="#FFFFFF" d="M415.867,0v64.281H423V0H415.867z M405.393,31.411c-1.493-1.689-3.309-2.994-5.459-3.91
	c-2.147-0.917-4.541-1.375-7.18-1.375c-2.631,0-5.053,0.488-7.26,1.46c-2.205,0.978-4.109,2.324-5.713,4.039
	c-1.604,1.719-2.85,3.768-3.738,6.143c-0.891,2.385-1.334,4.972-1.334,7.783c0,2.864,0.459,5.483,1.377,7.863
	c0.912,2.378,2.188,4.425,3.82,6.146c1.633,1.72,3.586,3.062,5.846,4.037c2.264,0.977,4.742,1.459,7.434,1.459
	c3.438,0,6.447-0.746,9.023-2.231c2.578-1.492,4.984-3.869,7.223-7.135l-4.729-3.609c-1.545,2.406-3.236,4.169-5.068,5.286
	c-1.834,1.115-3.896,1.676-6.188,1.676c-3.438,0-6.188-1.085-8.247-3.265c-2.062-2.179-3.216-5.16-3.441-8.937h28.359v-1.29
	c0-2.979-0.416-5.66-1.248-8.038C408.039,35.137,406.879,33.104,405.393,31.411z M382.186,40.908
	c0.629-2.864,1.875-5.101,3.74-6.705c1.859-1.603,4.168-2.405,6.916-2.405s5.043,0.816,6.875,2.448
	c1.834,1.634,2.979,3.856,3.439,6.662H382.186z M232.516,2.969h-14.229l-10.615,17.213h14.543L232.516,2.969z M225.91,35.672
	c0-1.338,0.865-1.89,2.517-1.89c2.909,0,7.312,1.258,9.825,2.748l3.303-10.842c-1.65-1.026-7.232-3.932-15.016-3.932
	c-6.84,0-13.756,2.593-15.643,11.474c0,0.865,0,1.416-0.315,2.281V23.407c-1.493-0.708-3.143-1.102-4.717-1.102
	c-3.221,0-6.367,1.258-8.803,2.594c-1.337,0.79-2.672,1.651-3.931,2.595v-4.403H177.8v19.651
	c-0.866-11.631-9.513-21.066-25.548-21.066c-12.734,0-22.719,8.412-24.133,19.342V3.438h-15.643v21.461
	c-3.383-2.121-7.234-3.223-11.712-3.223c-11.952,0-19.578,9.117-19.971,20.361c-1.258-11.244-9.982-20.361-25.548-20.361
	c-6.288,0-11.399,2.125-15.8,5.032h-22.25v-7.859h23.428V5.013H0.374v59.271h17.294V41.412h13.363v1.962
	c0,13.6,9.592,22.013,24.214,22.013c16.824,0,24.684-9.045,25.548-19.342c1.022,10.929,8.334,19.342,19.971,19.342
	c4.4,0,8.33-1.417,11.712-4.013v2.909h15.643V46.517c1.494,11.634,10.533,18.551,24.133,18.551c16.508,0,24.682-8.726,25.548-19.338
	v18.554h16.352V42.037c0.629-3.384,3.774-6.212,9.039-6.212c2.201,0,4.56,0.473,7.39,1.498c0.865,12.414,17.688,8.722,17.688,13.127
	c0,1.964-2.359,2.517-4.088,2.517c-3.226,0-8.177-1.497-12.187-4.013l-3.537,11.794c2.045,1.885,8.569,4.167,16.429,4.167
	c9.121,0,18.473-4.167,18.473-14.856C243.361,37.948,225.91,39.912,225.91,35.672z M55.794,52.334c-5.029,0-8.332-3.694-8.332-8.96
	c0-4.64,3.302-8.334,8.332-8.334c5.269,0,8.414,3.694,8.414,8.334C64.208,48.64,61.063,52.334,55.794,52.334z M105.556,51.861
	c-4.874,0-8.018-3.222-8.018-8.487c0-4.64,3.145-8.334,8.018-8.334c4.875,0,8.414,3.694,8.414,8.334
	C113.97,48.64,110.432,51.861,105.556,51.861z M152.96,51.861c-5.268,0-8.413-3.615-8.413-8.487c0-4.64,3.145-8.334,8.413-8.334
	c4.873,0,8.411,3.694,8.411,8.334C161.371,48.246,157.833,51.861,152.96,51.861z M329.098,32.142
	c-2.871-4.009-7.104-6.016-12.723-6.016c-2.574,0-4.973,0.502-7.174,1.504c-2.207,1.001-4.111,2.377-5.713,4.124
	c-1.609,1.75-2.867,3.842-3.781,6.274c-0.92,2.436-1.377,5.06-1.377,7.864c0,2.807,0.428,5.387,1.289,7.733
	c0.859,2.348,2.074,4.367,3.652,6.057c1.571,1.691,3.438,3.009,5.588,3.957c2.143,0.946,4.512,1.415,7.086,1.415
	c5.676,0,10.057-2.231,13.152-6.699v5.926h6.786V26.812h-6.786V32.142L329.098,32.142z M326.301,55.259
	c-2.146,2.348-5.08,3.526-8.805,3.526c-3.613,0-6.521-1.193-8.723-3.57c-2.209-2.375-3.312-5.51-3.312-9.41
	c0-1.944,0.302-3.752,0.904-5.413c0.6-1.662,1.43-3.092,2.491-4.295c1.058-1.207,2.318-2.149,3.777-2.841
	c1.463-0.685,3.053-1.027,4.773-1.027c1.775,0,3.41,0.329,4.896,0.99c1.487,0.657,2.776,1.574,3.868,2.748
	c1.086,1.174,1.918,2.579,2.492,4.213c0.567,1.632,0.854,3.448,0.854,5.451C329.521,49.705,328.451,52.912,326.301,55.259z
	 M369.674,26.812L357.816,52.51L346.04,26.812h-8.076L357.385,66h0.861l19.078-39.188H369.674z M295.816,26.599
	c-1.086-0.372-2.203-0.558-3.354-0.558c-1.889,0-3.637,0.529-5.237,1.589c-1.605,1.06-3.238,2.733-4.898,5.027v-5.845h-7.137v37.469
	h7.137V47.265c0-3.207,0.225-5.716,0.686-7.516c0.457-1.808,1.318-3.338,2.578-4.598c0.805-0.802,1.604-1.407,2.406-1.809
	c0.801-0.399,1.689-0.599,2.668-0.599c0.969,0,1.799,0.14,2.492,0.431c0.686,0.285,1.574,0.803,2.66,1.546l3.526-6.275
	C298.082,27.585,296.908,26.971,295.816,26.599z M277.602,3.611h-37.469v7.045H255v53.625h7.732V10.656h14.869V3.611L277.602,3.611z
	"/>
</svg>
