<?xml version="1.0" encoding="UTF-8" standalone="no"?>
<svg
   xmlns:dc="http://purl.org/dc/elements/1.1/"
   xmlns:cc="http://creativecommons.org/ns#"
   xmlns:rdf="http://www.w3.org/1999/02/22-rdf-syntax-ns#"
   xmlns:svg="http://www.w3.org/2000/svg"
   xmlns="http://www.w3.org/2000/svg"
   viewBox="0 0 546.66669 72"
   height="72"
   width="546.66669"
   xml:space="preserve"
   id="svg2"
   version="1.1"><metadata
     id="metadata8"><rdf:RDF><cc:Work
         rdf:about=""><dc:format>image/svg+xml</dc:format><dc:type
           rdf:resource="http://purl.org/dc/dcmitype/StillImage" /></cc:Work></rdf:RDF></metadata><defs
     id="defs6" /><g
     transform="matrix(1.3333333,0,0,-1.3333333,0,72)"
     id="g10"><g
       transform="scale(0.1)"
       id="g12"><path
         id="path14"
         style="fill:#231f20;fill-opacity:1;fill-rule:evenodd;stroke:none"
         d="m 4024.94,104.496 c -10.82,-0.269 -19.81,-4 -26.97,-11.1991 -7.16,-7.1953 -10.88,-16.2617 -11.14,-27.1953 0.26,-11.0782 3.98,-20.2149 11.14,-27.4141 7.16,-7.1992 16.15,-10.9297 26.97,-11.1836 10.85,0.2539 19.82,3.9844 26.89,11.1836 7.07,7.1992 10.73,16.3359 10.99,27.4141 -0.26,10.9336 -3.91,20 -10.97,27.1953 -7.05,7.1991 -15.97,10.9301 -26.74,11.1991 z m 0.12,-5.9296 c 8.77,-0.2305 16.04,-3.4062 21.81,-9.5351 5.76,-6.125 8.75,-13.8086 8.96,-23.0508 -0.21,-9.2813 -3.2,-16.9922 -8.95,-23.125 -5.76,-6.1367 -13,-9.2774 -21.73,-9.4297 -8.83,0.2265 -16.15,3.3906 -21.96,9.5 -5.81,6.1094 -8.83,13.8164 -9.04,23.125 0.22,9.207 3.22,16.8711 9.01,22.9883 5.78,6.1211 13.02,9.2968 21.73,9.5273 z m -7.34,-36.3945 h 4.72 c 2.74,0.0234 4.86,-0.5508 6.34,-1.7266 1.49,-1.1719 2.45,-3.0859 2.92,-5.7344 0.46,-2.8554 0.95,-5.2148 1.45,-7.0859 0.51,-1.8711 1.02,-3.168 1.54,-3.8906 h 7.14 c -0.38,0.625 -0.81,1.7265 -1.27,3.3086 -0.46,1.582 -0.93,4.0078 -1.42,7.2773 -0.46,3.1563 -1.3,5.5938 -2.51,7.3203 -1.21,1.7266 -2.75,2.7578 -4.64,3.0938 v 0.3437 c 2.33,0.6602 4.28,1.8594 5.84,3.6016 1.56,1.7383 2.38,3.9883 2.44,6.75 0,2.0469 -0.34,3.8086 -0.99,5.293 -0.66,1.4843 -1.61,2.6875 -2.85,3.6171 -1.32,0.9922 -3.07,1.7774 -5.27,2.3633 -2.2,0.5821 -4.91,0.8789 -8.15,0.8946 -2.53,-0.0118 -4.74,-0.1289 -6.62,-0.3438 -1.89,-0.2148 -3.71,-0.4531 -5.48,-0.7226 V 43.7344 h 6.81 z m 0,19.8594 c 0.59,0.0859 1.29,0.1562 2.1,0.2109 0.81,0.0508 1.76,0.0781 2.86,0.082 3.83,-0.0742 6.53,-0.8554 8.12,-2.3398 1.59,-1.4844 2.36,-3.2266 2.32,-5.2266 -0.09,-2.625 -1.13,-4.5117 -3.13,-5.6523 -2,-1.1446 -4.46,-1.6992 -7.38,-1.6758 h -4.89 v 14.6016" /><path
         id="path16"
         style="fill:#231f20;fill-opacity:1;fill-rule:evenodd;stroke:none"
         d="m 4044.46,449.367 c 76.03,-2.363 -28.83,-141.387 -73.67,-113.613 -5.05,3.133 -6.19,8.918 -4.2,14.496 3.87,11.117 14.91,19.344 21.67,28.832 17.95,25.453 45.36,70.238 56.2,70.285 z M 3663.12,74.3086 c -11.21,-0.457 -35.16,-9.8516 -26.44,-11.3555 19.49,-3.3672 56.96,3.7071 41.36,9.1446 -5.55,1.9375 -9.04,2.4531 -14.92,2.2109 z M 494.352,522.699 C 593.949,509.895 763.129,498.184 712.105,385.316 695.754,349.145 585.152,291.332 537.57,270.031 504.133,255.063 410.859,227.418 364.051,215.02 c -3.606,-0.954 -5.02,-4.731 -4.938,-8.731 0.203,-12.445 22.977,-17.383 31.992,-19.875 l 167.317,-52.887 c 24.527,-7.058 157.644,-45.4215 178.332,-56.0309 19.996,-10.2422 20.16,-32.3594 0,-42.7266 -49.621,-25.42575 -67.25,1.7891 -115.774,19.211 L 448.605,116.102 c -72.23,24.078 -139.726,50.562 -224.609,50.562 -14.933,0 -27.914,-6.082 -37.055,-17.18 0,0 -15.996,-27.015 -16.937,-29.179 C 162.953,102.047 127.199,40.3789 104.09,10.707 94.8438,3.01172 88.1289,5.80078 79.0859,8 c -8.2031,2 -14.3671,7.2617 -16.7734,15.4648 -4.6094,15.4688 7.875,37.461 14.4063,49.461 20.1601,37.3012 50.3552,69.5392 73.4572,105.0822 45.621,70.355 149.152,263.746 144.051,281.133 -5.223,17.75 -83.926,3.785 -97.473,1.375 -44.766,-7.918 -155.7852,-48.348 -155.7852,-48.348 -9.0586,-2.082 -19.793,-2.691 -27.7891,1.633 -7.22267,3.918 -11.55079,9.797 -11.67189,18.406 -0.531247,32.035 54.61719,46.481 97.16409,58.723 71.3201,20.523 153.2381,29.136 158.0121,30.035 0,0 143.816,13.797 237.668,1.734 z m 1806.818,2.184 c 29.26,0 71.74,-0.246 94.14,-15.387 57.71,-39.012 5.96,-110.547 -44.72,-120.875 -19.06,-3.836 -29.18,15.305 -22.89,31.668 4.76,12.609 20.28,21.426 16.15,37.465 -3.83,14.812 -24.6,16.812 -37.42,19.137 -38.72,7.101 -245.01,-24.891 -297.53,-58.071 -10.08,-6.324 -24.69,-13.179 -25.14,-27.179 -0.57,-16.528 19.63,-22.77 31.5,-27.012 l 55.83,-12.774 c 103,-27.101 222.33,-51.66 290.39,-116.156 16.1,-15.258 22.41,-55.285 10.82,-77.359 -22.16,-42.074 -67.83,-68.5197 -109.16,-83.5783 -39.22,-14.2422 -149.78,-28.4492 -246.69,-30.1562 -56.57,-1 -193.19,-1.5 -211.31,19.6289 -7.23,8.4336 -17.71,15.2226 -17.71,27.0976 0,36.973 48.6,33.93 77.57,33.93 19.93,0 82.97,-10.957 104.6,-14.871 29.22,-5.227 83.35,-13.1918 137,-12.5316 36.79,0.4492 149.15,3.9956 194.36,56.2346 14.76,17.047 -5.55,37.828 -20.36,47.418 -30.61,19.875 -62.52,34.687 -96.76,46.972 0,0 -204.77,65.418 -230.11,75.09 -14.98,5.711 -29.8,8.692 -41.18,21.586 -42.69,48.399 42.15,95.403 75.25,110.297 13.66,6.148 72.23,28.363 120.09,40.934 73.69,19.355 193.28,28.492 193.28,28.492 z M 955.457,496.848 c 54.683,-0.313 -4.687,-75.934 -37.477,-65.711 -42.011,13.097 8.68,65.875 37.477,65.711 z M 384.66,476.566 c -6.57,-3.472 -13.222,-6.777 -17.18,-13.671 0,0 -106.183,-189.028 -105.613,-205.676 0.367,-11.551 12.203,-13.102 22.238,-13.102 0,0 113.563,19.172 180.047,48.688 72.942,32.386 169.641,66.515 170.418,113.285 0.285,19.344 -18.566,28.156 -32.726,34.687 -65.297,30.157 -135.078,35.789 -217.184,35.789 z m 1093.5,-14.367 c 87.45,-2.691 -62.6,-141.726 -78.8,-166.375 -6.77,-10.246 -5.84,-22.976 9.59,-22.976 0,0 58.39,23.3 95.17,39.5 33.02,14.55 56.72,35.914 83.94,38.933 8.94,1.02 18.61,-2.652 21.83,-11.058 23.88,-62.844 -195.06,-73.332 -186.17,-115.325 1.39,-6.652 8.24,-10.898 13.84,-13.55 0,0 166.46,-54.887 224.53,-77.25 19.62,-7.551 42.39,-13.387 58.96,-27.016 15.31,-12.6093 21.14,-33.0156 3.76,-46.8476 -8.29,-6.5274 -20.93,-6.4492 -31.14,-3.875 -33.18,8.4453 -107.49,48.7426 -178.62,73.5896 -70.81,24.735 -161.53,53.438 -184.75,53.438 -38.75,-27.231 -58.34,-132.7854 -125.07,-132.7854 -23.14,0 -23.26,24.0351 -19.22,40.6484 2.41,10.078 31.01,51.855 31.01,51.855 -25.9,-5.179 -216.51,-47.7769 -274.063,-25.003 -42.598,16.855 -25.789,61.089 -46.48,72.843 l -6.204,2.243 c -17.14,2.98 -39.585,-13.508 -53.582,-20.364 -26.687,-12.976 -140.828,-76.7576 -164.007,-55.09 -38.77,36.239 116.996,231.793 160.785,250.852 9.547,4.203 20.648,3.547 28.769,-2.734 11.508,-8.899 11.184,-28.118 5.715,-40.567 -5.062,-11.383 -15.672,-20.812 -23.957,-30.605 -25.383,-29.707 -58.723,-62.969 -79.25,-95.492 -5.633,-8.856 -4.816,-17.75 8.246,-17.75 l 184.942,84.269 c 0,0 54.666,50.633 116.716,54.152 40.53,2.297 122.42,-12.691 87.61,-56.234 -10.65,-13.262 -28.85,-17.305 -45.87,-13.059 -13.42,3.387 -24.52,10.895 -39.18,11.547 -37.62,1.797 -71.37,-14.035 -90.585,-43.703 -5.145,-7.836 -10.734,-15.957 -10.367,-26.488 1.183,-37.379 59.052,-33.977 87.942,-33.977 11.67,0 181.51,26.184 209.71,50.18 22.21,18.977 162.59,229.059 181.4,244.074 6.94,5.594 14.4,7.227 22.85,10 z M 2818.98,312.023 c -10.75,0.77 -55.2,-15.785 -73.19,-42.839 -7.44,-11.196 47.38,6.644 59.59,10.453 19.11,5.965 50.99,29.715 13.6,32.386 z m 645.74,-70.527 c -9.27,0.871 -67.07,-23.984 -52.62,-41.164 3.51,-4.164 10.6,-5.824 16.04,-4.543 15.09,3.563 60.56,19.07 52.4,39.473 -2.29,5.672 -10.19,5.703 -15.82,6.234 z m -720.49,253.758 c -13.35,-42.113 -163.64,-195.637 -143.04,-226.938 7.43,-11.304 25.83,-9.836 39.51,-9.836 l 16.97,2.614 c 40.14,37.117 68.67,63.492 122.88,84.64 23.11,9.016 36.54,14.973 61.25,17.219 24.33,2.211 48.56,2.488 62.4,-5.633 10.28,-6.039 17.18,-15.382 16.57,-28.277 -0.9,-18.406 -13.11,-28.488 -25.8,-40.074 -34.44,-31.383 -76.27,-46.239 -121.08,-56.563 -16.85,-3.836 -36.56,-4.98 -51.74,-12.609 -20.77,-10.363 -36.88,-50.488 -16.81,-70.258 9.98,-9.836 20.99,-11.937 33.91,-11.91 28.5,0.066 86.84,21.965 140.32,42.047 55.15,20.707 137.34,62.89 137.34,62.89 18.65,11.633 36.89,26.325 58.77,31.016 7.3,1.594 15.66,1.633 21.7,-2.449 40.57,-27.422 -59.54,-108.715 -18.85,-116.551 32.28,-6.199 100.31,120.145 153.52,111.859 26.73,-4.121 -11.75,-72.476 34.57,-89.125 9.42,-3.386 22.32,-2.41 33.54,-2.41 0,0 28.02,27.785 47.5,43.739 54.32,44.457 108.92,63.375 154.87,63.375 17.18,0 34.93,-3.989 44.28,-15.743 13.06,-16.445 6.32,-35.668 -6.74,-49.172 -35.78,-36.894 -79.57,-55.789 -128.75,-67.46 -18.57,-4.364 -45.25,-2.489 -61.45,-11.465 -6.37,-3.508 -10.41,-9.348 -10.9,-16.856 -1.76,-26.5662 35.3,-23.4646 55.21,-23.4646 0,0 27.99,0.3828 45.7,2.6136 63.55,7.996 129.79,47.281 153,59.66 85.67,45.699 231.92,147.484 255.75,147.484 l 7.51,-0.777 3.51,-1.348 c 7.3,-3.547 10.93,-12.32 8.03,-20.687 -7.38,-20.934 -35.05,-31.34 -45.7,-50.235 -10.49,-18.527 -6.04,-83.293 10.48,-96.433 6.13,-4.852 15.36,-5.008 24.01,-5.008 17.57,0 127.52,40.226 148.58,47.574 21.26,7.465 40.73,20.348 65.58,20.348 25.05,0 37.58,-23.492 15.1,-38.305 -17.92,-11.754 -38.57,-17.223 -59.38,-23.465 -50.81,-15.14 -198.7,-47.7458 -198.7,-47.7458 -23.06,-46.2813 -125.93,-63.0899 -168.42,-66.4375 -24.56,-1.875 -70.76,6.082 -83.45,25.4218 -17.42,26.4844 20.26,42.9024 45.63,48.6446 36.42,8.2499 100.51,5.2269 116.22,5.2269 20.28,14.527 23.79,27.015 20.12,54.968 -2.12,15.957 -2.25,40.766 -23.96,39.258 -24.24,-1.633 -119.85,-64.804 -119.85,-64.804 -88.68,-48.9692 -184.38,-105.0825 -298.27,-72.9692 -22,6.207 -41.1,16.2031 -47.58,39.7892 -2.29,8.203 -2.29,17.633 -7.43,24.406 -12.37,16.324 -42.27,12.59 -66.71,39.121 -51.34,-37.93 -152.76,-103.8866 -179.65,-95.8866 -58.36,17.4258 7.42,114.0586 -26.37,116.9566 -17.46,1.512 -78.22,-33.601 -95.03,-43.148 -18.36,-10.426 -66.61,-33.371 -112.72,-42.1211 -44.41,-8.4257 -84.6,-9.7343 -115.86,-2.7539 -29.34,6.609 -41.62,41.625 -38.81,71.129 0.99,10.367 5.96,19.957 3.31,30.934 -2.12,8.691 -9.96,12.851 -18.28,14.078 -19.63,2.898 -43.42,0.937 -57.87,-9.426 -13.1,-9.344 -79.98,-167.4806 -94.35,-184.9454 -8.57,-10.36722 -24.85,-18.324256 -39.3,-15.14066 -16.03,3.58984 -26.79,18.52736 -20.16,33.99606 23.55,54.9063 93.94,156.582 94.72,168.5 2.24,35.379 -73.86,45.5 -71.25,96.469 0.73,15.058 8.37,32.402 19.18,42.523 28.08,26.403 31.1,-22.812 39.62,-35.094 10.12,-14.57 30.12,-24.324 48.57,-24.324 20.32,13.102 28.97,32.157 41.95,52.074 38.23,59.008 66.59,110.45 109.16,178.047 5.89,9.352 15.76,17.7 29.1,18.028 20.19,0.496 42.15,-13.864 34.32,-38.801" /></g></g></svg>