<?xml version="1.0" encoding="iso-8859-1"?>
<!-- Generator: Adobe Illustrator 16.0.0, SVG Export Plug-In . SVG Version: 6.00 Build 0)  -->
<!DOCTYPE svg PUBLIC "-//W3C//DTD SVG 1.1 Tiny//EN" "http://www.w3.org/Graphics/SVG/1.1/DTD/svg11-tiny.dtd">
<svg version="1.1" baseProfile="tiny" id="Layer_1" xmlns="http://www.w3.org/2000/svg" xmlns:xlink="http://www.w3.org/1999/xlink"
	 x="0px" y="0px" width="22px" height="42px" viewBox="0 0 22 42" xml:space="preserve">
<path fill-rule="evenodd" fill="#58B69E" d="M21.29,40.93H0.71C0.32,40.93,0,41.17,0,41.47C0,41.76,0.32,42,0.71,42h20.58
	c0.39,0,0.71-0.24,0.71-0.53C22,41.17,21.68,40.93,21.29,40.93z M6.78,10.44c0.39,0,0.71-0.24,0.71-0.54V9.07h7.02V9.9
	c0,0.3,0.32,0.54,0.71,0.54c0.4,0,0.71-0.24,0.71-0.54V8.54c0-0.29-0.31-0.53-0.71-0.53h-3.51V0.53C11.71,0.24,11.39,0,11,0
	s-0.71,0.24-0.71,0.53v7.48H6.78c-0.4,0-0.71,0.24-0.71,0.53V9.9C6.07,10.2,6.38,10.44,6.78,10.44z M15.74,11.88l0.7,19.41
	l-4.63-18.63c-0.05-0.26-0.35-0.45-0.7-0.45s-0.64,0.19-0.7,0.45L5.55,31.55l0.7-19.67H15.74z M4.65,40.18
	c0.39,0,0.71-0.24,0.71-0.53v-3.34l5.74-20.26l5.54,20.26v3.34c0,0.29,0.32,0.53,0.71,0.53s0.71-0.24,0.71-0.53v-3.39l0,0
	l-0.91-24.92c-0.01-0.29-0.32-0.52-0.71-0.52H5.55c-0.39,0-0.7,0.23-0.71,0.52l-0.9,24.91v0.01v3.39
	C3.94,39.94,4.26,40.18,4.65,40.18z M6.9,35.73c-0.4,0-0.72,0.24-0.72,0.53c0,0.3,0.32,0.53,0.72,0.53h8.2
	c0.4,0,0.72-0.23,0.72-0.53c0-0.29-0.32-0.53-0.72-0.53H6.9z"/>
</svg>
