<?xml version="1.0" encoding="iso-8859-1"?>
<!-- Generator: Adobe Illustrator 16.0.0, SVG Export Plug-In . SVG Version: 6.00 Build 0)  -->
<!DOCTYPE svg PUBLIC "-//W3C//DTD SVG 1.1 Tiny//EN" "http://www.w3.org/Graphics/SVG/1.1/DTD/svg11-tiny.dtd">
<svg version="1.1" baseProfile="tiny" id="Layer_1" xmlns="http://www.w3.org/2000/svg" xmlns:xlink="http://www.w3.org/1999/xlink"
	 x="0px" y="0px" width="18px" height="18px" viewBox="0 0 18 18" xml:space="preserve">
<path fill-rule="evenodd" fill="#FFFFFF" d="M13,8h-3V5H8v3H5v2h3v3h2v-3h3V8z M0,9c0,4.97,4.03,9,9,9c4.97,0,9-4.03,9-9
	c0-4.97-4.03-9-9-9C4.03,0,0,4.03,0,9z M2,9c0-3.87,3.13-7,7-7s7,3.13,7,7s-3.13,7-7,7S2,12.87,2,9z"/>
</svg>
