<?xml version="1.0" encoding="iso-8859-1"?>
<!-- Generator: Adobe Illustrator 16.0.0, SVG Export Plug-In . SVG Version: 6.00 Build 0)  -->
<!DOCTYPE svg PUBLIC "-//W3C//DTD SVG 1.1 Tiny//EN" "http://www.w3.org/Graphics/SVG/1.1/DTD/svg11-tiny.dtd">
<svg version="1.1" baseProfile="tiny" id="Layer_1" xmlns="http://www.w3.org/2000/svg" xmlns:xlink="http://www.w3.org/1999/xlink"
	 x="0px" y="0px" width="40px" height="35px" viewBox="0 0 40 35" xml:space="preserve">
<path fill-rule="evenodd" fill="#58B69E" d="M9.07,10.38c-0.36-0.06-0.69,0.18-0.74,0.53C7.74,14.47,6.72,17.19,5,19.73
	c-0.2,0.3-0.12,0.7,0.18,0.9c0.11,0.07,0.23,0.11,0.36,0.11c0.2,0,0.41-0.1,0.53-0.28c1.8-2.67,2.92-5.63,3.53-9.34
	C9.66,10.77,9.42,10.44,9.07,10.38z M14.41,10.39c-0.34-0.09-0.69,0.11-0.79,0.46c-0.91,3.36-3.07,6.42-6.79,9.63
	c-0.27,0.23-0.3,0.64-0.07,0.91c0.13,0.15,0.31,0.23,0.49,0.23c0.15,0,0.3-0.05,0.42-0.16c3.92-3.38,6.21-6.65,7.2-10.27
	C14.96,10.84,14.76,10.49,14.41,10.39z M34.52,20.74c0.12,0,0.25-0.04,0.36-0.11c0.29-0.2,0.37-0.6,0.17-0.9
	c-1.71-2.54-2.73-5.26-3.32-8.82c-0.06-0.35-0.39-0.59-0.74-0.53c-0.35,0.06-0.59,0.39-0.53,0.74c0.61,3.71,1.73,6.67,3.53,9.34
	C34.11,20.64,34.31,20.74,34.52,20.74z M32.81,21.62c0.18,0,0.36-0.08,0.49-0.23c0.23-0.27,0.2-0.68-0.07-0.91
	c-3.72-3.21-5.88-6.27-6.79-9.63c-0.1-0.35-0.45-0.55-0.8-0.46c-0.34,0.1-0.54,0.45-0.45,0.8c0.99,3.62,3.27,6.88,7.2,10.27
	C32.51,21.57,32.66,21.62,32.81,21.62z M6.15,24.42c-0.12-0.34-0.48-0.52-0.82-0.4c-0.34,0.11-0.52,0.48-0.41,0.82
	c0.62,1.83,0.92,3.94,0.88,6.26c0,0.36,0.28,0.65,0.64,0.66h0.01c0.35,0,0.64-0.28,0.64-0.64C7.13,28.65,6.81,26.39,6.15,24.42z
	 M34.73,24.02c-0.34-0.12-0.7,0.06-0.82,0.4c-0.67,1.97-0.98,4.23-0.94,6.7c0,0.36,0.29,0.64,0.64,0.64h0.01
	c0.36-0.01,0.64-0.3,0.64-0.66c-0.04-2.32,0.25-4.43,0.87-6.26C35.25,24.5,35.07,24.13,34.73,24.02z M32.68,24.01l3.51-1.61v11.3
	h-5.16C31.05,30.1,31.25,26.68,32.68,24.01z M20.75,10.26C21.1,9.52,21.42,8.77,21.71,8l0.15-0.39c1.86,0.73,3.96,0.57,5.71-0.51
	l0.82-0.51L29.2,7.1c1.04,0.64,2.21,0.96,3.38,0.96s2.34-0.32,3.38-0.96l0.23-0.14v14.01l-3.94,1.81l-0.49-0.31
	C27.06,19.51,23.22,15.24,20.75,10.26z M8.3,22.47l-0.49,0.31l-3.94-1.81V6.99L4.04,7.1c2.08,1.29,4.67,1.29,6.76,0l0.81-0.51
	l0.82,0.51c1.76,1.09,3.89,1.24,5.76,0.49L18.35,8c0.29,0.77,0.61,1.52,0.96,2.26C16.84,15.24,13,19.51,8.3,22.47z M3.87,33.7V22.4
	l3.51,1.61c1.43,2.67,1.63,6.09,1.65,9.69H3.87z M20,6.59l0.7,0.44l-0.2,0.51c-0.15,0.4-0.3,0.79-0.47,1.17
	c-0.17-0.38-0.32-0.77-0.47-1.17L19.35,7L20,6.59z M36.93,5.2h-0.01c-0.03,0-0.06-0.01-0.09-0.01L36.78,5.2
	c-0.12-0.01-0.24,0.01-0.34,0.08l-1.15,0.71c-1.67,1.03-3.75,1.03-5.42,0l-1.15-0.71c-0.2-0.13-0.46-0.13-0.67,0L26.9,5.99
	c-1.67,1.03-3.74,1.03-5.41,0l-1.15-0.71c-0.21-0.13-0.47-0.13-0.68,0l-1.15,0.71c-1.67,1.03-3.74,1.03-5.41,0l-1.15-0.71
	c-0.21-0.13-0.47-0.13-0.68,0l-1.15,0.71c-1.66,1.03-3.74,1.03-5.41,0L3.56,5.28L3.52,5.26C3.48,5.24,3.44,5.23,3.4,5.22
	C3.36,5.21,3.31,5.2,3.27,5.19H3.23L3.16,5.2c-0.05,0-0.09,0.01-0.13,0.03L2.92,5.28L2.81,5.34c-0.03,0.03-0.06,0.07-0.09,0.1
	L2.68,5.49L2.66,5.54C2.64,5.58,2.63,5.62,2.61,5.66L2.59,5.78L2.58,5.83v15.54v12.98c0,0.36,0.29,0.65,0.65,0.65h6.45
	c0.35,0,0.64-0.29,0.64-0.65c0-3.86-0.13-7.57-1.62-10.6l0.28-0.18c4.64-2.92,8.46-7.06,11.05-11.88
	c2.58,4.83,6.41,8.97,11.05,11.88l0.28,0.18c-1.49,3.03-1.62,6.74-1.62,10.6c0,0.36,0.29,0.65,0.64,0.65h6.45
	c0.36,0,0.65-0.29,0.65-0.65V5.83C37.48,5.51,37.24,5.25,36.93,5.2z M38.06,2.59c-0.35,0-0.64-0.29-0.64-0.65
	c0-0.35,0.29-0.64,0.64-0.64c0.36,0,0.65,0.29,0.65,0.64C38.71,2.3,38.42,2.59,38.06,2.59z M1.94,2.59c-0.36,0-0.65-0.29-0.65-0.65
	c0-0.35,0.29-0.64,0.65-0.64c0.35,0,0.64,0.29,0.64,0.64C2.58,2.3,2.29,2.59,1.94,2.59z M38.06,0c-0.84,0-1.55,0.54-1.81,1.3H3.75
	C3.48,0.54,2.78,0,1.94,0C0.87,0,0,0.87,0,1.94c0,1.08,0.87,1.95,1.94,1.95c0.84,0,1.54-0.54,1.81-1.3h32.5
	c0.26,0.76,0.97,1.3,1.81,1.3c1.07,0,1.94-0.87,1.94-1.95C40,0.87,39.13,0,38.06,0z"/>
</svg>
