<?xml version="1.0" encoding="iso-8859-1"?>
<!-- Generator: Adobe Illustrator 16.0.0, SVG Export Plug-In . SVG Version: 6.00 Build 0)  -->
<!DOCTYPE svg PUBLIC "-//W3C//DTD SVG 1.1 Tiny//EN" "http://www.w3.org/Graphics/SVG/1.1/DTD/svg11-tiny.dtd">
<svg version="1.1" baseProfile="tiny" id="Layer_x5F_1_x5F_1"
	 xmlns="http://www.w3.org/2000/svg" xmlns:xlink="http://www.w3.org/1999/xlink" x="0px" y="0px" width="62px" height="61px"
	 viewBox="0 0 62 61" xml:space="preserve">
<path fill-rule="evenodd" fill="#58B69E" d="M56.74,61H5.26C2.36,61,0,58.23,0,54.83V13.41c0-3.4,2.36-6.17,5.26-6.17h7.12V1.27
	c0-0.7,0.58-1.27,1.29-1.27s1.29,0.57,1.29,1.27v5.97h32.08V1.27c0-0.7,0.58-1.27,1.29-1.27s1.29,0.57,1.29,1.27v5.97h7.12
	c2.9,0,5.26,2.77,5.26,6.17v41.42C62,58.23,59.64,61,56.74,61z M5.26,58.46h51.48c1.45,0,2.68-1.66,2.68-3.63V21.76H2.58v33.07
	C2.58,56.8,3.81,58.46,5.26,58.46z M56.74,9.78h-7.12v4.47c0,0.7-0.58,1.27-1.29,1.27s-1.29-0.57-1.29-1.27V9.78H14.96v4.47
	c0,0.7-0.58,1.27-1.29,1.27s-1.29-0.57-1.29-1.27V9.78H5.26c-1.45,0-2.68,1.67-2.68,3.63v5.81h56.84v-5.81
	C59.42,11.45,58.19,9.78,56.74,9.78z"/>
<path fill-rule="evenodd" fill="#58B69E" d="M50.91,51c2.07,0,3.09-1.07,3.09-2.49c0-2.89-4.42-2.06-4.42-3.28
	c0-0.47,0.39-0.77,1.08-0.77c0.78,0,1.61,0.27,2.24,0.85l0.91-1.23c-0.76-0.71-1.78-1.09-3-1.09c-1.81,0-2.91,1.08-2.91,2.37
	c0,2.91,4.42,1.97,4.42,3.31c0,0.45-0.43,0.86-1.34,0.86c-1.06,0-1.9-0.49-2.44-1.05l-0.9,1.28C48.37,50.5,49.43,51,50.91,51z
	 M44,51c2.06,0,3.08-1.07,3.08-2.49c0-2.89-4.42-2.06-4.42-3.28c0-0.47,0.39-0.77,1.08-0.77c0.78,0,1.61,0.27,2.24,0.85l0.92-1.23
	c-0.77-0.71-1.79-1.09-3.01-1.09c-1.81,0-2.91,1.08-2.91,2.37c0,2.91,4.42,1.97,4.42,3.31c0,0.45-0.43,0.86-1.34,0.86
	c-1.05,0-1.89-0.49-2.44-1.05l-0.9,1.28C41.45,50.5,42.51,51,44,51z M39.97,50.88v-1.47h-3.81v-1.76h3.73v-1.47h-3.73v-1.6h3.81
	v-1.47h-5.45v7.77H39.97z M30.33,51c1.69,0,2.68-0.94,3.22-1.91l-1.41-0.68c-0.32,0.62-1.02,1.12-1.81,1.12
	c-1.41,0-2.43-1.08-2.43-2.53c0-1.46,1.02-2.54,2.43-2.54c0.79,0,1.49,0.5,1.81,1.12l1.41-0.69c-0.54-0.98-1.53-1.9-3.22-1.9
	c-2.32,0-4.11,1.62-4.11,4.01C26.22,49.37,28.01,51,30.33,51z M22.42,51c1.69,0,2.67-0.94,3.21-1.91l-1.41-0.68
	c-0.32,0.62-1.02,1.12-1.8,1.12c-1.42,0-2.44-1.08-2.44-2.53c0-1.46,1.02-2.54,2.44-2.54c0.78,0,1.48,0.5,1.8,1.12l1.41-0.69
	c-0.54-0.98-1.52-1.9-3.21-1.9c-2.33,0-4.12,1.62-4.12,4.01C18.3,49.37,20.09,51,22.42,51z M17.98,50.88l-2.96-7.77h-2.06L10,50.88
	h1.86l0.48-1.32h3.3l0.49,1.32H17.98z M15.19,48.09h-2.4l1.2-3.33L15.19,48.09z M42.16,36.89v-6.3h2.24v-1.47h-6.13v1.47h2.25v6.3
	H42.16z M34.58,37.01c2.06,0,3.08-1.08,3.08-2.49c0-2.89-4.42-2.07-4.42-3.29c0-0.46,0.4-0.76,1.09-0.76c0.78,0,1.6,0.27,2.23,0.85
	l0.92-1.24C36.71,29.37,35.69,29,34.47,29c-1.8,0-2.91,1.07-2.91,2.36c0,2.91,4.42,1.97,4.42,3.32c0,0.45-0.42,0.86-1.33,0.86
	c-1.06,0-1.9-0.49-2.44-1.06l-0.9,1.29C32.03,36.51,33.09,37.01,34.58,37.01z M30.55,36.89v-1.47h-3.8v-1.76h3.72v-1.47h-3.72v-1.6
	h3.8v-1.47h-5.44v7.77H30.55z M21.62,36.89c1.48,0,2.25-0.94,2.25-2.12c0-0.96-0.65-1.77-1.49-1.9c0.73-0.15,1.33-0.82,1.33-1.77
	c0-1.03-0.75-1.98-2.22-1.98h-4.03v7.77H21.62z M21.14,32.19H19.1v-1.6h2.04c0.54,0,0.89,0.33,0.89,0.8
	C22.03,31.88,21.68,32.19,21.14,32.19z M21.21,35.42H19.1v-1.76h2.1c0.64,0,0.98,0.39,0.98,0.88C22.18,35.1,21.82,35.42,21.21,35.42
	z"/>
</svg>
