<?xml version="1.0" encoding="iso-8859-1"?>
<!-- Generator: Adobe Illustrator 16.0.0, SVG Export Plug-In . SVG Version: 6.00 Build 0)  -->
<!DOCTYPE svg PUBLIC "-//W3C//DTD SVG 1.1 Tiny//EN" "http://www.w3.org/Graphics/SVG/1.1/DTD/svg11-tiny.dtd">
<svg version="1.1" baseProfile="tiny" id="Layer_1" xmlns="http://www.w3.org/2000/svg" xmlns:xlink="http://www.w3.org/1999/xlink"
	 x="0px" y="0px" width="19px" height="20px" viewBox="0 0 19 20" xml:space="preserve">
<path fill-rule="evenodd" fill="#859199" d="M5.18,9.79c-0.24,0-0.43,0.19-0.43,0.42c0,0.24,0.19,0.43,0.43,0.43
	c0.24,0,0.43-0.19,0.43-0.43C5.61,9.98,5.42,9.79,5.18,9.79z M5.18,11.49c-0.71,0-1.29-0.57-1.29-1.28c0-0.7,0.58-1.27,1.29-1.27
	c0.72,0,1.3,0.57,1.3,1.27C6.48,10.92,5.9,11.49,5.18,11.49z M5.18,14.47c-0.24,0-0.43,0.19-0.43,0.42c0,0.24,0.19,0.43,0.43,0.43
	c0.24,0,0.43-0.19,0.43-0.43C5.61,14.66,5.42,14.47,5.18,14.47z M5.18,16.17c-0.71,0-1.29-0.57-1.29-1.28c0-0.7,0.58-1.27,1.29-1.27
	c0.72,0,1.3,0.57,1.3,1.27C6.48,15.6,5.9,16.17,5.18,16.17z M9.5,9.79c-0.24,0-0.43,0.19-0.43,0.42c0,0.24,0.19,0.43,0.43,0.43
	s0.43-0.19,0.43-0.43C9.93,9.98,9.74,9.79,9.5,9.79z M9.5,11.49c-0.72,0-1.3-0.57-1.3-1.28c0-0.7,0.58-1.27,1.3-1.27
	s1.3,0.57,1.3,1.27C10.8,10.92,10.22,11.49,9.5,11.49z M9.5,14.47c-0.24,0-0.43,0.19-0.43,0.42c0,0.24,0.19,0.43,0.43,0.43
	s0.43-0.19,0.43-0.43C9.93,14.66,9.74,14.47,9.5,14.47z M9.5,16.17c-0.72,0-1.3-0.57-1.3-1.28c0-0.7,0.58-1.27,1.3-1.27
	s1.3,0.57,1.3,1.27C10.8,15.6,10.22,16.17,9.5,16.17z M13.82,9.79c-0.24,0-0.43,0.19-0.43,0.42c0,0.24,0.19,0.43,0.43,0.43
	c0.24,0,0.43-0.19,0.43-0.43C14.25,9.98,14.06,9.79,13.82,9.79z M13.82,11.49c-0.72,0-1.3-0.57-1.3-1.28c0-0.7,0.58-1.27,1.3-1.27
	c0.71,0,1.29,0.57,1.29,1.27C15.11,10.92,14.53,11.49,13.82,11.49z M13.82,14.47c-0.24,0-0.43,0.19-0.43,0.42
	c0,0.24,0.19,0.43,0.43,0.43c0.24,0,0.43-0.19,0.43-0.43C14.25,14.66,14.06,14.47,13.82,14.47z M13.82,16.17
	c-0.72,0-1.3-0.57-1.3-1.28c0-0.7,0.58-1.27,1.3-1.27c0.71,0,1.29,0.57,1.29,1.27C15.11,15.6,14.53,16.17,13.82,16.17z M18.14,5.96
	H0.86V18.3c0,0.47,0.39,0.85,0.87,0.85h15.54c0.48,0,0.87-0.38,0.87-0.85V5.96z M18.14,2.98c0-0.47-0.39-0.85-0.87-0.85h-2.16
	c0,0.7-0.58,1.27-1.29,1.27c-0.72,0-1.3-0.57-1.3-1.27H10.8c0,0.7-0.58,1.27-1.3,1.27S8.2,2.83,8.2,2.13H6.48
	c0,0.7-0.58,1.27-1.3,1.27c-0.71,0-1.29-0.57-1.29-1.27H1.73c-0.48,0-0.87,0.38-0.87,0.85v2.13h17.28V2.98z M14.25,1.28
	c0-0.24-0.19-0.43-0.43-0.43c-0.24,0-0.43,0.19-0.43,0.43v0.85c0,0.23,0.19,0.42,0.43,0.42c0.24,0,0.43-0.19,0.43-0.42V1.28z
	 M9.93,1.28c0-0.24-0.19-0.43-0.43-0.43S9.07,1.04,9.07,1.28v0.85c0,0.23,0.19,0.42,0.43,0.42s0.43-0.19,0.43-0.42V1.28z M5.61,1.28
	c0-0.24-0.19-0.43-0.43-0.43c-0.24,0-0.43,0.19-0.43,0.43v0.85c0,0.23,0.19,0.42,0.43,0.42c0.24,0,0.43-0.19,0.43-0.42V1.28z
	 M17.27,20H1.73C0.77,20,0,19.24,0,18.3V2.98c0-0.94,0.77-1.7,1.73-1.7h2.16C3.89,0.57,4.47,0,5.18,0c0.72,0,1.3,0.57,1.3,1.28H8.2
	C8.2,0.57,8.78,0,9.5,0s1.3,0.57,1.3,1.28h1.72c0-0.71,0.58-1.28,1.3-1.28c0.71,0,1.29,0.57,1.29,1.28h2.16
	c0.96,0,1.73,0.76,1.73,1.7V18.3C19,19.24,18.23,20,17.27,20z"/>
</svg>
