<?xml version="1.0" encoding="iso-8859-1"?>
<!-- Generator: Adobe Illustrator 16.0.0, SVG Export Plug-In . SVG Version: 6.00 Build 0)  -->
<!DOCTYPE svg PUBLIC "-//W3C//DTD SVG 1.1 Tiny//EN" "http://www.w3.org/Graphics/SVG/1.1/DTD/svg11-tiny.dtd">
<svg version="1.1" baseProfile="tiny" id="Layer_1" xmlns="http://www.w3.org/2000/svg" xmlns:xlink="http://www.w3.org/1999/xlink"
	 x="0px" y="0px" width="40px" height="39px" viewBox="0 0 40 39" xml:space="preserve">
<path fill-rule="evenodd" fill="#58B69E" d="M18.52,11.53c-0.82,0-1.49,0.66-1.49,1.46c0,0.81,0.67,1.47,1.49,1.47S20,13.8,20,12.99
	C20,12.19,19.339,11.53,18.52,11.53z M24.649,11.53c-0.82,0-1.48,0.66-1.48,1.46c0,0.81,0.66,1.47,1.48,1.47
	c0.82,0,1.49-0.66,1.49-1.47C26.14,12.19,25.47,11.53,24.649,11.53z M30.79,11.53c-0.82,0-1.48,0.66-1.48,1.46
	c0,0.81,0.66,1.47,1.48,1.47s1.48-0.66,1.48-1.47C32.27,12.19,31.609,11.53,30.79,11.53z M40,12.27C40,5.51,35.129,0,29.14,0h-9.28
	C13.87,0,9,5.51,9,12.27c0,6.76,4.87,12.27,10.86,12.27h6.71l4.49,5.07c0.22,0.25,0.52,0.39,0.82,0.39c0.64,0,1.15-0.58,1.15-1.3
	v-4.98C37.22,21.88,40,17.39,40,12.27z M38.72,12.27c0,4.64-2.65,8.79-6.54,10.24c-0.26,0.1-0.43,0.39-0.43,0.68v5.17l-4.45-5.03
	c-0.13-0.14-0.3-0.19-0.47-0.19h-6.93c-5.26,0-9.57-4.83-9.57-10.82c0-5.94,4.27-10.82,9.57-10.82h9.28
	C34.439,1.45,38.72,6.28,38.72,12.27z M4.12,16.43c0.08,0,0.21,0.02,0.33,0.13l2.83,5.18c0.15,0.29,0.21,0.53,0.16,0.69
	c-0.05,0.14-0.18,0.22-0.21,0.24l-1.34,0.45c-1.74,0.58-1.74,0.58-1.83,0.94c-0.43,1.4,0.94,3.63,2.16,5.26
	c1.36,1.82,4.48,5.26,6.52,5.26l0.21-0.02l0.37-0.04l1.56-2.81c0.03-0.04,0.14-0.17,0.32-0.17c0.16,0,0.38,0.1,0.61,0.28l4.67,3.65
	c0.13,0.21,0.1,0.49-0.1,0.66l-0.07,0.06c-0.04,0.04-1.11,1.14-3.33,1.35c-0.23,0.02-0.46,0.03-0.7,0.03
	c-3.55,0-7.89-2.31-10.79-5.74c-3.19-3.76-4.68-8.62-3.8-12.37c0.48-2.05,1.9-2.8,1.95-2.83l0.07-0.03l0.05-0.04
	C3.87,16.47,3.99,16.43,4.12,16.43z M16.279,39c0.28,0,0.56-0.01,0.83-0.04c2.6-0.24,3.99-1.52,4.23-1.77
	c0.79-0.69,0.89-1.88,0.21-2.69l-0.05-0.05l-4.8-3.76c-0.5-0.38-1.01-0.58-1.5-0.58c-0.99,0-1.5,0.76-1.55,0.84l-1.19,2.15
	c-1.05-0.3-3.18-2.09-5.08-4.63c-1.28-1.71-1.88-3-1.95-3.68l2.3-0.78L7.77,24c0.08-0.03,0.75-0.33,1.02-1.07
	c0.2-0.57,0.12-1.19-0.24-1.87l-2.91-5.32L5.6,15.68C5.229,15.25,4.689,15,4.12,15c-0.42,0-0.84,0.14-1.19,0.39
	c-0.37,0.2-2.07,1.26-2.65,3.74c-0.97,4.18,0.63,9.52,4.1,13.62C7.6,36.55,12.27,39,16.279,39z"/>
</svg>
