<?xml version="1.0" encoding="iso-8859-1"?>
<!-- Generator: Adobe Illustrator 16.0.0, SVG Export Plug-In . SVG Version: 6.00 Build 0)  -->
<!DOCTYPE svg PUBLIC "-//W3C//DTD SVG 1.1 Tiny//EN" "http://www.w3.org/Graphics/SVG/1.1/DTD/svg11-tiny.dtd">
<svg version="1.1" baseProfile="tiny" id="Layer_1" xmlns="http://www.w3.org/2000/svg" xmlns:xlink="http://www.w3.org/1999/xlink"
	 x="0px" y="0px" width="39px" height="39px" viewBox="0 0 39 39" xml:space="preserve">
<path fill-rule="evenodd" fill="#58B69E" d="M37.56,36.83c0,0.4-0.33,0.73-0.73,0.73h-1.44v-6.5c0-2.79-1.94-5.06-4.33-5.06
	s-4.34,2.27-4.34,5.06v6.5h-2.89v-6.5c0-2.79-1.94-5.06-4.33-5.06s-4.33,2.27-4.33,5.06v6.5h-2.89v-6.5c0-2.79-1.95-5.06-4.34-5.06
	s-4.33,2.27-4.33,5.06v6.5H2.17c-0.4,0-0.73-0.33-0.73-0.73v-13c0-0.39,0.33-0.72,0.73-0.72h34.66c0.4,0,0.73,0.33,0.73,0.72V36.83z
	 M33.94,18.06h-5.77V13c0-1.99,1.29-3.61,2.89-3.61c1.59,0,2.88,1.62,2.88,3.61V18.06z M22.39,18.06h-5.78V13
	c0-1.99,1.3-3.61,2.89-3.61s2.89,1.62,2.89,3.61V18.06z M10.83,18.06H5.06V13c0-1.99,1.29-3.61,2.88-3.61c1.6,0,2.89,1.62,2.89,3.61
	V18.06z M37.56,20.22v0.72c0,0.4-0.33,0.73-0.73,0.73H2.17c-0.4,0-0.73-0.33-0.73-0.73v-0.72c0-0.4,0.33-0.72,0.73-0.72h2.16h7.23
	h4.33h7.22h4.33h7.23h2.16C37.23,19.5,37.56,19.82,37.56,20.22z M37.56,5.78v11.55c0,0.4-0.33,0.73-0.73,0.73h-1.44V13
	c0-2.79-1.94-5.06-4.33-5.06s-4.34,2.27-4.34,5.06v5.06h-2.89V13c0-2.79-1.94-5.06-4.33-5.06s-4.33,2.27-4.33,5.06v5.06h-2.89V13
	c0-2.79-1.95-5.06-4.34-5.06S3.61,10.21,3.61,13v5.06H2.17c-0.4,0-0.73-0.33-0.73-0.73V5.78c0-0.4,0.33-0.72,0.73-0.72h34.66
	C37.23,5.06,37.56,5.38,37.56,5.78z M1.44,2.17c0-0.4,0.33-0.73,0.73-0.73h34.66c0.4,0,0.73,0.33,0.73,0.73v0.72
	c0,0.4-0.33,0.72-0.73,0.72H2.17c-0.4,0-0.73-0.32-0.73-0.72V2.17z M39,2.17C39,0.97,38.03,0,36.83,0H2.17C0.97,0,0,0.97,0,2.17
	v0.72c0,0.56,0.22,1.06,0.56,1.44C0.22,4.72,0,5.22,0,5.78v11.55c0,0.56,0.22,1.06,0.56,1.45C0.22,19.16,0,19.67,0,20.22v0.72
	C0,21.5,0.22,22,0.56,22.39C0.22,22.77,0,23.28,0,23.83v13C0,38.03,0.97,39,2.17,39h2.16c0.4,0,0.73-0.32,0.73-0.72v-7.22
	c0-2,1.29-3.62,2.88-3.62c1.6,0,2.89,1.62,2.89,3.62v7.22c0,0.4,0.33,0.72,0.73,0.72h4.33c0.4,0,0.72-0.32,0.72-0.72v-7.22
	c0-2,1.3-3.62,2.89-3.62s2.89,1.62,2.89,3.62v7.22c0,0.4,0.32,0.72,0.72,0.72h4.33c0.4,0,0.73-0.32,0.73-0.72v-7.22
	c0-2,1.29-3.62,2.89-3.62c1.59,0,2.88,1.62,2.88,3.62v7.22c0,0.4,0.33,0.72,0.73,0.72h2.16c1.2,0,2.17-0.97,2.17-2.17v-13
	c0-0.55-0.22-1.06-0.56-1.44C38.78,22,39,21.5,39,20.94v-0.72c0-0.55-0.22-1.06-0.56-1.44c0.34-0.39,0.56-0.89,0.56-1.45V5.78
	c0-0.56-0.22-1.06-0.56-1.45C38.78,3.95,39,3.45,39,2.89V2.17z"/>
</svg>
