<?xml version="1.0" encoding="iso-8859-1"?>
<!-- Generator: Adobe Illustrator 16.0.0, SVG Export Plug-In . SVG Version: 6.00 Build 0)  -->
<!DOCTYPE svg PUBLIC "-//W3C//DTD SVG 1.1 Tiny//EN" "http://www.w3.org/Graphics/SVG/1.1/DTD/svg11-tiny.dtd">
<svg version="1.1" baseProfile="tiny" id="Layer_1" xmlns="http://www.w3.org/2000/svg" xmlns:xlink="http://www.w3.org/1999/xlink"
	 x="0px" y="0px" width="24px" height="22px" viewBox="0 0 24 22" xml:space="preserve">
<path fill="#58B69E" d="M19.19,15.35H11.5c-0.53,0-0.96,0.42-0.96,0.95c0,0.53,0.43,0.96,0.96,0.96h7.69c0.53,0,0.96-0.43,0.96-0.96
	C20.15,15.77,19.72,15.35,19.19,15.35z M19.19,10.56H11.5c-0.53,0-0.96,0.43-0.96,0.96s0.43,0.96,0.96,0.96h7.69
	c0.53,0,0.96-0.43,0.96-0.96S19.72,10.56,19.19,10.56z M19.19,5.78H11.5c-0.53,0-0.96,0.43-0.96,0.96c0,0.53,0.43,0.96,0.96,0.96
	h7.69c0.53,0,0.96-0.43,0.96-0.96C20.15,6.21,19.72,5.78,19.19,5.78z M0.96,7.65h1.92c0.54,0,0.97-0.43,0.97-0.95
	c0-0.53-0.43-0.96-0.97-0.96H0.96C0.43,5.74,0,6.17,0,6.7C0,7.22,0.43,7.65,0.96,7.65z M22.08,3.83c0-1.06-0.86-1.92-1.93-1.92H8.62
	v18.18h11.53c1.07,0,1.93,0.09,1.93-0.96V3.83z M24,3.83v15.3c0,2.11-1.72,2.87-3.85,2.87H5.77c-2.12,0-3.85-1.71-3.85-3.83h0.96
	c1.6,0,2.89-1.28,2.89-2.87c0-1.58-1.29-2.86-2.89-2.86H1.92V9.56h0.96c1.6,0,2.89-1.28,2.89-2.86c0-1.59-1.29-2.87-2.89-2.87H1.92
	C1.92,1.71,3.65,0,5.77,0h14.38C22.28,0,24,1.71,24,3.83z M2.88,16.26H0.96C0.43,16.26,0,15.83,0,15.3c0-0.52,0.43-0.95,0.96-0.95
	h1.92c0.54,0,0.97,0.43,0.97,0.95C3.85,15.83,3.42,16.26,2.88,16.26z"/>
</svg>
