<?xml version="1.0" encoding="iso-8859-1"?>
<!-- Generator: Adobe Illustrator 16.0.0, SVG Export Plug-In . SVG Version: 6.00 Build 0)  -->
<!DOCTYPE svg PUBLIC "-//W3C//DTD SVG 1.1 Tiny//EN" "http://www.w3.org/Graphics/SVG/1.1/DTD/svg11-tiny.dtd">
<svg version="1.1" baseProfile="tiny" id="Layer_1" xmlns="http://www.w3.org/2000/svg" xmlns:xlink="http://www.w3.org/1999/xlink"
	 x="0px" y="0px" width="29px" height="20px" viewBox="0 0 29 20" xml:space="preserve">
<path fill-rule="evenodd" fill="#D6DEE2" d="M25.61,0H3.39C1.52,0,0,1.49,0,3.33v1.11h29V3.33C29,1.49,27.48,0,25.61,0z
	 M11.86,14.44H2.82c-0.31,0-0.56-0.24-0.56-0.55s0.25-0.56,0.56-0.56h9.04c0.32,0,0.57,0.25,0.57,0.56S12.18,14.44,11.86,14.44z
	 M11.86,16.67H8.47c-0.31,0-0.56-0.25-0.56-0.56s0.25-0.55,0.56-0.55h3.39c0.32,0,0.57,0.24,0.57,0.55S12.18,16.67,11.86,16.67z
	 M6.21,16.67H2.82c-0.31,0-0.56-0.25-0.56-0.56s0.25-0.55,0.56-0.55h3.39c0.32,0,0.57,0.24,0.57,0.55S6.53,16.67,6.21,16.67z
	 M0,7.78v8.89C0,18.51,1.52,20,3.39,20h22.22c1.87,0,3.39-1.49,3.39-3.33V7.78H0z"/>
</svg>
