<?xml version="1.0" encoding="iso-8859-1"?>
<!-- Generator: Adobe Illustrator 16.0.0, SVG Export Plug-In . SVG Version: 6.00 Build 0)  -->
<!DOCTYPE svg PUBLIC "-//W3C//DTD SVG 1.1 Tiny//EN" "http://www.w3.org/Graphics/SVG/1.1/DTD/svg11-tiny.dtd">
<svg version="1.1" baseProfile="tiny" id="Layer_1" xmlns="http://www.w3.org/2000/svg" xmlns:xlink="http://www.w3.org/1999/xlink"
	 x="0px" y="0px" width="21px" height="42px" viewBox="0 0 21 42" xml:space="preserve">
<path fill-rule="evenodd" fill="#58B69E" d="M18.68,40.33H2.74v-1.66h15.11h0.83V40.33z M2.8,37H1.91c-0.46,0-0.83,0.37-0.83,0.83
	v3.34c0,0.46,0.37,0.83,0.83,0.83h17.6c0.46,0,0.83-0.37,0.83-0.83v-3.34c0-0.46-0.37-0.83-0.83-0.83H16.5l-0.03-0.46l-0.04-1.5
	c-0.06-0.65-0.1-1.33-0.27-1.91c-0.67-2.66-1.01-5.35-1.18-7.97l-0.03-3.65l0.33-3.68c0.07,0,0.14,0.07,0.14,0.1
	c1.18,1.6,2.44,2.66,3.79,2.66c1.42,0,1.79-1.26,1.79-2.29c0-0.06,0-0.47-0.1-0.68c-0.51-1.29-1.42-2.55-2.4-3.78
	c-0.34-0.44-0.81-0.78-1.12-1.23c-0.4-0.61-0.4-1.33-0.61-1.91c-0.1-0.34-0.44-0.85-0.78-1.02c-0.33-0.17-0.71-0.31-0.98-0.51
	c-0.3-0.21-0.57-0.55-0.84-0.78c-0.2-0.17-0.58-0.24-0.75-0.24c-0.67,0-0.94,0.47-1.65,1.22l-0.04-0.13
	c0.82-0.92,1.09-2.01,1.26-2.93V5.39c0-0.35,0.67-1.3,0.67-2.22c0-2.08-1.99-3.17-3.55-3.17C8.79,0,5.44,0.99,5.04,2.08
	C4.84,2.62,4.57,3.17,4.4,3.75C4.26,4.09,4.06,4.74,4.06,5.18c0,0.31,0.17,0.96,0.44,1.26c0.17,0.17,0.4,0.41,0.47,0.65
	C5.11,7.4,5.04,7.77,5.11,8.08c0.03,0.24,0.17,0.68,0.4,0.95c0.37,0.48,0.85,0.62,0.85,1.09c0,0.99-2.47,1.64-2.57,1.67
	c-0.68,0.14-1.56,0.75-2,1.54c-0.23,0.37-0.44,0.88-0.54,1.26c-0.1,0.48-0.17,0.95-0.24,1.4v1.8l-0.27,2.29v0.65L0,24.71l0.03,1.91
	c0,0.07,0.11,2.73,0.34,4.06c0.14,0.78,0.58,1.7,1.22,2.45c0.27,0.35,0.71,0.41,1.05,0.65c0.67,0.44,0.67,0.79,1.18,0.79
	c0.34,0,0.68-0.24,0.68-0.65c0-0.72-1.56-1.5-1.86-1.71c-0.34-0.2-0.48-0.68-0.61-0.92c-0.61-1.26-0.41-3.06-0.64-4.6l-0.04-1.36
	c0-1.64,0.37-1.95,0.65-3.92c0.1-0.62,0.06-1.26,0.13-1.81c0.07-0.65,0.17-1.3,0.24-1.98v-0.78c0-1.13-0.04-2.45,1.21-3.48
	c0.34-0.27,0.88-0.34,1.26-0.47c1.45-0.45,2.87-1.33,2.87-2.77c0-0.3-0.2-0.95-0.41-1.16c-0.23-0.3-0.77-0.71-0.84-1.02
	c-0.07-0.23-0.08-0.52-0.1-0.79c0.18,0.23,0.41,0.43,0.66,0.52c0.1,0.24,0.2,0.48,0.33,0.68c0.24,0.38,0.92,0.79,1.26,0.79
	c0.33,0,0.67-0.24,0.67-0.69c0-0.06-0.03-0.2-0.06-0.23C9.05,7.74,8.4,7.81,8.34,7.33C8.3,7.02,8.27,6.54,7.9,6.41
	c-0.14-0.04-0.31,0-0.41-0.07C7.35,6.27,7.32,6.07,7.25,6C7.08,5.69,6.88,5.62,6.64,5.62c-0.35,0-0.58,0.24-0.63,0.56
	c-0.15-0.23-0.33-0.44-0.5-0.66c-0.07-0.1-0.1-0.27-0.1-0.34c0-0.51,0.74-2.42,0.85-2.49C6.83,2.08,9,1.36,10.11,1.36
	c0.74,0,2.2,0.48,2.2,1.81c0,0.58-0.71,1.5-0.68,2.22v0.95c-0.13,0.55-0.3,1.09-0.64,1.64c-0.17,0.24-0.44,0.37-0.54,0.61
	c-0.07,0.14-0.07,0.44-0.07,0.55c0,0.57,0.24,1.8,1.25,1.8c0.65,0,1.29-0.68,1.79-1.36c0.34,0.37,0.75,0.71,1.09,0.88
	c0.23,0.18,0.57,0.21,0.81,0.41c0.4,0.38,0.37,1.03,0.51,1.47c0.1,0.34,0.2,0.78,0.47,1.09c1.45,1.5,2.57,3.14,3.35,4.6v0.68
	c-0.14,0.38-0.17,0.52-0.51,0.52c-1.25,0-2.74-2.39-3.48-3.28c-0.12-0.13-0.22-0.18-0.31-0.2c0.4-0.08,0.51-0.47,0.51-0.84
	c0-0.41-0.03-0.3-0.17-0.85c-0.3-1.19-1.59-0.99-1.99-2.01c-0.07-0.2-0.11-0.44-0.14-0.65c-0.03-0.41-0.34-0.54-0.64-0.54
	c-0.54,0-0.64,0.44-0.64,0.82c0,0.34,0,0.34,0.13,0.81c0.17,0.58,0.98,1.47,1.56,1.61c0.13,0.03,0.37,0.23,0.44,0.4
	c0.15,0.44,0.05,1.14,0.61,1.25c-1.15,0.07-0.99,2.12-1.16,2.79c-0.03,0.24-0.03,0.48-0.06,0.69c-0.04,0.23-0.04,0.51-0.07,0.75
	c-0.07,0.54-0.14,1.12-0.17,1.67l0.07,3.3c0.17,2.93,0.54,5.83,1.28,8.8c0.14,0.54,0.17,1.19,0.21,1.77L15.15,37h-2.3
	c-0.4-1.18-1.07-2.39-1.74-3.49c-0.24-0.41-0.64-1.5-1.29-1.5c-0.3,0-0.57,0.14-0.67,0.58l-0.07,3.54C9.05,36.41,9.03,36.7,9,37
	H6.66c-0.37-1.57-1.05-4.43-1.44-6.12c-0.2-0.88-0.16-1.02-0.16-1.73c0-3.62,1.42-5.02,1.42-7.09c0-0.07-0.07-0.62-0.17-0.89
	C6.17,20.62,5.8,19.91,5.5,19.4c-0.31-0.52-0.48-1.1-1.02-1.1c-0.17,0-0.54,0.07-0.61,0.38c-0.51,1.53-1.01,3.03-1.32,4.6l0.31,2.01
	v0.69c-0.1,0.54-0.27,1.05-0.44,1.63c-0.1,0.24-0.1,0.55-0.17,0.82v0.99c0,0.3,0.27,1.4,0.95,1.4c0.23,0,0.27-0.17,0.57-0.31
	L5.27,37H2.8z M11.36,37h-1.01c0.03-0.37,0.06-0.74,0.08-1.1c0-0.65,0-0.72,0.04-0.76C10.8,35.75,11.1,36.38,11.36,37z M3.67,29.49
	c-0.03-0.17-0.07-0.48-0.07-0.58c0-0.07,0.07-0.51,0.07-0.75V29.49z M5.09,22.09c0,0.89-0.68,2.59-0.88,3.27
	c0-0.68-0.17-1.36-0.27-2.04l0.71-2.56C4.85,21.2,5.09,21.65,5.09,22.09z M10.23,22.86c0-0.45-0.37-0.69-0.85-0.69
	c-0.37,0-0.81,0.14-0.81,0.69c0,0.51,0.34,0.68,0.81,0.68C9.69,23.54,10.23,23.47,10.23,22.86z M8.96,28.99
	c-0.24-0.51-1.01-1.6-1.59-1.6c-0.4,0-0.64,0.31-0.64,0.65c0,0.58,0.68,0.82,0.98,1.5c0.14,0.24,0.03,0.54,0.07,0.78
	c0.07,0.44,0.37,1.3,1.05,1.5c0.13,0.07,0.4,0.14,0.47,0.14c0.34,0,0.74-0.24,0.74-0.68c0-0.96-0.98-0.17-0.98-1.57
	C9.06,29.47,9.13,29.3,8.96,28.99z M6.83,16.63c0-0.54-0.44-0.64-0.88-0.64c-0.37,0-0.88,0.03-0.88,0.64c0,0.55,0.41,0.69,0.88,0.69
	C6.29,17.32,6.83,17.25,6.83,16.63z M13.02,15.49c0-0.54-0.44-0.68-0.85-0.68c-0.4,0-0.84,0.14-0.84,0.68
	c0,0.51,0.44,0.68,0.84,0.68C12.48,16.17,13.02,16.04,13.02,15.49z"/>
</svg>
