<?xml version="1.0" encoding="iso-8859-1"?>
<!-- Generator: Adobe Illustrator 16.0.0, SVG Export Plug-In . SVG Version: 6.00 Build 0)  -->
<!DOCTYPE svg PUBLIC "-//W3C//DTD SVG 1.1 Tiny//EN" "http://www.w3.org/Graphics/SVG/1.1/DTD/svg11-tiny.dtd">
<svg version="1.1" baseProfile="tiny" id="Layer_1" xmlns="http://www.w3.org/2000/svg" xmlns:xlink="http://www.w3.org/1999/xlink"
	 x="0px" y="0px" width="26px" height="18px" viewBox="0 0 26 18" xml:space="preserve">
<path fill-rule="evenodd" fill="#C4C9CE" d="M13.11,12.04H13.1c-1.75-0.01-2.99-0.601-3.09-0.641L9.95,11.37L0,5.24V18h26V4.95
	c-3.431,2.22-7.86,5.09-9.33,6.06C15.47,11.79,14.181,12.04,13.11,12.04z M0,0v2.41l11.18,6.9l0.06,0.02
	c0.1,0.04,0.24,0.09,0.42,0.14c0.37,0.11,0.88,0.21,1.44,0.21c0.69-0.011,1.41-0.15,2.13-0.621c1.7-1.11,7.27-4.72,10.77-6.98V0H0z"
	/>
</svg>
