<?xml version="1.0" encoding="iso-8859-1"?>
<!-- Generator: Adobe Illustrator 16.0.0, SVG Export Plug-In . SVG Version: 6.00 Build 0)  -->
<!DOCTYPE svg PUBLIC "-//W3C//DTD SVG 1.1 Tiny//EN" "http://www.w3.org/Graphics/SVG/1.1/DTD/svg11-tiny.dtd">
<svg version="1.1" baseProfile="tiny" id="Layer_1" xmlns="http://www.w3.org/2000/svg" xmlns:xlink="http://www.w3.org/1999/xlink"
	 x="0px" y="0px" width="49px" height="49px" viewBox="0 0 49 49" xml:space="preserve">
<path fill-rule="evenodd" fill="#58B69E" d="M49,31.08c0-6.02-3.46-11.15-8.31-12.17c-0.42-0.12-0.78,0.26-0.88,0.77
	c-0.1,0.5,0.21,0.95,0.62,1.07c4.08,0.95,7.02,5.32,7.02,10.39c0,4.56-2.37,8.55-5.89,10.01c-0.31,0.12-0.51,0.5-0.51,0.88v4.56
	l-3.77-4.62c-0.16-0.13-0.36-0.25-0.57-0.25h-6.35c-3.25,0-6.2-2.22-7.69-5.83c-0.21-0.51-0.68-0.7-1.04-0.44
	c-0.41,0.25-0.57,0.82-0.36,1.26c1.76,4.25,5.22,6.84,9.09,6.84h6.04l4.08,5.01c0.26,0.31,0.57,0.44,0.88,0.44
	c0.15,0,0.31-0.06,0.46-0.13c0.47-0.25,0.78-0.76,0.78-1.39v-4.81C46.42,40.77,49,36.21,49,31.08z M14.83,14.09
	c0.48,0,0.89-0.43,0.89-0.91c0-0.72,0.29-1.33,0.83-1.81c0.53-0.42,1.24-0.6,1.89-0.48c0.82,0.18,1.53,0.9,1.71,1.75
	c0.18,0.9-0.12,1.75-0.83,2.29c-1.42,1.15-2.24,2.77-2.24,4.52c0,0.48,0.41,0.91,0.88,0.91c0.48,0,0.89-0.43,0.89-0.91
	c0-1.14,0.59-2.29,1.59-3.13c1.24-0.97,1.78-2.54,1.48-4.1c-0.3-1.57-1.54-2.84-3.07-3.14c-1.24-0.24-2.42,0.06-3.37,0.85
	c-0.94,0.78-1.47,1.92-1.47,3.19C13.95,13.66,14.3,14.09,14.83,14.09z M17.31,23.43c-0.17,0.18-0.23,0.42-0.23,0.67
	c0,0.24,0.12,0.48,0.23,0.66c0.18,0.18,0.42,0.24,0.65,0.24c0.24,0,0.48-0.12,0.65-0.24c0.18-0.18,0.24-0.42,0.24-0.66
	c0-0.25-0.12-0.49-0.24-0.67C18.26,23.13,17.67,23.13,17.31,23.43z M1.55,16.09c0-7.86,5.16-14.19,11.51-14.13h11.21
	c6.4,0,11.57,6.4,11.57,14.19c0,7.85-5.22,14.19-11.57,14.19H15.9c-0.2,0-0.41,0.06-0.56,0.25l-5.37,6.59V30.4
	c0-0.38-0.21-0.76-0.52-0.89C4.75,27.61,1.55,22.17,1.55,16.09z M0,16.09c0,6.71,3.36,12.6,8.42,15.01v6.52
	c0,0.95,0.62,1.71,1.39,1.71c0.36,0,0.72-0.19,0.98-0.5l5.42-6.65h8.11c7.23,0,13.12-7.23,13.12-16.09C37.44,7.22,31.55,0,24.32,0
	h-11.2C5.89,0,0,7.22,0,16.09z"/>
</svg>
