<?xml version="1.0" encoding="iso-8859-1"?>
<!-- Generator: Adobe Illustrator 16.0.0, SVG Export Plug-In . SVG Version: 6.00 Build 0)  -->
<!DOCTYPE svg PUBLIC "-//W3C//DTD SVG 1.1 Tiny//EN" "http://www.w3.org/Graphics/SVG/1.1/DTD/svg11-tiny.dtd">
<svg version="1.1" baseProfile="tiny" id="Layer_1" xmlns="http://www.w3.org/2000/svg" xmlns:xlink="http://www.w3.org/1999/xlink"
	 x="0px" y="0px" width="59.001px" height="58.998px" viewBox="0 0 59.001 58.998" xml:space="preserve">
<path fill-rule="evenodd" fill="#F4F5F6" d="M55.661,25.208l-6.98-20.08c-0.35-1-1.07-1.81-2.04-2.28
	c-0.95-0.45-2.02-0.52-3.01-0.17l-38.52,13.58c-2.06,0.72-3.15,3.01-2.43,5.09l2.89,8.32c0.72-2.78,3.21-4.85,6.2-4.85h40.81
	c1.14,0,2.22,0.34,3.18,0.9C55.721,25.548,55.711,25.368,55.661,25.208z"/>
<path fill-rule="evenodd" fill="#E4E6E8" d="M32.181,32.948h-18.66c-0.68,0-1.23-0.55-1.23-1.23c0-0.68,0.55-1.23,1.23-1.23h18.66
	c0.67,0,1.23,0.55,1.23,1.23C33.411,32.398,32.851,32.948,32.181,32.948z M32.181,40.098h-18.66c-0.68,0-1.23-0.55-1.23-1.23
	c0-0.68,0.55-1.23,1.23-1.23h18.66c0.67,0,1.23,0.55,1.23,1.23C33.411,39.548,32.851,40.098,32.181,40.098z M32.181,47.258h-18.66
	c-0.68,0-1.23-0.55-1.23-1.23c0-0.68,0.55-1.23,1.23-1.23h18.66c0.67,0,1.23,0.55,1.23,1.23
	C33.411,46.708,32.851,47.258,32.181,47.258z M50.401,50.088c-0.12,0.12-0.43,0.03-0.89-0.21l-1.93,3.05l-1-1.01l0.94-3.4
	c-1.05-0.81-2.29-1.85-3.55-2.98l-4.56,6.4l-1.48-1.49l3.15-7.62l-0.48-0.49c-3.84-3.86-4.67-5.65-4.09-6.23
	c0.58-0.59,2.35,0.26,6.19,4.12l0.48,0.49l7.57-3.18l1.48,1.48l-6.35,4.61c1.12,1.26,2.15,2.51,2.95,3.57l3.38-0.95l1,1.01
	l-3.03,1.94C50.421,49.658,50.521,49.978,50.401,50.088z M56.541,31.278c0-0.92-0.32-1.83-0.91-2.54c-0.76-0.93-1.87-1.46-3.05-1.46
	h-40.81c-2.18,0-3.96,1.8-3.96,4v21.26c0,2.21,1.78,4,3.96,4h40.81c2.19,0,3.96-1.79,3.96-4V31.278z M55.661,25.208l-6.98-20.08
	c-0.35-1-1.07-1.81-2.04-2.28c-0.95-0.45-2.02-0.52-3.01-0.17l-38.52,13.58c-2.06,0.72-3.15,3.01-2.43,5.09l2.89,8.32
	c0.72-2.78,3.21-4.85,6.2-4.85h40.81c1.14,0,2.22,0.34,3.18,0.9C55.721,25.548,55.711,25.368,55.661,25.208z M59.001,52.538
	c0,3.56-2.88,6.46-6.42,6.46h-40.81c-3.54,0-6.42-2.9-6.42-6.46v-16.26c-0.09-0.1-0.16-0.22-0.21-0.36l-4.78-13.76
	c-1.17-3.36,0.6-7.05,3.94-8.22l38.52-13.58c1.61-0.56,3.34-0.46,4.89,0.28c1.56,0.75,2.72,2.06,3.29,3.69l6.98,20.07
	c0.38,1.09,0.46,2.26,0.23,3.39c-0.02,0.09-0.07,0.16-0.1,0.23c0.57,0.99,0.89,2.11,0.89,3.26V52.538z"/>
</svg>
