<?xml version="1.0" encoding="iso-8859-1"?>
<!-- Generator: Adobe Illustrator 16.0.0, SVG Export Plug-In . SVG Version: 6.00 Build 0)  -->
<!DOCTYPE svg PUBLIC "-//W3C//DTD SVG 1.1 Tiny//EN" "http://www.w3.org/Graphics/SVG/1.1/DTD/svg11-tiny.dtd">
<svg version="1.1" baseProfile="tiny" id="Layer_1" xmlns="http://www.w3.org/2000/svg" xmlns:xlink="http://www.w3.org/1999/xlink"
	 x="0px" y="0px" width="40px" height="40px" viewBox="0 0 40 40" xml:space="preserve">
<path fill-rule="evenodd" fill="#58B69E" d="M20,25c-0.16,0-0.32,0.05-0.46,0.14l-5.65,3.77l1.91-7.02
	c0.09-0.33-0.02-0.67-0.29-0.88l-5.58-4.34h6.74c0.34,0,0.64-0.21,0.77-0.53L20,9.74l2.56,6.4c0.13,0.32,0.43,0.53,0.77,0.53h6.74
	l-5.58,4.34c-0.27,0.21-0.38,0.55-0.29,0.88l1.91,7.02l-5.65-3.77C20.32,25.05,20.16,25,20,25z M27.5,31.67
	c0.17,0,0.34-0.06,0.49-0.16c0.28-0.2,0.41-0.56,0.31-0.9l-2.35-8.63l7.06-5.49c0.28-0.22,0.39-0.59,0.28-0.93
	C33.17,15.23,32.85,15,32.5,15h-8.6l-3.12-7.81c-0.26-0.63-1.3-0.63-1.55,0L16.1,15H7.5c-0.35,0-0.67,0.23-0.79,0.56
	c-0.11,0.34,0,0.71,0.28,0.93l7.06,5.49l-2.35,8.63c-0.1,0.34,0.03,0.7,0.31,0.9c0.28,0.2,0.66,0.21,0.95,0.02l7.04-4.7l7.04,4.7
	C27.18,31.62,27.34,31.67,27.5,31.67z M20,1.67c10.11,0,18.33,8.22,18.33,18.33S30.11,38.33,20,38.33S1.67,30.11,1.67,20
	S9.89,1.67,20,1.67z M20,40c11.03,0,20-8.97,20-20S31.03,0,20,0S0,8.97,0,20S8.97,40,20,40z"/>
</svg>
