<?xml version="1.0" encoding="iso-8859-1"?>
<!-- Generator: Adobe Illustrator 16.0.0, SVG Export Plug-In . SVG Version: 6.00 Build 0)  -->
<!DOCTYPE svg PUBLIC "-//W3C//DTD SVG 1.1 Tiny//EN" "http://www.w3.org/Graphics/SVG/1.1/DTD/svg11-tiny.dtd">
<svg version="1.1" baseProfile="tiny" id="Layer_1" xmlns="http://www.w3.org/2000/svg" xmlns:xlink="http://www.w3.org/1999/xlink"
	 x="0px" y="0px" width="23.2px" height="21.85px" viewBox="0 0 23.2 21.85" xml:space="preserve">
<path fill-rule="evenodd" fill="#FFFFFF" d="M11.6,14.55c-2.08,0-3.77-1.62-3.77-3.62s1.69-3.62,3.77-3.62s3.76,1.62,3.76,3.62
	S13.68,14.55,11.6,14.55z M11.6,5.32c-3.23,0-5.84,2.51-5.84,5.61s2.61,5.61,5.84,5.61c3.22,0,5.83-2.51,5.83-5.61
	S14.82,5.32,11.6,5.32z M19.06,5.01c0-0.7-0.59-1.26-1.32-1.26c-0.72,0-1.31,0.56-1.31,1.26c0,0.7,0.59,1.27,1.31,1.27
	C18.47,6.28,19.06,5.71,19.06,5.01z M21.12,15.82c0,2.24-1.9,4.07-4.23,4.07H6.31c-2.33,0-4.24-1.83-4.24-4.07V6.03
	c0-2.24,1.91-4.07,4.24-4.07h10.58c2.33,0,4.23,1.83,4.23,4.07V15.82z M17.08,0H6.11C2.75,0,0,2.65,0,5.88v10.09
	c0,3.23,2.75,5.88,6.11,5.88h10.97c3.37,0,6.12-2.65,6.12-5.88V5.88C23.2,2.65,20.45,0,17.08,0z"/>
</svg>
