<?xml version="1.0" encoding="iso-8859-1"?>
<!-- Generator: Adobe Illustrator 16.0.0, SVG Export Plug-In . SVG Version: 6.00 Build 0)  -->
<!DOCTYPE svg PUBLIC "-//W3C//DTD SVG 1.1 Tiny//EN" "http://www.w3.org/Graphics/SVG/1.1/DTD/svg11-tiny.dtd">
<svg version="1.1" baseProfile="tiny" id="Layer_1" xmlns="http://www.w3.org/2000/svg" xmlns:xlink="http://www.w3.org/1999/xlink"
	 x="0px" y="0px" width="100px" height="49px" viewBox="0 0 100 49" xml:space="preserve">
<path fill-rule="evenodd" fill="#8C8C8C" d="M0,30.02v0.57h2.8L9.44,49l6.27-14.92L21.31,49l7.38-18.41h2.18v-0.57h-6.72v0.57h3.88
	l-5.15,12.74L18.1,30.59h2.76v-0.57h-8.21v0.57h1.74l1.03,2.67l-4.29,10.15L6.51,30.59h3.42v-0.57H0z M42.79,37.58v4.11
	c0,0.54-0.05,1.15-0.15,1.82c-0.09,0.68-0.29,1.3-0.57,1.87c-0.29,0.58-0.72,1.06-1.28,1.44c-0.57,0.39-1.3,0.58-2.21,0.58
	c-0.63,0-1.15-0.11-1.54-0.33c-0.4-0.22-0.71-0.5-0.93-0.84c-0.22-0.35-0.37-0.74-0.45-1.17c-0.09-0.44-0.13-0.87-0.13-1.28
	c0-0.96,0.23-1.76,0.7-2.4c0.47-0.65,1.14-1.15,2.02-1.5l3.09-1.23c0.86-0.36,1.31-0.72,1.36-1.07H42.79z M50,47.19l-0.33-0.45
	c-0.3,0.22-0.62,0.38-0.95,0.49c-0.33,0.11-0.64,0.17-0.95,0.17c-0.46,0-0.82-0.14-1.07-0.41c-0.24-0.28-0.37-0.81-0.37-1.61V35.15
	c0-0.74-0.11-1.44-0.33-2.11s-0.59-1.28-1.11-1.81c-0.52-0.54-1.21-0.96-2.06-1.28c-0.85-0.31-1.91-0.47-3.18-0.47
	c-1.04,0-1.97,0.13-2.78,0.37c-0.81,0.25-1.48,0.58-2.02,1.01c-0.53,0.42-0.94,0.91-1.21,1.46c-0.28,0.55-0.42,1.12-0.42,1.72
	c0,0.52,0.11,0.95,0.33,1.28c0.22,0.33,0.79,0.49,1.69,0.49c0.52,0,0.92-0.13,1.2-0.39c0.27-0.26,0.41-0.58,0.41-0.97
	c0-0.21-0.04-0.55-0.12-1c-0.09-0.45-0.13-0.91-0.13-1.38c0-0.71,0.3-1.22,0.89-1.54c0.59-0.32,1.34-0.47,2.25-0.47
	c0.68,0,1.23,0.09,1.64,0.29c0.42,0.19,0.73,0.47,0.95,0.84c0.22,0.37,0.37,0.81,0.46,1.33c0.08,0.52,0.12,1.11,0.12,1.77
	c0,0.82-0.06,1.47-0.19,1.95c-0.12,0.48-0.35,0.88-0.67,1.19c-0.33,0.32-0.8,0.58-1.39,0.8c-0.59,0.22-1.34,0.48-2.24,0.78
	c-0.77,0.25-1.54,0.48-2.29,0.7c-0.76,0.22-1.44,0.5-2.06,0.84c-0.62,0.35-1.12,0.81-1.51,1.38c-0.38,0.58-0.57,1.34-0.57,2.3
	c0,0.41,0.06,0.86,0.18,1.34c0.13,0.48,0.38,0.91,0.76,1.29c0.39,0.39,0.93,0.71,1.61,0.97c0.69,0.26,1.61,0.39,2.76,0.39
	c1.02,0,1.86-0.12,2.52-0.35c0.66-0.23,1.19-0.52,1.59-0.86c0.39-0.35,0.69-0.7,0.88-1.07s0.35-0.68,0.45-0.93h0.09
	c0.22,1.02,0.62,1.81,1.22,2.37c0.58,0.56,1.54,0.84,2.86,0.84c0.71,0,1.32-0.1,1.81-0.31C49.22,47.71,49.64,47.47,50,47.19z
	 M51.28,47.07v0.57h9.89v-0.57H58V18.02h-6.72v0.57h3.17v28.48H51.28z M63.48,47.07v0.57h8.99v-0.57H70.2v-8.84h0.45l7.3,8.84h-2.93
	v0.57h9.27v-0.57h-1.77L73.41,36.1l6.43-5.51h2.48v-0.57h-6.39v0.57h2.92l-8.2,7.07H70.2V18.02h-6.72v0.57h3.17v28.48H63.48z
	 M86.77,41.89v5.75h0.45c0.08-0.13,0.19-0.26,0.33-0.39c0.14-0.12,0.36-0.18,0.66-0.18s0.63,0.06,0.99,0.18l1.17,0.39
	c0.43,0.14,0.9,0.27,1.41,0.39c0.5,0.13,1.06,0.19,1.67,0.19c1.04,0,1.97-0.17,2.78-0.5c0.81-0.32,1.49-0.76,2.06-1.29
	c0.56-0.53,0.99-1.16,1.28-1.87s0.43-1.44,0.43-2.18c0-1.26-0.41-2.27-1.24-3.04c-0.82-0.76-1.88-1.37-3.17-1.8l-3.01-0.99
	c-1.21-0.38-2.12-0.8-2.74-1.25c-0.62-0.46-0.93-1.12-0.93-2c0-0.98,0.36-1.77,1.09-2.36s1.76-0.88,3.08-0.88
	c0.68,0,1.28,0.12,1.79,0.37c0.51,0.24,0.93,0.59,1.28,1.02c0.34,0.44,0.63,0.94,0.88,1.5c0.25,0.57,0.47,1.15,0.66,1.75h0.46v-4.68
	h-0.46c-0.14,0.22-0.36,0.33-0.66,0.33c-0.3,0-0.56-0.05-0.78-0.15c-0.22-0.09-0.47-0.19-0.74-0.29c-0.28-0.09-0.6-0.19-0.97-0.28
	c-0.37-0.1-0.86-0.15-1.46-0.15c-0.86,0-1.65,0.14-2.38,0.41c-0.72,0.28-1.35,0.66-1.87,1.15c-0.52,0.5-0.94,1.07-1.24,1.73
	c-0.3,0.66-0.45,1.37-0.45,2.14c0,0.9,0.13,1.64,0.39,2.21c0.26,0.58,0.6,1.05,1.01,1.42s0.86,0.66,1.34,0.87
	c0.48,0.2,0.93,0.37,1.34,0.51l3.22,1.11c0.71,0.24,1.34,0.58,1.87,1.01c0.54,0.42,0.81,1.15,0.81,2.19c0,1.21-0.35,2.08-1.04,2.61
	c-0.68,0.54-1.47,0.8-2.35,0.8c-1.04,0-1.93-0.17-2.68-0.53c-0.74-0.36-1.36-0.82-1.87-1.38c-0.51-0.56-0.91-1.18-1.22-1.85
	c-0.3-0.67-0.55-1.33-0.74-1.99H86.77z"/>
<path fill-rule="evenodd" fill="#F48022" d="M96.21,14.2c-0.34,0.69-0.92,1.1-1.67,1.26c-0.24,0.05-0.47,0.07-0.71,0.07l-0.06-0.01
	l0.05-0.34c0.04-0.29,0.03-0.57-0.09-0.84c-0.15-0.36-0.44-0.56-0.82-0.64c-0.4-0.09-0.79-0.03-1.17,0.11
	c-0.56,0.19-1.03,0.5-1.38,0.98c-0.21,0.28-0.32,0.6-0.34,0.96v0.08l0.24,0.09c0.31,0.12,0.55,0.32,0.66,0.63
	c0.16,0.4,0.08,0.76-0.17,1.09c-0.21,0.28-0.49,0.43-0.83,0.5c-0.05,0-0.06,0.02-0.05,0.07c0.03,0.32,0.19,0.58,0.44,0.79
	c0.14,0.12,0.28,0.23,0.43,0.34c0.2,0.16,0.39,0.34,0.49,0.59l0.04,0.09c0.04,0.12,0.03,0.13-0.08,0.19
	c-0.18,0.09-0.37,0.1-0.56,0.09c-0.3,0-0.59-0.07-0.87-0.15c-0.05-0.02-0.07-0.01-0.1,0.02l-0.69,0.77c-0.19,0.2-0.38,0.39-0.63,0.5
	c-0.12,0.06-0.25,0.1-0.38,0.11c-0.11,0.01-0.22-0.02-0.32-0.06c-0.27-0.1-0.49-0.28-0.68-0.49l-0.74-0.82
	c-0.03-0.04-0.07-0.04-0.12-0.03c-0.34,0.1-0.68,0.17-1.03,0.15c-0.16,0-0.31-0.04-0.45-0.13c-0.04-0.02-0.05-0.05-0.04-0.1
	c0.07-0.25,0.22-0.45,0.41-0.62l0.52-0.41c0.25-0.19,0.42-0.43,0.48-0.75l0.02-0.14l-0.23-0.05c-0.38-0.13-0.66-0.36-0.82-0.72
	c-0.22-0.52-0.04-1.07,0.44-1.35c0.14-0.09,0.29-0.14,0.45-0.21c0-0.25-0.05-0.51-0.17-0.74c-0.24-0.5-0.64-0.84-1.12-1.09
	c-0.35-0.19-0.72-0.3-1.12-0.32c-0.26-0.02-0.52,0.01-0.77,0.12c-0.4,0.19-0.58,0.51-0.63,0.93c-0.03,0.25,0,0.49,0.05,0.72
	l0.01,0.08l-0.02,0.01c-0.5,0.01-0.98-0.07-1.42-0.31c-0.58-0.3-0.97-0.77-1.16-1.39c-0.35-1.13-0.15-2.16,0.67-3.04
	c0.42-0.44,0.95-0.67,1.55-0.75c1.13-0.14,2.13,0.19,3.02,0.9c0.65,0.52,1.15,1.18,1.56,1.91c0.21,0.37,0.4,0.75,0.55,1.15
	l0.03,0.06l0.02-0.01c0.01-0.16,0.03-0.33,0.03-0.49c0.02-0.72-0.15-1.4-0.42-2.05c-0.24-0.57-0.51-1.13-0.77-1.69
	c-0.24-0.51-0.46-1.02-0.61-1.57c-0.13-0.5-0.19-1.01-0.15-1.53c0.06-0.67,0.29-1.28,0.67-1.84c0.29-0.43,0.63-0.82,1.01-1.19
	l1.23-1.18c0.03-0.02,0.06-0.02,0.08,0c0.57,0.56,1.18,1.07,1.71,1.67c0.38,0.44,0.72,0.91,0.94,1.46c0.22,0.53,0.3,1.09,0.27,1.67
	c-0.04,0.66-0.22,1.28-0.48,1.88c-0.22,0.49-0.45,0.98-0.68,1.47c-0.26,0.56-0.51,1.12-0.66,1.72c-0.13,0.55-0.17,1.1-0.09,1.66
	l0.01,0.02l0.2-0.46c0.35-0.8,0.8-1.53,1.41-2.17c0.56-0.6,1.22-1.05,2.03-1.28c0.64-0.17,1.28-0.21,1.92-0.02
	c0.79,0.22,1.37,0.72,1.7,1.47C96.64,12.47,96.64,13.35,96.21,14.2z M87.94,0c-6.67,0-12.07,5.38-12.07,12.02s5.4,12.03,12.07,12.03
	c6.66,0,12.06-5.39,12.06-12.03S94.6,0,87.94,0z"/>
</svg>
