<?xml version="1.0" encoding="iso-8859-1"?>
<!-- Generator: Adobe Illustrator 16.0.0, SVG Export Plug-In . SVG Version: 6.00 Build 0)  -->
<!DOCTYPE svg PUBLIC "-//W3C//DTD SVG 1.1 Tiny//EN" "http://www.w3.org/Graphics/SVG/1.1/DTD/svg11-tiny.dtd">
<svg version="1.1" baseProfile="tiny" id="Layer_1" xmlns="http://www.w3.org/2000/svg" xmlns:xlink="http://www.w3.org/1999/xlink"
	 x="0px" y="0px" width="31.002px" height="34.998px" viewBox="0 0 31.002 34.998" xml:space="preserve">
<path fill-rule="evenodd" fill="#FFFFFF" d="M30.412,21.497c-0.62,1.27-1.66,2.02-3.01,2.32c-0.42,0.09-0.85,0.12-1.28,0.11
	l-0.11-0.01c0.03-0.21,0.07-0.42,0.1-0.62c0.06-0.53,0.04-1.05-0.16-1.55c-0.28-0.66-0.8-1.03-1.48-1.17
	c-0.73-0.16-1.43-0.05-2.12,0.19c-1,0.35-1.86,0.92-2.48,1.81c-0.38,0.52-0.59,1.11-0.62,1.76v0.16c0.15,0.05,0.3,0.09,0.44,0.15
	c0.55,0.23,0.98,0.59,1.19,1.16c0.28,0.73,0.14,1.4-0.31,2.01c-0.38,0.51-0.89,0.79-1.5,0.9c-0.08,0.02-0.1,0.04-0.09,0.13
	c0.06,0.6,0.35,1.08,0.79,1.46c0.25,0.22,0.52,0.42,0.77,0.62c0.38,0.3,0.71,0.63,0.9,1.08l0.06,0.17c0.07,0.22,0.07,0.24-0.14,0.35
	c-0.32,0.17-0.66,0.18-1,0.17c-0.54-0.01-1.07-0.13-1.58-0.28c-0.08-0.03-0.13-0.01-0.18,0.05l-1.24,1.41
	c-0.33,0.37-0.69,0.71-1.14,0.92c-0.22,0.1-0.45,0.18-0.68,0.2c-0.19,0.01-0.4-0.05-0.58-0.12c-0.49-0.17-0.88-0.51-1.22-0.89
	c-0.45-0.5-0.89-1-1.33-1.51c-0.07-0.07-0.12-0.08-0.22-0.06c-0.61,0.18-1.22,0.31-1.86,0.28c-0.29-0.01-0.56-0.07-0.8-0.24
	c-0.08-0.04-0.09-0.09-0.07-0.18c0.12-0.46,0.39-0.83,0.74-1.14c0.3-0.26,0.62-0.49,0.93-0.75c0.44-0.36,0.76-0.8,0.86-1.38
	l0.03-0.26c-0.14-0.03-0.27-0.06-0.4-0.1c-0.69-0.22-1.2-0.65-1.48-1.32c-0.4-0.94-0.08-1.96,0.79-2.48
	c0.25-0.15,0.53-0.25,0.81-0.38c0-0.46-0.1-0.93-0.31-1.36c-0.44-0.92-1.15-1.54-2.02-2.01c-0.63-0.33-1.3-0.54-2.01-0.58
	c-0.48-0.04-0.95,0.02-1.39,0.23c-0.72,0.34-1.05,0.94-1.14,1.71c-0.05,0.44,0,0.89,0.09,1.32l0.02,0.13l-0.04,0.02
	c-0.9,0.02-1.76-0.12-2.56-0.55c-1.04-0.56-1.75-1.43-2.09-2.56c-0.62-2.08-0.27-3.97,1.22-5.58c0.74-0.81,1.7-1.24,2.78-1.38
	c2.05-0.26,3.85,0.35,5.44,1.65c1.19,0.96,2.08,2.17,2.83,3.5c0.37,0.68,0.7,1.39,0.99,2.12l0.04,0.1h0.04
	c0.02-0.31,0.05-0.61,0.06-0.92c0.03-1.31-0.27-2.56-0.77-3.76c-0.43-1.05-0.92-2.06-1.38-3.09c-0.43-0.94-0.83-1.89-1.1-2.89
	c-0.24-0.92-0.34-1.85-0.26-2.8c0.1-1.24,0.52-2.35,1.19-3.38c0.52-0.81,1.15-1.52,1.83-2.19c0.73-0.73,1.48-1.44,2.22-2.16
	c0.05-0.05,0.1-0.05,0.15,0c1.01,1.02,2.11,1.96,3.07,3.05c0.69,0.81,1.3,1.68,1.7,2.68c0.39,0.99,0.54,2.01,0.48,3.07
	c-0.06,1.21-0.39,2.35-0.87,3.45c-0.38,0.91-0.81,1.8-1.22,2.7c-0.47,1.03-0.91,2.07-1.18,3.17c-0.25,1.01-0.32,2.02-0.18,3.05
	l0.02,0.04c0.13-0.3,0.24-0.58,0.36-0.86c0.65-1.46,1.45-2.81,2.54-3.97c1.02-1.11,2.21-1.95,3.67-2.36
	c1.14-0.32,2.3-0.38,3.46-0.05c1.43,0.42,2.46,1.33,3.06,2.7C31.182,18.307,31.192,19.927,30.412,21.497z"/>
</svg>
