<?xml version="1.0" encoding="iso-8859-1"?>
<!-- Generator: Adobe Illustrator 16.0.0, SVG Export Plug-In . SVG Version: 6.00 Build 0)  -->
<!DOCTYPE svg PUBLIC "-//W3C//DTD SVG 1.1 Tiny//EN" "http://www.w3.org/Graphics/SVG/1.1/DTD/svg11-tiny.dtd">
<svg version="1.1" baseProfile="tiny" id="Layer_1" xmlns="http://www.w3.org/2000/svg" xmlns:xlink="http://www.w3.org/1999/xlink"
	 x="0px" y="0px" width="29px" height="29px" viewBox="0 0 29 29" xml:space="preserve">
<path fill-rule="evenodd" fill="#FFFFFF" d="M24.45,17.13c-0.42,0.83-1.11,1.32-2.01,1.52c-0.29,0.06-0.57,0.08-0.86,0.07h-0.07
	l0.07-0.41c0.04-0.35,0.02-0.69-0.11-1.02c-0.19-0.44-0.54-0.67-0.99-0.77c-0.48-0.1-0.95-0.03-1.41,0.13
	c-0.67,0.23-1.24,0.6-1.66,1.18c-0.25,0.35-0.39,0.73-0.41,1.16v0.1c0.1,0.04,0.2,0.07,0.3,0.11c0.36,0.15,0.65,0.38,0.79,0.76
	c0.18,0.48,0.09,0.92-0.21,1.32c-0.25,0.33-0.59,0.51-1,0.59c-0.05,0.01-0.07,0.03-0.06,0.08c0.04,0.4,0.23,0.71,0.53,0.96
	c0.17,0.15,0.34,0.28,0.51,0.41c0.25,0.2,0.48,0.41,0.6,0.71l0.04,0.11c0.05,0.15,0.05,0.16-0.09,0.23
	c-0.21,0.11-0.44,0.12-0.67,0.11c-0.36-0.01-0.71-0.08-1.05-0.18c-0.05-0.02-0.09-0.01-0.12,0.03l-0.83,0.93
	c-0.22,0.24-0.46,0.46-0.76,0.6c-0.14,0.06-0.3,0.12-0.46,0.13c-0.12,0.01-0.26-0.03-0.38-0.07c-0.33-0.12-0.59-0.34-0.82-0.59
	c-0.3-0.33-0.59-0.66-0.88-0.99c-0.05-0.05-0.08-0.06-0.15-0.04c-0.4,0.12-0.81,0.2-1.24,0.18c-0.19-0.01-0.37-0.04-0.53-0.15
	c-0.05-0.03-0.07-0.07-0.05-0.13c0.08-0.3,0.26-0.54,0.49-0.74c0.21-0.17,0.42-0.33,0.63-0.5c0.29-0.23,0.5-0.52,0.57-0.9l0.02-0.17
	c-0.09-0.02-0.18-0.04-0.27-0.07c-0.46-0.14-0.8-0.42-0.99-0.87c-0.26-0.61-0.05-1.28,0.53-1.62c0.17-0.1,0.35-0.17,0.54-0.25
	c0-0.31-0.06-0.61-0.2-0.9c-0.3-0.6-0.77-1.01-1.35-1.31c-0.42-0.22-0.87-0.36-1.34-0.39c-0.32-0.02-0.64,0.02-0.93,0.15
	c-0.48,0.23-0.7,0.62-0.76,1.13c-0.03,0.29,0,0.58,0.06,0.86l0.01,0.09l-0.02,0.01c-0.6,0.02-1.18-0.08-1.71-0.36
	c-0.69-0.37-1.17-0.94-1.39-1.68c-0.42-1.36-0.18-2.61,0.81-3.67c0.49-0.53,1.13-0.81,1.85-0.9c1.37-0.17,2.57,0.23,3.63,1.08
	c0.79,0.64,1.39,1.43,1.89,2.3c0.25,0.45,0.47,0.91,0.66,1.39l0.03,0.07h0.02c0.01-0.2,0.03-0.4,0.04-0.6
	c0.02-0.87-0.18-1.69-0.51-2.48c-0.29-0.68-0.61-1.35-0.92-2.02c-0.29-0.62-0.56-1.24-0.73-1.9c-0.16-0.6-0.24-1.22-0.18-1.84
	c0.07-0.81,0.35-1.55,0.79-2.22c0.35-0.53,0.77-1,1.23-1.44c0.48-0.48,0.98-0.94,1.47-1.42c0.04-0.03,0.07-0.03,0.1,0
	c0.68,0.67,1.41,1.29,2.05,2.01c0.47,0.53,0.87,1.1,1.14,1.75c0.26,0.65,0.36,1.33,0.32,2.02c-0.04,0.8-0.27,1.55-0.58,2.27
	c-0.26,0.59-0.54,1.18-0.81,1.77c-0.32,0.68-0.62,1.36-0.8,2.08c-0.16,0.66-0.21,1.33-0.11,2l0.01,0.03L16,16.4
	c0.43-0.96,0.97-1.85,1.7-2.61c0.68-0.73,1.47-1.28,2.44-1.55c0.77-0.21,1.54-0.25,2.31-0.03c0.95,0.27,1.64,0.87,2.04,1.77
	C24.96,15.03,24.96,16.09,24.45,17.13z M14.5,0C6.49,0,0,6.49,0,14.5S6.49,29,14.5,29S29,22.51,29,14.5S22.51,0,14.5,0z"/>
</svg>
