<?xml version="1.0" encoding="utf-8"?>
<!-- Generator: Adobe Illustrator 16.0.0, SVG Export Plug-In . SVG Version: 6.00 Build 0)  -->
<!DOCTYPE svg PUBLIC "-//W3C//DTD SVG 1.1//EN" "http://www.w3.org/Graphics/SVG/1.1/DTD/svg11.dtd">
<svg version="1.1" id="Popular" xmlns="http://www.w3.org/2000/svg" xmlns:xlink="http://www.w3.org/1999/xlink" x="0px" y="0px"
	 width="40px" height="40px" viewBox="0 0 40 40" enable-background="new 0 0 40 40" xml:space="preserve">
<path fill="#58B69E" d="M19.997,37.706c-0.334,0.002-0.655-0.131-0.891-0.367L4.5,22.733l-0.106-0.111
	c-4.85-4.975-5.198-12.686-0.715-17.168c4.235-4.235,11.337-4.175,16.322-0.045c4.982-4.13,12.088-4.185,16.318,0.045l0,0
	c4.482,4.483,4.149,12.198-0.746,17.194l-0.1,0.111l-14.586,14.58C20.652,37.575,20.33,37.708,19.997,37.706z M11.219,4.207
	c-2.366-0.04-4.647,0.87-6.338,2.524c-3.667,3.666-3.295,10.02,0.796,14.199l0.095,0.1l14.226,14.235l14.241-14.239l0.091-0.096
	c4.09-4.189,4.445-10.544,0.79-14.194c-3.657-3.65-10.021-3.3-14.195,0.785C20.399,8,19.6,8,19.076,7.521
	C16.988,5.437,14.169,4.246,11.219,4.207z"/>
</svg>
