<?xml version="1.0" encoding="iso-8859-1"?>
<!-- Generator: Adobe Illustrator 16.0.0, SVG Export Plug-In . SVG Version: 6.00 Build 0)  -->
<!DOCTYPE svg PUBLIC "-//W3C//DTD SVG 1.1 Tiny//EN" "http://www.w3.org/Graphics/SVG/1.1/DTD/svg11-tiny.dtd">
<svg version="1.1" baseProfile="tiny" id="Layer_1" xmlns="http://www.w3.org/2000/svg" xmlns:xlink="http://www.w3.org/1999/xlink"
	 x="0px" y="0px" width="40px" height="40px" viewBox="0 0 40 40" xml:space="preserve">
<path fill-rule="evenodd" fill="#58B69E" d="M38.37,1.63h-4.99l-5.99,6.79l10.98,13.62V1.63z M14.78,18.13
	c-0.17,0.32-0.7,1.58-0.19,2.03c0.83,0.7,1.8,0.55,2.29,0.05c0.75-0.77,3.18-3.17,4.62-3.64c0.04-0.02,0.09-0.03,0.13-0.05
	c0.04-0.01,0.08-0.03,0.12-0.04h0.02c0.07-0.01,0.14,0,0.21,0.01c0.04,0,0.08,0,0.11,0.01c0.05,0.01,0.09,0.04,0.13,0.06
	c0.06,0.02,0.12,0.05,0.16,0.08l0.03,0.02l5.8,4.82l4.07,3.39l3.92-2.91L26.46,9.87C24.43,10.65,17.22,13.71,14.78,18.13z
	 M15.43,12.3L5.97,24.24l11.31,9.41l5.34,4.45c0.23,0.19,0.5,0.21,0.68,0.19c0.32-0.03,0.63-0.21,0.85-0.49
	c0.21-0.27,0.31-0.59,0.31-0.89c-0.01-0.3-0.12-0.58-0.34-0.76l-5.51-4.59c-0.35-0.28-0.4-0.8-0.11-1.15
	c0.29-0.34,0.81-0.39,1.15-0.1l0.95,0.79l4.56,3.79l0.95,0.79c0.23,0.19,0.5,0.21,0.68,0.19c0.32-0.03,0.63-0.21,0.85-0.49
	c0.42-0.53,0.4-1.28-0.04-1.65l-5-4.16l-0.03-0.03l-0.48-0.39c-0.34-0.29-0.39-0.8-0.1-1.15c0.29-0.35,0.8-0.39,1.15-0.11l0.65,0.55
	l5.19,4.31l0.14,0.12c0.07,0.06,0.15,0.1,0.22,0.13c0.17,0.07,0.33,0.08,0.46,0.07c0.32-0.04,0.63-0.22,0.85-0.49
	c0.42-0.54,0.41-1.29-0.03-1.66l-5.51-4.58l-0.48-0.4c-0.34-0.28-0.39-0.8-0.1-1.15c0.29-0.34,0.8-0.39,1.15-0.1l4.77,3.97
	l0.74,0.61c0.17,0.15,0.36,0.2,0.52,0.2h0.15c0.32-0.04,0.63-0.22,0.85-0.49c0.42-0.53,0.41-1.29-0.03-1.65l-10.95-9.11
	c-0.74,0.4-2.28,1.69-3.68,3.13c-1.18,1.21-3.13,1.23-4.52,0.05c-1.29-1.11-0.72-3.07-0.18-4.05c1.26-2.3,3.57-4.21,5.91-5.7
	L15.43,12.3z M4.8,1.63H1.63v24.06l2.22-2.03c0.18-0.17,0.42-0.23,0.65-0.2l9.94-12.54l0.22-1.67L4.8,1.63z M5.49,28.37
	c-0.44,0.57-0.35,1.4,0.19,1.85C6.2,30.64,6.99,30.54,7.4,30c0.44-0.57,0.36-1.4-0.19-1.84C7,27.98,6.74,27.89,6.46,27.89
	C6.09,27.89,5.73,28.06,5.49,28.37z M8.89,32.84c0.51,0.42,1.3,0.32,1.72-0.21c0.44-0.57,0.35-1.4-0.19-1.85
	c-0.22-0.17-0.48-0.27-0.76-0.27c-0.37,0-0.73,0.18-0.96,0.49C8.26,31.57,8.34,32.4,8.89,32.84z M12.09,35.47
	c0.51,0.42,1.3,0.32,1.72-0.22c0.44-0.57,0.35-1.39-0.19-1.84c-0.22-0.18-0.48-0.27-0.75-0.27c-0.38,0-0.73,0.18-0.97,0.48
	C11.46,34.2,11.54,35.02,12.09,35.47z M15.29,38.1c0.51,0.42,1.31,0.32,1.72-0.22c0.44-0.57,0.35-1.4-0.19-1.84
	c-0.22-0.18-0.48-0.28-0.75-0.28c-0.38,0-0.73,0.18-0.97,0.49C14.66,36.82,14.75,37.65,15.29,38.1z M39.49,25.02
	c-0.1,0.04-0.2,0.06-0.31,0.06c-0.21,0-0.42-0.09-0.58-0.25l-1.49-1.51l-3.54,2.62l0.15,0.13c1.13,0.94,1.25,2.69,0.27,3.92
	c-0.11,0.14-0.23,0.27-0.37,0.39l-0.13,0.1c-0.09,0.07-0.19,0.15-0.3,0.21l-0.16,0.09c-0.11,0.06-0.22,0.1-0.34,0.15l-0.14,0.05
	L32.5,31v0.01c0.05,0.19,0.07,0.39,0.08,0.59v0.19c-0.01,0.14-0.02,0.28-0.04,0.43l-0.05,0.21c-0.03,0.14-0.08,0.28-0.14,0.42
	l-0.07,0.18c-0.1,0.19-0.21,0.38-0.35,0.56c-0.49,0.62-1.2,1.02-1.96,1.1l-0.28,0.01h-0.05h-0.07l-0.01,0.09l-0.03,0.18
	c-0.01,0.11-0.03,0.22-0.06,0.33l-0.06,0.17c-0.03,0.11-0.08,0.22-0.13,0.33l-0.07,0.15c-0.08,0.15-0.18,0.3-0.29,0.45
	c-0.49,0.62-1.21,1.02-1.97,1.1l-0.27,0.01h-0.1l-0.21-0.02l-0.23-0.04l-0.09-0.01l-0.04,0.11c-0.03,0.16-0.08,0.32-0.14,0.48
	l-0.08,0.19c-0.09,0.2-0.21,0.4-0.36,0.59c-0.49,0.62-1.21,1.03-1.97,1.1c-0.09,0.01-0.18,0.02-0.27,0.02c-0.6,0-1.16-0.2-1.61-0.58
	l-2.67-2.22c-0.02,0.61-0.21,1.23-0.61,1.75C17.75,39.59,16.93,40,16.04,40c-0.65,0-1.28-0.23-1.79-0.64
	c-0.62-0.52-0.98-1.26-1.04-2.03c-0.13,0.02-0.25,0.04-0.37,0.04c-0.65,0-1.28-0.22-1.79-0.64c-0.63-0.51-0.98-1.26-1.04-2.03
	c-0.13,0.02-0.25,0.05-0.37,0.05c-0.65,0-1.29-0.23-1.79-0.64c-0.63-0.52-0.98-1.26-1.05-2.03c-0.12,0.01-0.24,0.04-0.36,0.04
	c-0.65,0-1.29-0.23-1.79-0.64c-1.22-1-1.42-2.84-0.45-4.1c0.44-0.57,1.04-0.93,1.71-1.06l-1.33-1.11l-3.21,2.94
	c-0.16,0.14-0.35,0.22-0.55,0.22c-0.11,0-0.23-0.03-0.33-0.07C0.19,28.17,0,27.87,0,27.55V0.82C0,0.37,0.37,0,0.82,0h4.26
	c0.18,0,0.36,0.06,0.5,0.17l10.46,8.08c0.23,0.18,0.35,0.47,0.31,0.76l-0.21,1.51l7.58-1.27c0.74-0.33,1.37-0.6,1.85-0.79
	c-0.04-0.23,0.02-0.47,0.18-0.66l6.65-7.52C32.56,0.1,32.78,0,33.01,0h6.17C39.63,0,40,0.37,40,0.82v23.44
	C40,24.59,39.8,24.89,39.49,25.02z"/>
</svg>
