<?xml version="1.0" encoding="iso-8859-1"?>
<!-- Generator: Adobe Illustrator 16.0.0, SVG Export Plug-In . SVG Version: 6.00 Build 0)  -->
<!DOCTYPE svg PUBLIC "-//W3C//DTD SVG 1.1 Tiny//EN" "http://www.w3.org/Graphics/SVG/1.1/DTD/svg11-tiny.dtd">
<svg version="1.1" baseProfile="tiny" id="Layer_1" xmlns="http://www.w3.org/2000/svg" xmlns:xlink="http://www.w3.org/1999/xlink"
	 x="0px" y="0px" width="26px" height="20px" viewBox="0 0 26 20" xml:space="preserve">
<path fill-rule="evenodd" fill="#58B69E" d="M26,3H5v2h15.67c1.64,0,2.99,1.23,2.99,2.73V11h0.4C25.12,11,26,10.2,26,9.22V3z
	 M7.04,0C5.92,0,5,0.77,5,1.72V2h21V1.72C26,0.77,25.08,0,23.96,0H7.04z M1.99,6.19C0.9,6.19,0,7.08,0,8.17v9.85
	C0,19.11,0.9,20,1.99,20h17.54c1.1,0,2-0.89,2-1.98V8.17c0-1.09-0.9-1.98-2-1.98H1.99z M12,16h7v2h-7V16z M2,9h4v4H2V9z"/>
</svg>
