<?xml version="1.0" encoding="utf-8"?>
<!-- Generator: Adobe Illustrator 16.0.0, SVG Export Plug-In . SVG Version: 6.00 Build 0)  -->
<!DOCTYPE svg PUBLIC "-//W3C//DTD SVG 1.1//EN" "http://www.w3.org/Graphics/SVG/1.1/DTD/svg11.dtd">
<svg version="1.1" id="Layer_1" xmlns="http://www.w3.org/2000/svg" xmlns:xlink="http://www.w3.org/1999/xlink" x="0px" y="0px"
	 width="42.742px" height="35.632px" viewBox="14 7 42.742 35.632" enable-background="new 14 7 42.742 35.632"
	 xml:space="preserve">
<linearGradient id="SVGID_1_" gradientUnits="userSpaceOnUse" x1="14" y1="24.8159" x2="56.7417" y2="24.8159">
	<stop  offset="0" style="stop-color:#F79B51"/>
	<stop  offset="1" style="stop-color:#F1730C"/>
</linearGradient>
<path fill="url(#SVGID_1_)" d="M46.822,17.94c-0.041-0.07-0.08-0.1-0.09-0.14l-0.49-1.15c-0.25-0.59-0.721-0.84-1.201-0.64
	c-0.49,0.2-0.66,0.68-0.42,1.29c0.17,0.44,0.352,0.88,0.521,1.3c-0.061,0.05-0.08,0.08-0.102,0.09
	c-0.359,0.149-0.709,0.29-1.059,0.45c-0.16,0.07-0.32,0.141-0.471,0.24c-0.35,0.26-0.439,0.709-0.23,1.109
	c0.201,0.381,0.6,0.551,1.061,0.381c0.51-0.181,1-0.391,1.51-0.601c0.189,0.479,0.371,0.899,0.551,1.33
	c0.07,0.149,0.16,0.319,0.279,0.44c0.32,0.279,0.68,0.33,1.051,0.08c0.42-0.271,0.469-0.67,0.318-1.091
	c-0.158-0.479-0.369-0.94-0.578-1.45c0.469-0.199,0.889-0.369,1.309-0.56c0.6-0.271,0.82-0.72,0.611-1.21
	c-0.201-0.48-0.701-0.63-1.301-0.4L46.822,17.94z M35.96,30.46c-0.148-0.291-0.219-0.521-0.359-0.691
	c-0.66-0.809-1.35-1.6-2.02-2.41c-0.33-0.398-0.84-0.5-1.23-0.238c-0.369,0.26-0.48,0.738-0.23,1.189
	c0.16,0.289,0.34,0.58,0.561,0.83c0.57,0.641,1.131,1.299,1.77,1.869c0.201,0.18,0.66,0.191,0.951,0.111
	C35.63,31.05,35.771,30.701,35.96,30.46z M28.111,20.761h-0.189c-0.631,0.039-1.029,0.41-1.01,0.92c0.01,0.55,0.41,0.82,1.1,0.84
	c0.25,0.01,0.561,0.15,0.74,0.33c0.311,0.33,0.539,0.75,0.82,1.109c0.33,0.42,0.84,0.511,1.229,0.23
	c0.381-0.27,0.48-0.74,0.221-1.189c-0.221-0.371-0.471-0.721-0.73-1.061C29.742,21.221,29.031,20.791,28.111,20.761z M42.771,27.351
	c-0.221-0.24-0.4-0.551-0.67-0.689c-0.34-0.191-0.699-0.031-0.971,0.27c-0.68,0.76-1.359,1.52-2.059,2.26
	c-0.41,0.439-0.48,0.939-0.141,1.311c0.369,0.41,0.891,0.42,1.34-0.041c0.75-0.77,1.471-1.58,2.18-2.4
	C42.591,27.912,42.63,27.669,42.771,27.351z M22.121,27c-0.1,0.051-0.36,0.109-0.459,0.27c-0.311,0.48-0.61,0.98-0.811,1.512
	c-0.16,0.408,0.03,0.799,0.44,1c0.39,0.199,0.791,0.129,1.021-0.221c0.309-0.471,0.58-0.971,0.77-1.49
	C23.271,27.56,22.791,26.992,22.121,27z M45.281,23.561c-0.299-0.319-0.48-0.61-0.75-0.78c-0.33-0.21-0.709-0.09-0.93,0.221
	c-0.301,0.43-0.551,0.899-0.779,1.359c-0.18,0.37,0,0.689,0.279,0.93c0.301,0.26,0.73,0.32,0.961,0.051
	C44.511,24.832,44.841,24.221,45.281,23.561z M24.88,22.86c-0.049,0.021-0.229,0.021-0.309,0.12c-0.4,0.471-0.83,0.93-1.131,1.46
	c-0.199,0.36,0,0.761,0.371,0.99c0.35,0.22,0.738,0.17,1.01-0.11c0.35-0.369,0.67-0.779,0.92-1.22
	C26.062,23.531,25.621,22.86,24.88,22.86z M54.992,37.662l-5.15-1.191c-0.791-0.18-1.58-0.34-2.369-0.549
	c-0.512-0.141-0.951-0.07-1.422,0.148l-9.889,4.57c-0.34,0.16-0.631,0.17-0.98,0.021c-3-1.281-6.02-2.521-9.02-3.801
	c-0.531-0.221-1-0.27-1.551-0.051c-2.78,1.111-5.57,2.191-8.35,3.281l-0.51,0.189V36.98V13.781c-0.01-0.34,0.09-0.51,0.41-0.63
	c2.94-1.14,5.87-2.3,8.811-3.42c0.219-0.09,0.529-0.07,0.75,0.02c3.119,1.29,6.229,2.59,9.34,3.9c0.449,0.2,0.84,0.18,1.279-0.02
	l10.1-4.66c0.35-0.17,0.67-0.19,1.051-0.1c2.359,0.56,4.73,1.11,7.109,1.65c0.311,0.07,0.4,0.18,0.4,0.49l-0.01,19.661v6.24V37.662z
	 M56.732,24.351l0.01-14.08c0-0.87-0.17-1.1-1.02-1.3c-2.74-0.63-5.48-1.25-8.221-1.9c-0.529-0.13-0.99-0.08-1.48,0.15
	c-3.24,1.51-6.51,2.99-9.75,4.51c-0.449,0.22-0.811,0.2-1.25,0.01c-2.971-1.27-5.949-2.5-8.93-3.76c-0.5-0.22-0.949-0.23-1.471-0.02
	c-3.28,1.3-6.57,2.57-9.859,3.86c-0.6,0.24-0.75,0.45-0.75,1.13l-0.01,7.259v19.031c0,0.799-0.01,1.6,0.03,2.398
	c0.02,0.48,0.41,0.84,0.83,0.811c0.21-0.01,0.41-0.09,0.6-0.16c3.17-1.24,6.34-2.49,9.521-3.709c0.199-0.08,0.5-0.08,0.699,0
	c3.109,1.289,6.211,2.58,9.301,3.898c0.49,0.211,0.92,0.201,1.41-0.02l10.059-4.641c0.34-0.158,0.641-0.189,1.01-0.109
	c2.641,0.631,5.291,1.24,7.941,1.85c0.879,0.201,1.34-0.16,1.34-1.039C56.742,38.521,56.732,38.521,56.732,24.351z"/>
</svg>
