<?xml version="1.0" encoding="iso-8859-1"?>
<!-- Generator: Adobe Illustrator 16.0.0, SVG Export Plug-In . SVG Version: 6.00 Build 0)  -->
<!DOCTYPE svg PUBLIC "-//W3C//DTD SVG 1.1 Tiny//EN" "http://www.w3.org/Graphics/SVG/1.1/DTD/svg11-tiny.dtd">
<svg version="1.1" baseProfile="tiny" id="Layer_1" xmlns="http://www.w3.org/2000/svg" xmlns:xlink="http://www.w3.org/1999/xlink"
	 x="0px" y="0px" width="40px" height="39px" viewBox="0 0 40 39" xml:space="preserve">
<path fill-rule="evenodd" fill="#58B69E" d="M34.47,13.11v9.67c2.27-0.38,4.01-2.39,4.01-4.84C38.48,15.5,36.74,13.49,34.47,13.11z
	 M32.95,2.31c0-0.29-0.15-0.54-0.4-0.67c-0.12-0.06-0.44-0.18-0.76,0.07c-4.91,3.85-13.47,10.15-17.74,10.88v10.65
	c4.82,0.64,13.09,6.94,17.73,10.77c0.32,0.26,0.64,0.15,0.76,0.09c0.1-0.05,0.41-0.23,0.41-0.67V2.31z M6.63,12.66
	c-2.82,0-5.11,2.36-5.11,5.27c0,2.9,2.29,5.26,5.11,5.26h0.59c0.01,0,0.03-0.02,0.04-0.02l5.27,0.02V12.66H6.63z M10.42,36.75
	c1.04,0.54,4.97,1.05,6.74,0.33c0.34-0.14,0.56-0.31,0.62-0.48c0.42-1.18-0.4-2.05-2.01-3.59c-0.37-0.35-0.75-0.71-1.13-1.1
	c-1.74-1.8-2.09-5.53-2.15-7.16H8.02v4.15C8.02,33.16,9.44,36.25,10.42,36.75z M34.47,24.34v9.09c0,0.89-0.49,1.69-1.27,2.08
	c-0.32,0.15-0.65,0.23-0.97,0.23c-0.5,0-0.99-0.17-1.39-0.51c-7.53-6.2-13.55-9.9-16.83-10.39c0.08,1.75,0.47,4.7,1.7,5.96
	c0.37,0.38,0.74,0.73,1.09,1.07c1.64,1.57,3.2,3.05,2.4,5.27c-0.22,0.61-0.72,1.08-1.49,1.39C16.89,38.87,15.8,39,14.67,39
	c-2,0-4.09-0.42-4.93-0.85C7.9,37.2,6.5,33.22,6.5,28.9v-4.17C2.91,24.66,0,21.64,0,17.93c0-3.77,2.98-6.83,6.63-6.83h6.66
	c2.51,0,9.09-3.97,17.59-10.63c0.68-0.53,1.58-0.62,2.34-0.23c0.77,0.39,1.25,1.18,1.25,2.07v9.24c3.1,0.39,5.53,3.09,5.53,6.39
	C40,21.25,37.57,23.95,34.47,24.34z"/>
</svg>
