<?xml version="1.0" encoding="iso-8859-1"?>
<!-- Generator: Adobe Illustrator 16.0.0, SVG Export Plug-In . SVG Version: 6.00 Build 0)  -->
<!DOCTYPE svg PUBLIC "-//W3C//DTD SVG 1.1 Tiny//EN" "http://www.w3.org/Graphics/SVG/1.1/DTD/svg11-tiny.dtd">
<svg version="1.1" baseProfile="tiny" id="Layer_1" xmlns="http://www.w3.org/2000/svg" xmlns:xlink="http://www.w3.org/1999/xlink"
	 x="0px" y="0px" width="26px" height="26px" viewBox="0 0 26 26" xml:space="preserve">
<path fill-rule="evenodd" fill="#AF3655" d="M13,0C5.83,0,0,5.83,0,13s5.83,13,13,13s13-5.83,13-13S20.17,0,13,0z M18.73,18.73
	c-0.35,0.34-0.91,0.34-1.25,0l-4.02-4.02l-4.02,4.02c-0.34,0.34-0.9,0.34-1.25,0c-0.34-0.35-0.34-0.91,0-1.25l4.02-4.02L8.19,9.44
	c-0.34-0.34-0.34-0.9,0-1.25c0.35-0.34,0.91-0.34,1.25,0l4.02,4.02l4.02-4.02c0.34-0.34,0.9-0.34,1.25,0c0.34,0.35,0.34,0.91,0,1.25
	l-4.02,4.02l4.02,4.02C19.07,17.82,19.07,18.38,18.73,18.73z"/>
</svg>
