<?xml version="1.0" encoding="iso-8859-1"?>
<!-- Generator: Adobe Illustrator 16.0.0, SVG Export Plug-In . SVG Version: 6.00 Build 0)  -->
<!DOCTYPE svg PUBLIC "-//W3C//DTD SVG 1.1 Tiny//EN" "http://www.w3.org/Graphics/SVG/1.1/DTD/svg11-tiny.dtd">
<svg version="1.1" baseProfile="tiny" id="Layer_1" xmlns="http://www.w3.org/2000/svg" xmlns:xlink="http://www.w3.org/1999/xlink"
	 x="0px" y="0px" width="39px" height="39px" viewBox="0 0 39 39" xml:space="preserve">
<path fill-rule="evenodd" fill="#58B69E" d="M14.76,11.9c-0.36-2.7-1.11-7.19-1.4-8.92H3.31C3.02,4.71,2.28,9.2,1.91,11.9
	c-0.15,1.09-0.2,2.1-0.21,3.05h13.27C14.97,14,14.91,12.99,14.76,11.9z M3,20.8c0.71,1.18,2.51,3.12,5.34,5.77
	c2.82-2.65,4.62-4.59,5.34-5.77c0.66-1.1,1.06-2.5,1.22-4.14H1.78C1.94,18.3,2.33,19.7,3,20.8z M15.11,21.7
	c-1.24,2.04-4.76,5.32-5.92,6.4v9.1h5.93c0.47,0,0.84,0.38,0.84,0.85c0,0.47-0.37,0.86-0.84,0.86H1.59c-0.47,0-0.84-0.39-0.84-0.86
	c0-0.47,0.37-0.85,0.84-0.85h5.92v-9.08l-0.04-0.03c-1.15-1.08-4.67-4.36-5.91-6.39c-0.89-1.47-1.35-3.35-1.48-5.54
	C0.03,16.05,0,15.94,0,15.81c0-0.09,0.03-0.17,0.05-0.25c-0.03-1.21,0.01-2.49,0.19-3.89c0.46-3.41,1.52-9.63,1.53-9.7
	C1.84,1.56,2.19,1.26,2.6,1.26h11.47c0.41,0,0.76,0.3,0.83,0.71c0.01,0.07,1.07,6.29,1.53,9.7c0.2,1.48,0.27,2.84,0.22,4.1
	l0.01,0.04l-0.01,0.04C16.56,18.2,16.05,20.16,15.11,21.7z M27.7,11.53h-5.05v0.9c0,1.46,1.1,2.61,2.51,2.63
	c1.4-0.02,2.54-1.2,2.54-2.63V11.53z M26.02,16.67v21.38c0,0.47-0.38,0.86-0.84,0.86c-0.47,0-0.84-0.39-0.84-0.86V16.68
	c-1.94-0.4-3.37-2.12-3.37-4.25v-1.75l0.01-0.03l-0.01-0.03V3.77c0-0.47,0.38-0.85,0.84-0.85c0.47,0,0.84,0.38,0.84,0.85v6.05h1.69
	V3.77c0-0.47,0.37-0.85,0.84-0.85c0.46,0,0.84,0.38,0.84,0.85v6.05h1.68V3.77c0-0.47,0.38-0.85,0.84-0.85
	c0.47,0,0.85,0.38,0.85,0.85v6.85l-0.01,0.03l0.01,0.03v1.75C29.39,14.5,27.94,16.25,26.02,16.67z M36.18,3.86
	c-0.15-2.15-0.78-2.15-1.16-2.15c-0.17,0-0.21,0.03-0.21,0.03c-0.22,0.16-0.33,1.08-0.38,2.51v12.18c0,1.19,0.48,1.77,1.45,1.77
	h0.21c0.33,0,0.84,0,1.03-0.12c0.18-0.11,0.2-0.63,0.2-0.84L36.18,3.86z M38,19.54c-0.6,0.37-1.33,0.37-1.91,0.37h-0.11
	c-0.54,0-1.07-0.12-1.55-0.35v18.58c0,0.48-0.37,0.86-0.84,0.86c-0.46,0-0.84-0.38-0.84-0.86V16.43c0-2.38-0.01-4.4-0.02-6.13
	c-0.02-2.79-0.03-4.75,0.02-6.17V3.77c0-0.03,0.02-0.06,0.02-0.09c0.09-1.8,0.32-2.62,0.84-3.15C33.96,0.17,34.42,0,35.02,0
	c2.58,0,2.78,2.81,2.84,3.73L39,17.17C39,17.65,39,18.91,38,19.54z"/>
</svg>
