<?xml version="1.0" encoding="utf-8"?>
<!-- Generator: Adobe Illustrator 16.0.0, SVG Export Plug-In . SVG Version: 6.00 Build 0)  -->
<!DOCTYPE svg PUBLIC "-//W3C//DTD SVG 1.1//EN" "http://www.w3.org/Graphics/SVG/1.1/DTD/svg11.dtd">
<svg version="1.1" id="Layer_1" xmlns="http://www.w3.org/2000/svg" xmlns:xlink="http://www.w3.org/1999/xlink" x="0px" y="0px"
	 width="40px" height="34px" viewBox="0 0 40 34" enable-background="new 0 0 40 34" xml:space="preserve">
<g transform="translate(0,-952.36218)">
	<path fill="#58B69E" d="M14.612,953.199c-0.378,0.007-0.652,0.26-0.798,0.491l-2.007,3.998H4.285c-2.223,0-4.04,1.818-4.04,4.041
		v19.754c0,2.225,1.817,4.043,4.04,4.043h31.43c2.223,0,4.04-1.818,4.04-4.043v-19.754c0-2.223-1.817-4.041-4.04-4.041h-7.521
		l-2.005-3.998c-0.149-0.294-0.472-0.491-0.802-0.491H14.612z M15.16,954.995h9.683l1.991,3.985
		c0.146,0.298,0.468,0.502,0.799,0.504h8.083c1.26,0,2.245,0.986,2.245,2.245v19.754c0,1.26-0.985,2.248-2.245,2.248H4.285
		c-1.259,0-2.243-0.988-2.243-2.248v-19.754c0-1.259,0.984-2.245,2.243-2.245h8.083c0.333-0.002,0.655-0.207,0.799-0.504
		L15.16,954.995z M20,962.627c-4.948,0-8.979,4.03-8.979,8.979c0,4.949,4.031,8.979,8.979,8.979c4.949,0,8.979-4.029,8.979-8.979
		C28.979,966.658,24.95,962.627,20,962.627z M20,964.423c3.979,0,7.185,3.205,7.185,7.183c0,3.98-3.206,7.184-7.185,7.184
		c-3.977,0-7.184-3.203-7.184-7.184C12.816,967.628,16.023,964.423,20,964.423z"/>
</g>
</svg>
