<?xml version="1.0" encoding="iso-8859-1"?>
<!-- Generator: Adobe Illustrator 16.0.0, SVG Export Plug-In . SVG Version: 6.00 Build 0)  -->
<!DOCTYPE svg PUBLIC "-//W3C//DTD SVG 1.1 Tiny//EN" "http://www.w3.org/Graphics/SVG/1.1/DTD/svg11-tiny.dtd">
<svg version="1.1" baseProfile="tiny" id="Layer_1" xmlns="http://www.w3.org/2000/svg" xmlns:xlink="http://www.w3.org/1999/xlink"
	 x="0px" y="0px" width="40px" height="40px" viewBox="0 0 40 40" xml:space="preserve">
<path fill-rule="evenodd" fill="#58B69E" d="M16.45,18.21c2.38-0.58,4.75-0.58,7.13,0l0.01-0.13c0.05-0.51,0.14-1.02,0.32-1.5
	c0.19-0.52,0.19-1.03,0.05-1.56c-0.18-0.65-0.56-1.17-1.05-1.61c-0.19-0.17-0.38-0.33-0.55-0.5c-0.92-0.89-1.57-1.93-1.8-3.22
	l-0.07-0.36h-0.96l-0.04,0.22c-0.07,0.29-0.13,0.59-0.22,0.88c-0.25,0.82-0.71,1.53-1.29,2.15c-0.26,0.27-0.53,0.53-0.81,0.77
	c-0.4,0.36-0.75,0.76-0.96,1.26c-0.28,0.66-0.35,1.33-0.09,2.02c0.14,0.35,0.21,0.72,0.26,1.1L16.45,18.21z M34.18,34.78H5.84v3.9
	h28.34V34.78z M33.53,33.46c0.22-4.03-1.48-9.15-6.35-12.27c-4.62-2.95-10.56-2.77-15.03,0.47c-2.23,1.61-3.83,3.73-4.81,6.33
	c-0.67,1.76-0.93,3.59-0.86,5.47H33.53z M0,38.67c0.05,0,0.09,0.01,0.14,0.01l4.23,0.01h0.15c0.02-0.18,0.01-0.35,0.01-0.52v-0.52
	v-0.52v-0.52v-0.52v-0.52v-0.52v-0.52v-0.52v-0.53h0.65c-0.03-1.31,0.06-2.59,0.33-3.86c0.28-1.27,0.7-2.48,1.29-3.63
	c0.58-1.16,1.3-2.21,2.15-3.18c0.86-0.97,1.82-1.81,2.89-2.53c1.06-0.72,2.2-1.29,3.42-1.71c-0.02-0.18-0.03-0.36-0.05-0.54
	c-0.04-0.39-0.14-0.77-0.27-1.14c-0.29-0.86-0.23-1.71,0.08-2.54c0.28-0.78,0.76-1.4,1.38-1.92c0.34-0.3,0.66-0.61,0.95-0.96
	c0.51-0.62,0.82-1.33,0.95-2.12l0.03-0.14c0.06-0.3,0.1-0.61,0.04-0.92l-0.01-0.11l0.01-0.07c0.16-0.02,0.31,0,0.47-0.01h0.47V3.99
	h-3.16V2.68h3.17V1.34V0h1.29v2.67h3.26v1.32h-3.25v4.1c0.35,0.03,0.69,0,1.05,0.02c0,0.08,0,0.16-0.02,0.23
	c-0.04,0.23-0.04,0.47,0.01,0.7c0.06,0.23,0.1,0.47,0.15,0.7c0.16,0.73,0.52,1.36,1.02,1.91c0.24,0.27,0.51,0.52,0.78,0.76
	c0.44,0.39,0.83,0.81,1.11,1.33c0.4,0.71,0.59,1.48,0.53,2.3c-0.02,0.32-0.09,0.62-0.2,0.92c-0.17,0.49-0.25,0.99-0.28,1.51v0.1
	c3.11,1.1,5.6,3.02,7.47,5.76c1.86,2.74,2.69,5.8,2.59,9.14h0.65v5.2l0.21,0.01l4.1,0.01L40,38.7V40H0V38.67z"/>
</svg>
