<?xml version="1.0" encoding="iso-8859-1"?>
<!-- Generator: Adobe Illustrator 16.0.0, SVG Export Plug-In . SVG Version: 6.00 Build 0)  -->
<!DOCTYPE svg PUBLIC "-//W3C//DTD SVG 1.1 Tiny//EN" "http://www.w3.org/Graphics/SVG/1.1/DTD/svg11-tiny.dtd">
<svg version="1.1" baseProfile="tiny" id="Layer_1" xmlns="http://www.w3.org/2000/svg" xmlns:xlink="http://www.w3.org/1999/xlink"
	 x="0px" y="0px" width="21.999px" height="40px" viewBox="0 0 21.999 40" xml:space="preserve">
<path fill-rule="evenodd" fill="#58B69E" d="M17.09,20.78l-0.01-0.02l-0.02-0.37l0.05-0.1l2.94,1.56l-2.33,4.42l-0.15-0.08
	C17.36,24.18,17.18,22.23,17.09,20.78z M5.46,35l0.02-0.16c0.81-0.2,2.35-0.63,4.13-1.36c2.74-1.12,4.97-2.49,6.64-4.07
	c0.26,2.33,0.52,4.43,0.66,5.59H5.46z M18.68,38.33H3.74v-1.66h0.83h13.28h0.83V38.33z M2.66,8.92c0.01,0,2.72,5.63,2.72,5.63
	L5,19.45L2.18,9.41L2.66,8.92z M6.23,11.67h0.83v0.3c0,0.61,0.13,1.21,0.35,1.77l-0.63-0.11l-1.01-2.1
	C5.9,11.62,6.06,11.67,6.23,11.67z M15.42,20.68c-1.93,4.09-7.09,6.42-9.41,7.29l0.25-3.26c4.39-2.15,7.31-5.32,8.43-6.68
	c0.44,0.38,0.67,0.76,0.67,1.14C15.36,19.56,15.38,20.07,15.42,20.68z M5.87,29.79c0.81-0.27,2.43-0.87,4.22-1.85
	c1.49-0.81,2.8-1.72,3.88-2.7c0.63-0.57,1.19-1.17,1.66-1.78c0.11,1.19,0.24,2.49,0.38,3.78c-1.94,2.29-4.85,3.8-7,4.68
	c-1.35,0.56-2.57,0.94-3.4,1.16L5.87,29.79z M11.21,17.13c0.36,0,0.77-0.13,1.19-0.36c0.31,0.12,0.6,0.25,0.86,0.37
	c-1.04,1.23-3.42,3.73-6.85,5.62l0.57-7.4c0.44,0.07,1.02,0.18,1.67,0.32C9.47,16.57,10.45,17.13,11.21,17.13z M9.47,9.88
	c0.44-0.46,1.06-0.71,1.74-0.71s1.29,0.25,1.74,0.71c0.49,0.51,0.75,1.23,0.75,2.09c0,0.79-0.38,1.68-1.03,2.45
	c-0.67,0.77-1.3,1.03-1.46,1.05c-0.17-0.02-0.8-0.28-1.46-1.05s-1.03-1.66-1.03-2.45C8.72,11.11,8.98,10.39,9.47,9.88z M2.91,5H2.08
	H1.25C0.79,5,0.41,5.37,0.41,5.83s0.38,0.84,0.84,0.84v1.32L0.66,8.58C0.45,8.79,0.36,9.1,0.45,9.39l4.18,14.86L3.8,35H2.91
	c-0.46,0-0.83,0.37-0.83,0.83v3.34c0,0.46,0.37,0.83,0.83,0.83h16.6c0.46,0,0.83-0.37,0.83-0.83v-3.34c0-0.46-0.37-0.83-0.83-0.83
	h-0.93c-0.15-1.25-0.48-3.95-0.79-6.82c0.09,0.04,0.18,0.05,0.27,0.05s0.17-0.01,0.25-0.04c0.21-0.06,0.38-0.21,0.49-0.4l3.1-5.9
	c0.22-0.4,0.06-0.91-0.34-1.12l-4.4-2.34c-0.09-0.04-0.18-0.07-0.27-0.09c-0.25-0.76-0.85-1.46-1.81-2.08
	c-0.35-0.24-0.76-0.46-1.23-0.68c0.85-0.95,1.51-2.26,1.51-3.61l-0.01-0.3h0.84c0.46,0,0.83-0.38,0.83-0.84S16.65,10,16.19,10h-1.21
	c-0.18-0.41-0.4-0.78-0.68-1.1l1.02-1.01c0.32-0.33,0.32-0.86,0-1.18c-0.33-0.33-0.85-0.33-1.18,0l-1.17,1.18
	c-0.29-0.14-0.61-0.25-0.93-0.31V5.83c0-0.46-0.37-0.83-0.83-0.83s-0.83,0.37-0.83,0.83v1.75c-0.33,0.06-0.64,0.17-0.94,0.31
	L8.27,6.71c-0.32-0.33-0.85-0.33-1.17,0c-0.33,0.32-0.33,0.85,0,1.18L8.11,8.9C7.84,9.22,7.61,9.59,7.44,10H6.23
	c-0.44,0-0.8,0.34-0.83,0.76L3.65,7.14C3.54,6.89,3.31,6.72,3.04,6.68L2.91,6.67c0.45,0,0.83-0.38,0.83-0.84S3.36,5,2.91,5z
	 M2.08,3.33c-0.23,0-0.41-0.18-0.42-0.4C1.69,2.79,1.85,2.5,2.07,2.18C2.3,2.5,2.47,2.79,2.49,2.93C2.48,3.15,2.3,3.33,2.08,3.33z
	 M0,2.92C0,4.07,0.93,5,2.08,5c1.14,0,2.07-0.93,2.07-2.08c0-0.91-1.02-2.15-1.46-2.64C2.54,0.1,2.31,0,2.08,0
	C1.84,0,1.61,0.1,1.46,0.28C1.02,0.77,0,2.01,0,2.92z"/>
</svg>
