<?xml version="1.0" encoding="iso-8859-1"?>
<!-- Generator: Adobe Illustrator 16.0.0, SVG Export Plug-In . SVG Version: 6.00 Build 0)  -->
<!DOCTYPE svg PUBLIC "-//W3C//DTD SVG 1.1 Tiny//EN" "http://www.w3.org/Graphics/SVG/1.1/DTD/svg11-tiny.dtd">
<svg version="1.1" baseProfile="tiny" id="Layer_1" xmlns="http://www.w3.org/2000/svg" xmlns:xlink="http://www.w3.org/1999/xlink"
	 x="0px" y="0px" width="47px" height="50px" viewBox="0 0 47 50" xml:space="preserve">
<path fill-rule="evenodd" fill="#3AB977" d="M16.68,21.02l0.02,0.01c0.35,0.22,0.69,0.43,0.82,0.89c0.34,1.18,2.57,5.56,5.55,5.56
	s5.21-4.38,5.55-5.55c0.12-0.46,0.48-0.69,0.82-0.9l0.02-0.01c0.76-1.44,0.6-2,0.56-2.1c-0.03-0.1-0.1-0.13-0.14-0.14
	c-0.55-0.11-0.89-0.59-0.86-1.15c0-0.01,0.09-1.78-0.33-3.39c-0.02-0.07-0.03-0.14-0.04-0.21c-0.03-0.34-0.46-3.45-5.58-3.45
	c-5.26,0-5.57,3.32-5.59,3.46c0,0.07-0.01,0.13-0.03,0.2c-0.42,1.62-0.33,3.37-0.33,3.39c0.03,0.56-0.36,1.05-0.91,1.16
	c0.01,0-0.06,0.03-0.09,0.13C16.07,19.02,15.92,19.58,16.68,21.02z M23.07,29.71c-4.3,0-6.91-5.06-7.57-6.8
	c-0.27-0.17-0.5-0.32-0.66-0.61c-1-1.8-1.25-3.26-0.74-4.35c0.2-0.41,0.48-0.72,0.78-0.94c0.01-0.77,0.08-2.03,0.4-3.27
	c0.13-0.86,1.14-5.39,7.79-5.39c6.68,0,7.67,4.52,7.79,5.39c0.32,1.24,0.39,2.5,0.4,3.27c0.3,0.22,0.58,0.53,0.78,0.94
	c0.51,1.09,0.26,2.55-0.74,4.35c-0.16,0.29-0.39,0.44-0.66,0.61C29.98,24.65,27.36,29.71,23.07,29.71z"/>
<path fill="#3AB977" d="M7.99,40.3c-0.62,0-1.12-0.5-1.12-1.11c0-5.1,2.85-8.71,8.25-10.43c2.4-0.77,3.7-2.03,3.71-2.05
	c0.44-0.43,1.14-0.43,1.58,0.01c0.43,0.43,0.44,1.13,0,1.57c-0.06,0.06-1.66,1.64-4.61,2.59c-4.5,1.44-6.7,4.16-6.7,8.31
	C9.1,39.8,8.61,40.3,7.99,40.3z"/>
<path fill="#3AB977" d="M28.85,30.19c-0.16,0-0.34-0.04-0.5-0.12c-1.68-0.84-2.59-1.75-2.62-1.78c-0.44-0.44-0.43-1.15,0-1.58
	c0.44-0.43,1.14-0.43,1.58,0c0.01,0.01,0.71,0.7,2.05,1.37c0.55,0.27,0.77,0.94,0.49,1.49C29.66,29.96,29.26,30.19,28.85,30.19z"/>
<path fill="#3AB977" d="M23.44,46.77C10.52,46.77,0,36.28,0,23.39C0,10.49,10.52,0,23.44,0c12.93,0,23.44,10.49,23.44,23.39
	c0,1.51-0.14,3.03-0.43,4.51c-0.12,0.6-0.7,0.99-1.31,0.88c-0.61-0.12-1-0.71-0.88-1.31c0.26-1.34,0.39-2.71,0.39-4.08
	c0-11.67-9.51-21.16-21.21-21.16c-11.69,0-21.21,9.49-21.21,21.16c0,11.66,9.52,21.16,21.21,21.16c0.62,0,1.12,0.49,1.12,1.11
	C24.56,46.27,24.06,46.77,23.44,46.77z"/>
<path fill-rule="evenodd" fill="#F48022" d="M44.17,42.63c-0.25,0.52-0.68,0.82-1.24,0.94c-0.18,0.04-0.36,0.05-0.53,0.05h-0.05
	l0.04-0.26c0.03-0.21,0.02-0.42-0.07-0.63c-0.11-0.27-0.33-0.42-0.61-0.48c-0.3-0.06-0.59-0.01-0.88,0.08
	c-0.41,0.15-0.76,0.38-1.02,0.74c-0.16,0.21-0.24,0.45-0.26,0.72v0.06l0.19,0.07c0.22,0.09,0.4,0.24,0.49,0.47
	c0.11,0.29,0.05,0.57-0.13,0.82c-0.16,0.2-0.37,0.32-0.62,0.36c-0.04,0.01-0.04,0.02-0.04,0.06c0.03,0.24,0.14,0.44,0.33,0.59
	l0.32,0.26c0.15,0.12,0.29,0.25,0.37,0.44l0.02,0.06c0.03,0.1,0.03,0.1-0.05,0.15c-0.14,0.07-0.28,0.07-0.42,0.07
	c-0.22-0.01-0.44-0.06-0.65-0.12c-0.03-0.01-0.06,0-0.08,0.02l-0.51,0.58c-0.14,0.15-0.29,0.29-0.47,0.37
	c-0.09,0.04-0.19,0.07-0.28,0.08c-0.08,0.01-0.17-0.02-0.24-0.04c-0.21-0.08-0.37-0.22-0.51-0.37l-0.55-0.61
	c-0.03-0.03-0.05-0.04-0.09-0.03c-0.25,0.08-0.51,0.13-0.77,0.12c-0.12-0.01-0.23-0.03-0.33-0.1c-0.03-0.02-0.04-0.04-0.03-0.08
	c0.05-0.19,0.16-0.34,0.3-0.46l0.39-0.31c0.18-0.14,0.31-0.32,0.36-0.56l0.01-0.1l-0.17-0.05c-0.28-0.09-0.49-0.26-0.61-0.54
	c-0.16-0.38-0.03-0.79,0.33-1c0.1-0.07,0.22-0.11,0.33-0.16c0-0.19-0.04-0.38-0.12-0.56c-0.19-0.37-0.48-0.62-0.84-0.81
	c-0.26-0.14-0.54-0.22-0.83-0.24c-0.2-0.01-0.4,0.01-0.58,0.09c-0.3,0.14-0.43,0.39-0.47,0.7c-0.02,0.18,0,0.36,0.04,0.54v0.05
	l-0.01,0.01c-0.37,0.01-0.73-0.05-1.06-0.22c-0.43-0.23-0.72-0.59-0.87-1.05c-0.25-0.84-0.11-1.62,0.51-2.27
	c0.3-0.33,0.7-0.51,1.15-0.56c0.85-0.11,1.59,0.14,2.25,0.67c0.49,0.39,0.86,0.88,1.17,1.43c0.16,0.27,0.29,0.56,0.41,0.86
	l0.02,0.04h0.01l0.03-0.37c0.01-0.54-0.11-1.05-0.32-1.54c-0.18-0.42-0.38-0.84-0.57-1.26c-0.18-0.38-0.34-0.77-0.45-1.17
	c-0.1-0.38-0.15-0.76-0.11-1.15c0.04-0.5,0.21-0.95,0.49-1.38c0.22-0.32,0.48-0.61,0.76-0.89l0.92-0.88c0.02-0.02,0.04-0.02,0.06,0
	c0.42,0.42,0.87,0.8,1.27,1.25c0.29,0.33,0.54,0.68,0.7,1.09c0.17,0.4,0.23,0.82,0.2,1.25c-0.02,0.49-0.16,0.96-0.36,1.41
	c-0.16,0.37-0.33,0.73-0.5,1.1c-0.2,0.42-0.38,0.84-0.49,1.29c-0.1,0.41-0.13,0.82-0.07,1.24v0.02l0.15-0.35
	c0.27-0.6,0.6-1.15,1.05-1.62c0.43-0.45,0.92-0.79,1.52-0.96c0.48-0.13,0.96-0.16,1.43-0.02c0.6,0.17,1.02,0.54,1.27,1.1
	C44.49,41.33,44.49,41.99,44.17,42.63z M38,32c-4.97,0-9,4.03-9,9s4.03,9,9,9s9-4.03,9-9S42.97,32,38,32z"/>
</svg>
