<?xml version="1.0" encoding="iso-8859-1"?>
<!-- Generator: Adobe Illustrator 16.0.0, SVG Export Plug-In . SVG Version: 6.00 Build 0)  -->
<!DOCTYPE svg PUBLIC "-//W3C//DTD SVG 1.1 Tiny//EN" "http://www.w3.org/Graphics/SVG/1.1/DTD/svg11-tiny.dtd">
<svg version="1.1" baseProfile="tiny" id="Layer_1" xmlns="http://www.w3.org/2000/svg" xmlns:xlink="http://www.w3.org/1999/xlink"
	 x="0px" y="0px" width="23.2px" height="19.55px" viewBox="0 0 23.2 19.55" xml:space="preserve">
<path fill="#FFFFFF" d="M23.2,2.31c-0.85,0.4-1.77,0.66-2.73,0.78c0.98-0.61,1.74-1.58,2.09-2.73c-0.92,0.57-1.94,0.98-3.02,1.2
	C18.67,0.6,17.43,0,16.06,0c-2.63,0-4.76,2.21-4.76,4.94c0,0.38,0.04,0.76,0.13,1.12C7.47,5.85,3.96,3.89,1.61,0.9
	C1.2,1.63,0.97,2.48,0.97,3.38c0,1.72,0.84,3.23,2.12,4.11C2.31,7.47,1.57,7.24,0.93,6.88v0.06c0,2.39,1.64,4.38,3.82,4.84
	c-0.4,0.11-0.82,0.17-1.26,0.17c-0.3,0-0.6-0.03-0.89-0.09c0.6,1.96,2.36,3.39,4.45,3.43c-1.63,1.32-3.69,2.11-5.92,2.11
	c-0.38,0-0.76-0.02-1.13-0.07c2.1,1.4,4.61,2.22,7.3,2.22c8.75,0,13.54-7.52,13.54-14.04l-0.01-0.64C21.76,4.17,22.56,3.3,23.2,2.31
	z"/>
</svg>
