<?xml version="1.0" encoding="iso-8859-1"?>
<!-- Generator: Adobe Illustrator 16.0.0, SVG Export Plug-In . SVG Version: 6.00 Build 0)  -->
<!DOCTYPE svg PUBLIC "-//W3C//DTD SVG 1.1 Tiny//EN" "http://www.w3.org/Graphics/SVG/1.1/DTD/svg11-tiny.dtd">
<svg version="1.1" baseProfile="tiny" id="Layer_1" xmlns="http://www.w3.org/2000/svg" xmlns:xlink="http://www.w3.org/1999/xlink"
	 x="0px" y="0px" width="64px" height="58px" viewBox="0 0 64 58" xml:space="preserve">
<path fill-rule="evenodd" fill="#F4F5F6" d="M51,2h11v9c0,0-2.43,7.05-11,7V2z"/>
<path fill-rule="evenodd" fill="#F4F5F6" d="M13,2H2v9c0,0,2.43,7.05,11,7V2z"/>
<path fill-rule="evenodd" fill="#E4E6E8" d="M15.03,2.59h33.94v17.25c0,9.27-7.61,16.82-16.97,16.82s-16.97-7.55-16.97-16.82V2.59z
	 M32.97,39.22c10.26-0.5,18.47-8.86,18.61-19.12h-0.2c-0.72,0-1.3-0.57-1.3-1.29c0-0.71,0.58-1.29,1.3-1.29l0.2-0.01V2.59h9.81V7.6
	c0,5.4-4.38,9.81-9.81,9.91v2.33v0.26C58.45,20,64,14.43,64,7.6V1.29C64,0.58,63.42,0,62.69,0H50.28h-0.2H13.92h-0.2H1.31
	C0.58,0,0,0.58,0,1.29V7.6C0,14.43,5.55,20,12.42,20.1v-0.26v-2.33C6.99,17.41,2.61,13,2.61,7.6V2.59h9.81v14.92l0.2,0.01
	c0.72,0,1.3,0.58,1.3,1.29c0,0.72-0.58,1.29-1.3,1.29h-0.2c0.14,10.04,8,18.26,17.94,19.07v9.55h-6.74c-0.73,0-1.31,0.58-1.31,1.3
	c0,0.71,0.58,1.29,1.31,1.29h16.1c0.72,0,1.3-0.58,1.3-1.29c0-0.72-0.58-1.3-1.3-1.3h-6.75V39.22z M51.58,20.1v-0.26v-2.33
	l-0.2,0.01c-0.72,0-1.3,0.58-1.3,1.29c0,0.72,0.58,1.29,1.3,1.29H51.58z M12.42,17.51v2.33v0.26h0.2c0.72,0,1.3-0.57,1.3-1.29
	c0-0.71-0.58-1.29-1.3-1.29L12.42,17.51z M52.12,58c0.72,0,1.3-0.58,1.3-1.29c0-0.72-0.58-1.3-1.3-1.3H11.21
	c-0.72,0-1.3,0.58-1.3,1.3c0,0.71,0.58,1.29,1.3,1.29H52.12z"/>
</svg>
