
<svg width="31px" height="28px" viewBox="0 0 31 28" version="1.1" xmlns="http://www.w3.org/2000/svg" xmlns:xlink="http://www.w3.org/1999/xlink">
    <!-- Generator: Sketch 49.3 (51167) - http://www.bohemiancoding.com/sketch -->
    <desc>Created with Sketch.</desc>
    <defs>
        <polygon id="path-1" points="0 0 30.7436736 0 30.7436736 27.9997455 0 27.9997455"></polygon>
    </defs>
    <g id="Desktop-UI" stroke="none" stroke-width="1" fill="none" fill-rule="evenodd">
        <g id="Desktop-1920x1080-(Checkout)" transform="translate(-1159.000000, -1073.000000)">
            <g id="Billing-addresss" transform="translate(770.000000, 1073.000000)">
                <g id="Address-icon" transform="translate(389.000000, 0.000000)">
                    <g id="Page-1">
                        <mask id="mask-2" fill="white">
                            <use xlink:href="#path-1"></use>
                        </mask>
                        <g id="Clip-2"></g>
                        <path d="M3.6891281,20.6942909 L1.22962397,20.6942909 C0.550698347,20.6942909 -0.000128099174,20.1470182 -0.000128099174,19.4724727 C-0.000128099174,18.8106545 0.550698347,18.2633818 1.22962397,18.2633818 L3.6891281,18.2633818 C4.38086364,18.2633818 4.93169008,18.8106545 4.93169008,19.4724727 C4.93169008,20.1470182 4.38086364,20.6942909 3.6891281,20.6942909 Z M30.7436736,4.87429091 L30.7436736,24.3470182 C30.7436736,27.0324727 28.5390868,27.9997455 25.8131364,27.9997455 L7.39119421,27.9997455 C4.67549174,27.9997455 2.45937603,25.8233818 2.45937603,23.1252 L3.6891281,23.1252 C5.73871488,23.1252 7.39119421,21.4973818 7.39119421,19.4724727 C7.39119421,17.4628364 5.73871488,15.8324727 3.6891281,15.8324727 L2.45937603,15.8324727 L2.45937603,12.1670182 L3.6891281,12.1670182 C5.73871488,12.1670182 7.39119421,10.5379273 7.39119421,8.52701818 C7.39119421,6.50338182 5.73871488,4.87429091 3.6891281,4.87429091 L2.45937603,4.87429091 C2.45937603,2.17610909 4.67549174,-0.000254545455 7.39119421,-0.000254545455 L25.8131364,-0.000254545455 C28.5390868,-0.000254545455 30.7436736,2.17610909 30.7436736,4.87429091 Z M28.2841694,4.87429091 C28.2841694,3.5252 27.1837975,2.43065455 25.8131364,2.43065455 L11.0420207,2.43065455 L11.0420207,25.5688364 L25.8131364,25.5688364 C27.1837975,25.5688364 28.2841694,25.6833818 28.2841694,24.3470182 L28.2841694,4.87429091 Z M1.22962397,9.73610909 L3.6891281,9.73610909 C4.38086364,9.73610909 4.93169008,9.18883636 4.93169008,8.52701818 C4.93169008,7.85247273 4.38086364,7.3052 3.6891281,7.3052 L1.22962397,7.3052 C0.550698347,7.3052 -0.000128099174,7.85247273 -0.000128099174,8.52701818 C-0.000128099174,9.18883636 0.550698347,9.73610909 1.22962397,9.73610909 Z M24.5821033,7.35610909 L14.7312769,7.35610909 C14.0523512,7.35610909 13.5015248,7.90338182 13.5015248,8.57792727 C13.5015248,9.25247273 14.0523512,9.79974545 14.7312769,9.79974545 L24.5821033,9.79974545 C25.2623099,9.79974545 25.8131364,9.25247273 25.8131364,8.57792727 C25.8131364,7.90338182 25.2623099,7.35610909 24.5821033,7.35610909 Z M24.5821033,13.4397455 L14.7312769,13.4397455 C14.0523512,13.4397455 13.5015248,13.9870182 13.5015248,14.6615636 C13.5015248,15.3361091 14.0523512,15.8846545 14.7312769,15.8846545 L24.5821033,15.8846545 C25.2623099,15.8846545 25.8131364,15.3361091 25.8131364,14.6615636 C25.8131364,13.9870182 25.2623099,13.4397455 24.5821033,13.4397455 Z M24.5821033,19.5361091 L14.7312769,19.5361091 C14.0523512,19.5361091 13.5015248,20.0706545 13.5015248,20.7452 C13.5015248,21.4197455 14.0523512,21.9670182 14.7312769,21.9670182 L24.5821033,21.9670182 C25.2623099,21.9670182 25.8131364,21.4197455 25.8131364,20.7452 C25.8131364,20.0706545 25.2623099,19.5361091 24.5821033,19.5361091 Z" id="Fill-1" fill="#58B69E" mask="url(#mask-2)"></path>
                    </g>
                </g>
            </g>
        </g>
    </g>
</svg>