
<svg width="8px" height="11px" viewBox="0 0 8 11" version="1.1" xmlns="http://www.w3.org/2000/svg" xmlns:xlink="http://www.w3.org/1999/xlink">
    <!-- Generator: Sketch 49.3 (51167) - http://www.bohemiancoding.com/sketch -->
    <desc>Created with Sketch.</desc>
    <defs></defs>
    <g id="Desktop-UI" stroke="none" stroke-width="1" fill="none" fill-rule="evenodd">
        <g id="Desktop-1920x1080-(Booking-Widget-)" transform="translate(-320.000000, -194.000000)" fill="#57B69D">
            <g id="Tour-Info" transform="translate(319.000000, 188.000000)">
                <g id="Breadcrumbs" transform="translate(1.000000, 0.000000)">
                    <path d="M8.75995938,8.10992119 C8.51079375,7.92486161 8.13954529,7.97998574 7.95246274,8.22629436 L3.99914586,13.4302748 L0.0483289702,8.22541937 C-0.141670239,7.97867326 -0.514168689,7.92704908 -0.757501009,8.10904621 C-0.909167045,8.21973196 -1,8.4008541 -1,8.59247608 C-1,8.72459899 -0.955833517,8.85409695 -0.87750051,8.95734532 L3.5341478,14.7676912 C3.644564,14.9129389 3.81914661,15 4.00164585,15 C4.18206177,15 4.35497771,14.9129389 4.46497725,14.7681287 L8.87870888,8.95690783 C8.97454182,8.83003483 9.01579165,8.67122484 8.99454174,8.51197735 C8.97329182,8.34879242 8.88954217,8.20616967 8.75995938,8.10992119" id="Arrow" transform="translate(4.000000, 11.500000) rotate(-270.000000) translate(-4.000000, -11.500000) "></path>
                </g>
            </g>
        </g>
    </g>
</svg>