<?xml version="1.0" encoding="iso-8859-1"?>
<!-- Generator: Adobe Illustrator 16.0.0, SVG Export Plug-In . SVG Version: 6.00 Build 0)  -->
<!DOCTYPE svg PUBLIC "-//W3C//DTD SVG 1.1 Tiny//EN" "http://www.w3.org/Graphics/SVG/1.1/DTD/svg11-tiny.dtd">
<svg version="1.1" baseProfile="tiny" id="Layer_1" xmlns="http://www.w3.org/2000/svg" xmlns:xlink="http://www.w3.org/1999/xlink"
	 x="0px" y="0px" width="40px" height="40px" viewBox="0 0 40 40" xml:space="preserve">
<path fill-rule="evenodd" fill="#58B69E" d="M28.53,35.47c-0.89-0.89-1.43-2.11-1.43-3.47s0.54-2.59,1.43-3.48
	c0.9-0.89,2.12-1.44,3.48-1.44c1.36,0,2.58,0.55,3.47,1.44s1.44,2.12,1.44,3.48s-0.55,2.58-1.44,3.47
	c-0.89,0.89-2.11,1.44-3.47,1.44C30.65,36.91,29.43,36.36,28.53,35.47z M36.83,35.9c0.86-1.06,1.38-2.42,1.38-3.9
	c0-3.43-2.77-6.21-6.2-6.21c-3.43,0-6.2,2.78-6.2,6.21c0,3.42,2.77,6.2,6.2,6.2c1.48,0,2.84-0.52,3.9-1.39l2.99,2.99
	c0.25,0.25,0.66,0.25,0.91,0s0.25-0.66,0-0.92L36.83,35.9z M28.86,13.05c-0.75,0.48-1.19,1.31-1.19,2.18l0.01,0.24l0.29,3.22
	l0.01,0.11c0,0.37-0.15,0.73-0.43,0.98l-3.17,2.89c-0.27,0.25-0.57,0.35-0.88,0.35c-0.3,0-0.59-0.1-0.83-0.28
	c-0.23-0.19-0.4-0.44-0.47-0.78l-0.92-4.62c-0.15-0.76-0.63-1.41-1.31-1.78l-1.98-1.08c-0.44-0.24-0.68-0.69-0.68-1.16
	c0-0.29,0.09-0.57,0.28-0.82c0.39-0.48,0.58-1.06,0.58-1.63c0-0.82-0.39-1.64-1.13-2.14L15.86,7.9c-0.46-0.31-0.98-0.46-1.49-0.46
	c-0.93,0-1.84,0.5-2.31,1.4l-0.83,1.58c-0.23,0.44-0.68,0.71-1.17,0.71h-2.5c-0.6,0-1.12-0.41-1.27-0.99l-0.58-2.2
	C9.16,3.88,14.28,1.29,20,1.29c6.15,0,11.6,2.99,15.03,7.58L28.86,13.05z M4.18,24.56c0.22-0.46,0.54-0.81,0.93-1.06
	c0.39-0.24,0.84-0.37,1.28-0.37c0.67,0.01,1.29,0.26,1.79,0.82c0.72,0.82,1.75,1.27,2.8,1.27h1.45c0.68,0,1.29,0.27,1.73,0.71
	c0.44,0.45,0.7,1.05,0.7,1.71l-0.01,0.25l-0.19,1.83c-0.15,1.57-1.05,2.97-2.4,3.78l-3.02,1.8c-2.76-1.98-4.99-4.7-6.37-7.84
	L4.18,24.56z M36.48,8.66C32.86,3.44,26.83,0,20,0C13.77,0,8.2,2.87,4.52,7.34v0.01L4.51,7.36L4.5,7.37
	C4.47,7.41,4.45,7.44,4.43,7.48C1.65,10.91,0,15.27,0,19.97c0,2.53,0.44,4.93,1.33,7.15c0.01,0.06,0.03,0.11,0.05,0.16
	c0.04,0.07,0.08,0.21,0.16,0.39c0.02,0.05,0.04,0.11,0.08,0.16c1.51,3.54,4.03,6.57,7.17,8.74l0.08,0.06C12.04,38.75,15.88,40,20,40
	c1.01,0,2.01-0.08,2.97-0.24c0.35-0.06,0.59-0.39,0.53-0.74s-0.39-0.59-0.74-0.53c-0.89,0.15-1.81,0.22-2.76,0.22
	c-3.5,0-6.77-0.96-9.56-2.62l2.48-1.48c1.71-1.02,2.83-2.79,3.03-4.76l0.18-1.83c0.02-0.13,0.02-0.25,0.02-0.38
	c0-1.01-0.41-1.94-1.08-2.61c-0.67-0.68-1.6-1.1-2.64-1.1h-1.45c-0.69,0-1.36-0.29-1.82-0.82c-0.74-0.85-1.76-1.27-2.77-1.27
	c-0.69,0-1.37,0.2-1.96,0.57c-0.6,0.37-1.1,0.92-1.42,1.61v0.01l-0.8,1.75c-0.61-1.82-0.92-3.76-0.92-5.81
	c0-3.97,1.26-7.69,3.43-10.73l0.32,1.23c0.3,1.15,1.34,1.95,2.52,1.95h2.5c0.98,0,1.87-0.54,2.32-1.4l0.82-1.58
	c0.24-0.46,0.7-0.71,1.17-0.71c0.26,0,0.52,0.07,0.75,0.24l1.19,0.82c0.37,0.26,0.57,0.66,0.57,1.08c0,0.29-0.1,0.58-0.29,0.83
	c-0.39,0.48-0.58,1.06-0.58,1.62c0,0.91,0.49,1.82,1.36,2.29l1.98,1.08c0.34,0.19,0.59,0.52,0.66,0.9l0.92,4.62
	c0.13,0.65,0.49,1.18,0.95,1.54c0.46,0.37,1.03,0.56,1.62,0.56c0.61,0,1.24-0.22,1.75-0.68l3.17-2.9c0.54-0.5,0.85-1.2,0.85-1.92
	l-0.01-0.24l-0.29-3.22l-0.01-0.12c0-0.44,0.23-0.86,0.61-1.11h0.01l6.19-4.19c1.86,2.91,2.94,6.36,2.94,10.04
	c0,0.95-0.07,1.87-0.22,2.76l-0.01,0.11v0.02c0,0.36,0.29,0.65,0.64,0.65c0.34,0,0.61-0.26,0.64-0.58c0.16-0.96,0.24-1.95,0.24-2.96
	c0-4.18-1.31-8.08-3.52-11.3V8.66z"/>
</svg>
