
<svg width="50px" height="44px" viewBox="0 0 50 44" version="1.1" xmlns="http://www.w3.org/2000/svg" xmlns:xlink="http://www.w3.org/1999/xlink">
    <!-- Generator: Sketch 49.3 (51167) - http://www.bohemiancoding.com/sketch -->
    <desc>Created with Sketch.</desc>
    <defs>
        <polygon id="path-1" points="0 1.00674286 49.2618421 1.00674286 49.2618421 44.6854514 0 44.6854514"></polygon>
    </defs>
    <g id="Success-DT-and-M" stroke="none" stroke-width="1" fill="none" fill-rule="evenodd">
        <g id="Desktop---Success-02-WOWO" transform="translate(-211.000000, -786.000000)">
            <g id="What-happens-next" transform="translate(160.000000, 497.000000)">
                <g id="important-notes" transform="translate(51.000000, 288.000000)">
                    <g id="Page-1">
                        <g id="Group-3" transform="translate(0.000000, 0.307411)">
                            <mask id="mask-2" fill="white">
                                <use xlink:href="#path-1"></use>
                            </mask>
                            <g id="Clip-2"></g>
                            <path d="M0,18.8755086 C0,26.3261943 4.42105263,32.8673943 11.0789474,35.5445943 L11.0789474,42.7863086 C11.0789474,43.84168 11.8947368,44.6854514 12.9078947,44.6854514 C13.3815789,44.6854514 13.8552632,44.4751657 14.1973684,44.1281943 L21.3289474,36.7432229 L31.9986842,36.7432229 C41.5118421,36.7432229 49.2618421,28.71688 49.2618421,18.8755086 C49.2618421,9.02493714 41.5118421,1.00648 31.9986842,1.00648 L17.2631579,1.00648 C7.75,1.00648 0,9.02493714 0,18.8755086 M2.03947368,18.8755086 C2.03947368,10.1460229 8.82894737,3.11722286 17.1842105,3.18425143 L31.9342105,3.18425143 C40.3539474,3.18425143 47.1565789,10.2905943 47.1565789,18.9425371 C47.1565789,27.6601943 40.2894737,34.7008229 31.9342105,34.7008229 L20.9210526,34.7008229 C20.6578947,34.7008229 20.3815789,34.7665371 20.1842105,34.9768229 L13.1184211,42.29608 L13.1184211,34.7665371 C13.1184211,34.3459657 12.8421053,33.9253943 12.4342105,33.7781943 C6.25,31.6687657 2.03947368,25.6283086 2.03947368,18.8755086" id="Fill-1" fill="#58B69E" mask="url(#mask-2)"></path>
                        </g>
                        <path d="M24.6318421,22.6682743 C25.3594737,22.6682743 25.9476316,22.0807886 25.9476316,21.3539886 L25.9476316,11.1012457 C25.9476316,10.37576 25.3594737,9.78696 24.6318421,9.78696 C23.9042105,9.78696 23.3160526,10.37576 23.3160526,11.1012457 L23.3160526,21.3539886 C23.3160526,22.0807886 23.9042105,22.6682743 24.6318421,22.6682743" id="Fill-4" fill="#58B69E"></path>
                        <path d="M24.6318421,25.0105943 C23.5410526,25.0105943 22.6581579,25.8911657 22.6581579,26.9807086 C22.6581579,28.0689371 23.5410526,28.9508229 24.6318421,28.9508229 C25.7213158,28.9508229 26.6055263,28.0689371 26.6055263,26.9807086 C26.6055263,25.8911657 25.7213158,25.0105943 24.6318421,25.0105943" id="Fill-6" fill="#58B69E"></path>
                    </g>
                </g>
            </g>
        </g>
    </g>
</svg>