<?xml version="1.0" encoding="iso-8859-1"?>
<!-- Generator: Adobe Illustrator 16.0.0, SVG Export Plug-In . SVG Version: 6.00 Build 0)  -->
<!DOCTYPE svg PUBLIC "-//W3C//DTD SVG 1.1 Tiny//EN" "http://www.w3.org/Graphics/SVG/1.1/DTD/svg11-tiny.dtd">
<svg version="1.1" baseProfile="tiny" id="Layer_1" xmlns="http://www.w3.org/2000/svg" xmlns:xlink="http://www.w3.org/1999/xlink"
	 x="0px" y="0px" width="16.002px" height="16.002px" viewBox="0 0 16.002 16.002" xml:space="preserve">
<path fill-rule="evenodd" fill="#FFFFFF" d="M4,12.002c-1.1,0-2,0.9-2,2s0.9,2,2,2s2-0.9,2-2S5.1,12.002,4,12.002z M13,12.002
	c-1.1,0-2,0.9-2,2s0.9,2,2,2s2-0.9,2-2S14.1,12.002,13,12.002z M0.05,3.322l2,6c0.14,0.4,0.52,0.68,0.95,0.68h9
	c0.42,0,0.79-0.26,0.94-0.65l3-8c0.19-0.52-0.07-1.09-0.59-1.29c-0.52-0.19-1.09,0.07-1.29,0.59l-0.5,1.35H5.55c-0.55,0-1,0.45-1,1
	s0.45,1,1,1h7.26l-1.5,4H3.72l-1.77-5.32c-0.18-0.52-0.74-0.81-1.27-0.63C0.16,2.232-0.12,2.792,0.05,3.322z"/>
</svg>
