<?xml version="1.0" encoding="iso-8859-1"?>
<!-- Generator: Adobe Illustrator 16.0.0, SVG Export Plug-In . SVG Version: 6.00 Build 0)  -->
<!DOCTYPE svg PUBLIC "-//W3C//DTD SVG 1.1 Tiny//EN" "http://www.w3.org/Graphics/SVG/1.1/DTD/svg11-tiny.dtd">
<svg version="1.1" baseProfile="tiny" id="Layer_1" xmlns="http://www.w3.org/2000/svg" xmlns:xlink="http://www.w3.org/1999/xlink"
	 x="0px" y="0px" width="28px" height="24px" viewBox="0 0 28 24" xml:space="preserve">
<path fill-rule="evenodd" fill="#FFFFFF" d="M13.45,22.64c-0.63,0-1.13-0.54-1.13-1.2c0-0.65,0.5-1.19,1.13-1.19
	c0.62,0,1.13,0.54,1.13,1.19C14.58,22.1,14.07,22.64,13.45,22.64z M13.45,18.89c-1.34,0-2.42,1.14-2.42,2.55
	c0,1.42,1.08,2.56,2.42,2.56c1.33,0,2.41-1.14,2.41-2.56C15.86,20.03,14.78,18.89,13.45,18.89z"/>
<path fill-rule="evenodd" fill="#FFFFFF" d="M21.34,22.64c-0.62,0-1.13-0.54-1.13-1.2c0-0.65,0.51-1.19,1.13-1.19
	c0.62,0,1.13,0.54,1.13,1.19C22.47,22.1,21.96,22.64,21.34,22.64z M21.34,18.89c-1.33,0-2.42,1.14-2.42,2.55
	c0,1.42,1.09,2.56,2.42,2.56c1.34,0,2.42-1.14,2.42-2.56C23.76,20.03,22.68,18.89,21.34,18.89z"/>
<path fill-rule="evenodd" fill="#FFFFFF" d="M23.36,14.43H11.53L8.85,5.14h17.19L23.36,14.43z M28,4.28V4.22V4.19l-0.01-0.05
	l-0.01-0.03l-0.01-0.04l-0.01-0.04V4.01c-0.03-0.07-0.06-0.14-0.1-0.2l-0.04-0.05l-0.01-0.02c-0.05-0.06-0.11-0.11-0.17-0.16
	l-0.01-0.01l-0.04-0.02l-0.03-0.02l-0.03-0.01l-0.05-0.03h-0.02L27.4,3.46h-0.02l-0.06-0.02h-0.04l-0.04-0.01h-0.06h-0.02h-0.01
	h-0.01H8.36L7.55,0.62L7.52,0.55V0.53L7.49,0.48L7.48,0.45L7.46,0.42L7.44,0.38L7.43,0.37C7.39,0.3,7.33,0.24,7.27,0.2L7.25,0.18
	L7.21,0.15C7.15,0.1,7.08,0.07,7,0.04H6.99L6.95,0.03L6.91,0.02L6.88,0.01L6.83,0H6.81H6.74h-5.9C0.38,0,0,0.38,0,0.86
	c0,0.47,0.38,0.85,0.84,0.85h5.27l3.99,13.82l0.01,0.04l0.02,0.04l0.01,0.03l0.02,0.04l0.01,0.02l0.03,0.05l0.01,0.02l0.04,0.06
	l0.06,0.06l0,0l0.05,0.05l0.02,0.02l0.04,0.03L10.45,16l0.03,0.03l0.03,0.01l0.05,0.02l0.03,0.02l0.06,0.02l0.02,0.01l0.05,0.01
	l0.03,0.01l0.06,0.01h0.01h0.08h13.08h0.08h0.02l0.06-0.01l0.03-0.01l0.04-0.01l0.03-0.01l0.05-0.02l0.04-0.02l0.05-0.02l0.02-0.01
	L24.44,16l0.03-0.01l0.04-0.03l0.02-0.02l0.04-0.04l0.01-0.01l0.05-0.06l0.05-0.06l0.01-0.02l0.03-0.05l0.01-0.02l0.02-0.04
	l0.01-0.03l0.02-0.04l0.01-0.04l3.17-10.99l0,0l0.01-0.01V4.51l0.01-0.06l0.01-0.04L28,4.37V4.31V4.29V4.28z"/>
</svg>
