
<svg width="100px" height="100px" viewBox="0 0 100 100" version="1.1" xmlns="http://www.w3.org/2000/svg" xmlns:xlink="http://www.w3.org/1999/xlink">
    <!-- Generator: Sketch 49.3 (51167) - http://www.bohemiancoding.com/sketch -->
    <desc>Created with Sketch.</desc>
    <defs></defs>
    <g id="Success-DT-and-M" stroke="none" stroke-width="1" fill="none" fill-rule="evenodd">
        <g id="Desktop---Success-02-WOWO" transform="translate(-200.000000, -273.000000)" fill="#58B69E">
            <g id="Booked" transform="translate(160.000000, 273.000000)">
                <g id="checkmark" transform="translate(40.000000, 0.000000)">
                    <path d="M41.7206028,66.5675048 C41.3991931,66.1389587 41.1849201,65.7818369 40.9349348,65.5318516 L29.3999004,53.1754371 C28.328535,51.9969351 27.0428965,51.782662 26.1143798,52.6397544 C25.1858631,53.4611345 25.2215753,54.746773 26.2572285,55.8538506 C30.7926755,60.7107072 35.3281224,65.5675638 39.8992816,70.4244204 C41.2563444,71.8171954 42.363422,71.7814832 43.6847727,70.3887082 L73.3973071,38.6405795 C74.7186577,37.1763801 74.9329308,35.9978782 73.9687019,35.1050736 C72.9687609,34.1051326 71.7902589,34.3551178 70.3974839,35.8193173 L42.6134073,65.4961394 C42.3277098,65.7818369 42.1134368,66.0675343 41.7206028,66.5675048 Z M4.0799643,49.8899165 C4.43708611,24.2128585 24.6501804,4.28546169 49.86298,4.17832514 C75.0757796,4.0711886 95.8602687,24.0700098 95.8602687,50.0327652 C95.8602687,76.2097936 74.6115212,96.0300539 49.6844191,95.851493 C25.1108675,95.6729321 4.29423738,76.0669449 4.0799643,49.8899165 Z M50.0379697,0 C21.5039373,0.178560904 -0.387629508,23.2843418 0.00520447947,50.7112966 C0.433750648,78.5667976 23.1109854,100.172667 50.2879549,99.994106 C78.0720315,99.8155451 100.142159,77.2811591 99.9993105,49.8899165 C99.8564617,21.7844302 77.2506514,0.107136542 50.0379697,0 Z" id="Shape"></path>
                </g>
            </g>
        </g>
    </g>
</svg>