
<svg width="38px" height="32px" viewBox="0 0 38 32" version="1.1" xmlns="http://www.w3.org/2000/svg" xmlns:xlink="http://www.w3.org/1999/xlink">
    <!-- Generator: Sketch 49.3 (51167) - http://www.bohemiancoding.com/sketch -->
    <desc>Created with Sketch.</desc>
    <defs>
        <polygon id="path-1" points="0.000533333333 0 37.3333333 0 37.3333333 31.9996 0.000533333333 31.9996"></polygon>
    </defs>
    <g id="Desktop-UI" stroke="none" stroke-width="1" fill="none" fill-rule="evenodd">
        <g id="Desktop-1920x1080-(Checkout)" transform="translate(-320.000000, -206.000000)">
            <g id="Checkout" transform="translate(320.000000, 206.000000)">
                <g id="Page-1">
                    <mask id="mask-2" fill="white">
                        <use xlink:href="#path-1"></use>
                    </mask>
                    <g id="Clip-2"></g>
                    <path d="M31.1458667,19.2396 L15.3725333,19.2396 L11.8005333,6.85293333 L34.7205333,6.85293333 L31.1458667,19.2396 Z M37.3205333,5.5196 L37.3072,5.4796 L37.2938667,5.42626667 L37.2805333,5.37293333 L37.2805333,5.3476 C37.2392,5.25293333 37.2005333,5.1596 37.1458667,5.0796 L37.0938667,5.01426667 L37.0805333,4.98626667 C37.0125333,4.90626667 36.9338667,4.8396 36.8538667,4.77293333 L36.8405333,4.7596 L36.7858667,4.73293333 L36.7472,4.70626667 L36.7058667,4.69293333 L36.6405333,4.65293333 L36.6138667,4.65293333 L36.5338667,4.61293333 L36.5072,4.61293333 L36.4272,4.58626667 L36.3725333,4.58626667 L36.3205333,4.57293333 L11.1458667,4.57293333 L10.0658667,0.826266667 L10.0272,0.732933333 L10.0272,0.706266667 L9.9872,0.6396 L9.97386667,0.600933333 L9.9472,0.5596 L9.92053333,0.506266667 L9.9072,0.492933333 C9.85386667,0.3996 9.77386667,0.3196 9.69386667,0.2676 L9.6672,0.2396 L9.61386667,0.1996 C9.53386667,0.132933333 9.44053333,0.0929333333 9.33386667,0.0529333333 L9.32053333,0.0529333333 L9.2672,0.0396 L9.21386667,0.0262666667 L9.17386667,0.0142666667 L9.1072,-0.0004 L1.1192,-0.0004 C0.5072,-0.0004 0.000533333333,0.506266667 0.000533333333,1.14626667 C0.000533333333,1.77293333 0.5072,2.2796 1.1192,2.2796 L8.14586667,2.2796 L13.4672,20.7062667 L13.4792,20.7609333 L13.5072,20.8129333 L13.5205333,20.8542667 L13.5472,20.9062667 L13.5605333,20.9342667 L13.6005333,20.9996 L13.6138667,21.0262667 L13.6672,21.1062667 L13.7472,21.1876 L13.8125333,21.2529333 L13.8405333,21.2796 L13.8938667,21.3209333 L13.9338667,21.3329333 L13.9738667,21.3729333 L14.0125333,21.3862667 L14.0805333,21.4142667 L14.1192,21.4396 L14.2005333,21.4662667 L14.2272,21.4796 L14.2938667,21.4929333 L14.3338667,21.5062667 L14.4138667,21.5209333 L32.1072,21.5209333 L32.1872,21.5062667 L32.2272,21.4929333 L32.2805333,21.4796 L32.3205333,21.4662667 L32.3872,21.4396 L32.4405333,21.4142667 L32.5072,21.3862667 L32.5338667,21.3729333 L32.5858667,21.3329333 L32.6272,21.3209333 L32.6792,21.2796 L32.7058667,21.2529333 L32.7605333,21.2009333 L32.7738667,21.1876 L32.9058667,21.0262667 L32.9192,20.9996 L32.9605333,20.9342667 L32.9738667,20.9062667 L33.0005333,20.8542667 L33.0125333,20.8129333 L33.0392,20.7609333 L33.0538667,20.7062667 L37.2805333,6.05293333 L37.2938667,6.0396 L37.2938667,6.01426667 L37.3072,5.93426667 L37.3338667,5.82626667 L37.3338667,5.58626667 L37.3205333,5.5196 Z M17.9338667,30.1876 C17.0925333,30.1876 16.4258667,29.4662667 16.4258667,28.5862667 C16.4258667,27.7196 17.0925333,26.9996 17.9338667,26.9996 C18.7592,26.9996 19.4405333,27.7196 19.4405333,28.5862667 C19.4405333,29.4662667 18.7592,30.1876 17.9338667,30.1876 Z M17.9338667,25.1876 C16.1458667,25.1876 14.7058667,26.7062667 14.7058667,28.5862667 C14.7058667,30.4796 16.1458667,31.9996 17.9338667,31.9996 C19.7058667,31.9996 21.1458667,30.4796 21.1458667,28.5862667 C21.1458667,26.7062667 19.7058667,25.1876 17.9338667,25.1876 Z M28.4525333,30.1876 C27.6272,30.1876 26.9472,29.4662667 26.9472,28.5862667 C26.9472,27.7196 27.6272,26.9996 28.4525333,26.9996 C29.2805333,26.9996 29.9605333,27.7196 29.9605333,28.5862667 C29.9605333,29.4662667 29.2805333,30.1876 28.4525333,30.1876 Z M28.4525333,25.1876 C26.6792,25.1876 25.2272,26.7062667 25.2272,28.5862667 C25.2272,30.4796 26.6792,31.9996 28.4525333,31.9996 C30.2392,31.9996 31.6792,30.4796 31.6792,28.5862667 C31.6792,26.7062667 30.2392,25.1876 28.4525333,25.1876 Z" id="Fill-1" fill="#58B69E" mask="url(#mask-2)"></path>
                </g>
            </g>
        </g>
    </g>
</svg>