<?xml version="1.0" encoding="iso-8859-1"?>
<!-- Generator: Adobe Illustrator 16.0.0, SVG Export Plug-In . SVG Version: 6.00 Build 0)  -->
<!DOCTYPE svg PUBLIC "-//W3C//DTD SVG 1.1 Tiny//EN" "http://www.w3.org/Graphics/SVG/1.1/DTD/svg11-tiny.dtd">
<svg version="1.1" baseProfile="tiny" id="Layer_1" xmlns="http://www.w3.org/2000/svg" xmlns:xlink="http://www.w3.org/1999/xlink"
	 x="0px" y="0px" width="28.001px" height="28px" viewBox="0 0 28.001 28" xml:space="preserve">
<path fill-rule="evenodd" fill="#58B69E" d="M11.682,18.64c-0.09-0.12-0.15-0.22-0.22-0.29l-3.23-3.46
	c-0.3-0.33-0.66-0.39-0.92-0.15c-0.26,0.23-0.25,0.59,0.04,0.9c1.27,1.36,2.54,2.72,3.82,4.08c0.38,0.39,0.69,0.38,1.06-0.01
	l8.32-8.89c0.37-0.41,0.43-0.74,0.16-0.99c-0.28-0.28-0.61-0.21-1,0.2l-7.78,8.31C11.852,18.42,11.792,18.5,11.682,18.64z
	 M1.142,13.97c0.1-7.19,5.76-12.77,12.82-12.8c7.06-0.03,12.88,5.57,12.88,12.84c0,7.33-5.95,12.88-12.93,12.83
	C7.031,26.79,1.202,21.3,1.142,13.97z M14.011,0c-7.99,0.05-14.12,6.52-14.01,14.2c0.12,7.8,6.47,13.85,14.08,13.8
	c7.78-0.05,13.96-6.36,13.92-14.03C27.961,6.1,21.631,0.03,14.011,0z"/>
</svg>
