<?xml version="1.0" encoding="iso-8859-1"?>
<!-- Generator: Adobe Illustrator 16.0.0, SVG Export Plug-In . SVG Version: 6.00 Build 0)  -->
<!DOCTYPE svg PUBLIC "-//W3C//DTD SVG 1.1 Tiny//EN" "http://www.w3.org/Graphics/SVG/1.1/DTD/svg11-tiny.dtd">
<svg version="1.1" baseProfile="tiny" id="Layer_1" xmlns="http://www.w3.org/2000/svg" xmlns:xlink="http://www.w3.org/1999/xlink"
	 x="0px" y="0px" width="30px" height="30px" viewBox="0 0 30 30" xml:space="preserve">
<path fill-rule="evenodd" fill="#3AB977" d="M13.11,20.23l-5.19-5.19c-0.26-0.26-0.26-0.68,0-0.95c0.26-0.26,0.69-0.26,0.95,0
	l4.24,4.24l8.35-8.36c0.271-0.26,0.689-0.26,0.95,0c0.271,0.26,0.271,0.69,0,0.95L13.11,20.23z M15,1.34
	C7.47,1.34,1.34,7.47,1.34,15c0,7.53,6.13,13.66,13.66,13.66c7.53,0,13.66-6.13,13.66-13.66C28.66,7.47,22.53,1.34,15,1.34z M15,30
	C6.73,30,0,23.271,0,15C0,6.73,6.73,0,15,0c8.27,0,15,6.73,15,15C30,23.271,23.27,30,15,30z"/>
</svg>
