
<svg width="44px" height="43px" viewBox="0 0 44 43" version="1.1" xmlns="http://www.w3.org/2000/svg" xmlns:xlink="http://www.w3.org/1999/xlink">
    <!-- Generator: Sketch 49.3 (51167) - http://www.bohemiancoding.com/sketch -->
    <desc>Created with Sketch.</desc>
    <defs>
        <polygon id="path-1" points="0 43.9994054 43.0474595 43.9994054 43.0474595 1.18859459 0 1.18859459"></polygon>
    </defs>
    <g id="Success-DT-and-M" stroke="none" stroke-width="1" fill="none" fill-rule="evenodd">
        <g id="Desktop---Success-01" transform="translate(-479.000000, -1775.000000)">
            <g id="Extras" transform="translate(160.000000, 1774.000000)">
                <g id="Cities">
                    <g id="cities-icon" transform="translate(319.000000, 0.000000)">
                        <g id="Page-1">
                            <path d="M1.80174054,4.7451027 C1.94444324,4.55483243 2.18109189,4.46088649 2.46530811,4.46088649 L8.01406486,4.46088649 C8.53374054,4.46088649 8.91309189,4.88661622 8.91309189,5.40985946 C8.91309189,5.64531892 9.00822703,5.88315676 9.19730811,6.07223784 C9.34001081,6.26131892 9.57665946,6.35645405 9.86087568,6.35645405 L13.892227,6.35645405 C14.4119027,6.35645405 14.7912541,6.78337297 14.7912541,7.30542703 C14.7912541,7.82629189 14.3643351,8.25321081 13.892227,8.25321081 L7.87136216,8.25321081 C7.34930811,8.25321081 6.96876757,7.82629189 6.96876757,7.30542703 C6.96876757,6.78337297 6.54303784,6.35645405 6.06736216,6.35645405 L2.46530811,6.35645405 C1.94444324,6.35645405 1.5639027,5.93072432 1.5639027,5.40985946 C1.5639027,5.17083243 1.65903784,4.93418378 1.80174054,4.7451027 M2.46530811,7.82629189 L5.59406486,7.82629189 C5.83071351,8.91677838 6.78087568,9.72304865 7.87136216,9.72304865 L13.7959027,9.72304865 C15.0754703,9.72304865 16.1671459,8.63256216 16.1671459,7.35180541 C16.1671459,6.02467027 15.1230378,4.98175135 13.7959027,4.98175135 L10.240227,4.98175135 C10.0035784,3.89126486 9.05579459,3.08499459 7.96530811,3.08499459 L2.46530811,3.08499459 C1.18336216,3.08499459 0.0952540541,4.17548108 0.0952540541,5.45623784 C0.0952540541,6.73699459 1.13698378,7.82629189 2.46530811,7.82629189" id="Fill-1" fill="#58B69E"></path>
                            <path d="M17.6845514,19.7743135 C18.0639027,19.7743135 18.3956865,19.4889081 18.3956865,19.0619892 L18.3956865,16.3125838 C18.3956865,15.9332324 18.0639027,15.6014486 17.6845514,15.6014486 C17.3052,15.6014486 16.972227,15.8856649 16.972227,16.3125838 L16.972227,19.0619892 C16.9246595,19.4413405 17.2576324,19.7743135 17.6845514,19.7743135" id="Fill-3" fill="#58B69E"></path>
                            <path d="M17.6845514,26.6469946 C18.0639027,26.6469946 18.3956865,26.3639676 18.3956865,25.9358595 L18.3956865,23.1876432 C18.3956865,22.8071027 18.0639027,22.4765081 17.6845514,22.4765081 C17.3052,22.4765081 16.972227,22.7607243 16.972227,23.1876432 L16.972227,25.9358595 C16.9246595,26.3639676 17.2576324,26.6469946 17.6845514,26.6469946" id="Fill-5" fill="#58B69E"></path>
                            <path d="M17.6845514,33.5220541 C18.0639027,33.5220541 18.3956865,33.239027 18.3956865,32.8109189 L18.3956865,30.0615135 C18.3956865,29.6821622 18.0639027,29.3503784 17.6845514,29.3503784 C17.3052,29.3503784 16.972227,29.6334054 16.972227,30.0615135 L16.972227,32.8109189 C16.9246595,33.239027 17.2576324,33.5220541 17.6845514,33.5220541" id="Fill-7" fill="#58B69E"></path>
                            <path d="M17.6845514,40.4434919 C18.0639027,40.4434919 18.3956865,40.1580865 18.3956865,39.7323568 L18.3956865,36.9829514 C18.3956865,36.6036 18.0639027,36.2694378 17.6845514,36.2694378 C17.3052,36.2694378 16.972227,36.5572216 16.972227,36.9829514 L16.972227,39.7323568 C16.9246595,40.1117081 17.2576324,40.4434919 17.6845514,40.4434919" id="Fill-9" fill="#58B69E"></path>
                            <path d="M24.5572324,26.6469946 C24.9365838,26.6469946 25.2683676,26.3639676 25.2683676,25.9358595 L25.2683676,23.1876432 C25.2683676,22.8071027 24.9365838,22.4765081 24.5572324,22.4765081 C24.1790703,22.4765081 23.8460973,22.7607243 23.8460973,23.1876432 L23.8460973,25.9358595 C23.7997189,26.3639676 24.1315027,26.6469946 24.5572324,26.6469946" id="Fill-11" fill="#58B69E"></path>
                            <path d="M24.5572324,33.5220541 C24.9365838,33.5220541 25.2683676,33.239027 25.2683676,32.8109189 L25.2683676,30.0615135 C25.2683676,29.6821622 24.9365838,29.3503784 24.5572324,29.3503784 C24.1790703,29.3503784 23.8460973,29.6334054 23.8460973,30.0615135 L23.8460973,32.8109189 C23.7997189,33.239027 24.1315027,33.5220541 24.5572324,33.5220541" id="Fill-13" fill="#58B69E"></path>
                            <path d="M24.5572324,40.4434919 C24.9365838,40.4434919 25.2683676,40.1580865 25.2683676,39.7323568 L25.2683676,36.9829514 C25.2683676,36.6036 24.9365838,36.2694378 24.5572324,36.2694378 C24.1790703,36.2694378 23.8460973,36.5572216 23.8460973,36.9829514 L23.8460973,39.7323568 C23.7997189,40.1117081 24.1315027,40.4434919 24.5572324,40.4434919" id="Fill-15" fill="#58B69E"></path>
                            <path d="M21.0976432,19.7743135 C21.4758054,19.7743135 21.8087784,19.4889081 21.8087784,19.0619892 L21.8087784,16.3125838 C21.8087784,15.9332324 21.4758054,15.6014486 21.0976432,15.6014486 C20.7171027,15.6014486 20.3853189,15.8856649 20.3853189,16.3125838 L20.3853189,19.0619892 C20.3853189,19.4413405 20.7171027,19.7743135 21.0976432,19.7743135" id="Fill-17" fill="#58B69E"></path>
                            <path d="M21.0976432,26.6469946 C21.4758054,26.6469946 21.8087784,26.3639676 21.8087784,25.9358595 L21.8087784,23.1876432 C21.8087784,22.8071027 21.4758054,22.4765081 21.0976432,22.4765081 C20.7171027,22.4765081 20.3853189,22.7607243 20.3853189,23.1876432 L20.3853189,25.9358595 C20.3853189,26.3639676 20.7171027,26.6469946 21.0976432,26.6469946" id="Fill-19" fill="#58B69E"></path>
                            <path d="M21.0976432,33.5220541 C21.4758054,33.5220541 21.8087784,33.239027 21.8087784,32.8109189 L21.8087784,30.0615135 C21.8087784,29.6821622 21.4758054,29.3503784 21.0976432,29.3503784 C20.7171027,29.3503784 20.3853189,29.6334054 20.3853189,30.0615135 L20.3853189,32.8109189 C20.3853189,33.239027 20.7171027,33.5220541 21.0976432,33.5220541" id="Fill-21" fill="#58B69E"></path>
                            <path d="M21.0976432,40.4434919 C21.4758054,40.4434919 21.8087784,40.1580865 21.8087784,39.7323568 L21.8087784,36.9829514 C21.8087784,36.6036 21.4758054,36.2694378 21.0976432,36.2694378 C20.7171027,36.2694378 20.3853189,36.5572216 20.3853189,36.9829514 L20.3853189,39.7323568 C20.3853189,40.1117081 20.7171027,40.4434919 21.0976432,40.4434919" id="Fill-23" fill="#58B69E"></path>
                            <mask id="mask-2" fill="white">
                                <use xlink:href="#path-1"></use>
                            </mask>
                            <g id="Clip-26"></g>
                            <path d="M10.4767568,42.5319459 L13.5591351,42.5319459 L13.5591351,33.9959459 L10.4767568,33.9959459 L10.4767568,42.5319459 Z M5.92454054,42.5319459 L9.00810811,42.5319459 L9.00810811,33.9959459 L5.92454054,33.9959459 L5.92454054,42.5319459 Z M1.42108108,42.5319459 L4.50345946,42.5319459 L4.50345946,33.9959459 L1.42108108,33.9959459 L1.42108108,42.5319459 Z M6.78075676,27.2651351 C6.96864865,27.2651351 7.11135135,27.2187568 7.25405405,27.2187568 C7.30043243,27.2187568 7.39556757,27.2651351 7.4907027,27.2651351 C7.58464865,27.2651351 7.63340541,27.2651351 7.72972973,27.2187568 C7.87124324,27.2187568 8.06032432,27.2187568 8.20183784,27.2651351 C10.9500541,27.5945405 13.180973,29.7778919 13.5115676,32.5748649 L9.76562162,32.5748649 L5.26216216,32.5748649 L1.46864865,32.5748649 C1.80162162,29.7778919 3.98378378,27.5945405 6.78075676,27.2651351 Z M41.3897297,42.5319459 L28.9187027,42.5319459 L28.9187027,28.734973 L41.3897297,23.0447027 L41.3897297,42.5319459 Z M14.9802162,13.6096757 L27.4512432,13.6096757 L27.4512432,15.6491351 L25.0788108,15.6491351 C23.0892973,15.6491351 22.5684324,17.1665405 22.5684324,18.0667568 C22.5684324,19.3938919 23.6577297,20.5331351 24.9848649,20.5331351 L27.4036757,20.5331351 L27.4036757,28.2616757 L27.4036757,42.5319459 L14.9802162,42.5319459 L14.9802162,33.2848108 L14.9802162,13.6096757 Z M18.6322162,12.1885946 L23.8004324,12.1885946 L23.8004324,8.15843243 L18.6322162,8.15843243 L18.6322162,12.1885946 Z M28.9187027,17.0714054 L30.4372973,17.0714054 C30.9581622,17.0714054 31.4326486,16.6456757 31.4326486,16.0760541 C31.4326486,15.554 31.8607568,15.0807027 32.4291892,15.0807027 L40.6774054,15.0807027 C41.2006486,15.0807027 41.6739459,15.5064324 41.6739459,16.0760541 L41.6739459,16.1236216 C41.6739459,16.6456757 41.2482162,17.118973 40.6774054,17.118973 L35.7945946,17.118973 C35.2725405,17.118973 34.7980541,17.5458919 34.7980541,18.1143243 C34.7980541,18.6351892 34.3711351,19.1096757 33.8027027,19.1096757 L28.9187027,19.1096757 L28.1623784,19.1096757 L27.4512432,19.1096757 L25.1739459,19.1096757 L25.0312432,19.1096757 C24.5103784,19.1096757 24.0358919,18.5888108 24.0358919,18.0667568 C24.0358919,17.5458919 24.4628108,17.0714054 25.0312432,17.0714054 L25.2678919,17.0714054 L27.4976216,17.0714054 L28.1623784,17.0714054 L28.9187027,17.0714054 Z M33.8502703,20.5331351 C35.0347027,20.5331351 36.0312432,19.6792973 36.2215135,18.5888108 L40.6298378,18.5888108 C41.9581622,18.5888108 43.0474595,17.4983243 43.0474595,16.1711892 L43.0474595,16.1236216 C43.0474595,14.7952973 41.9581622,13.706 40.6298378,13.706 L32.3804324,13.706 C31.1948108,13.706 30.1994595,14.5586486 30.0091892,15.6491351 L28.9187027,15.6491351 L28.9187027,12.8997297 C28.9187027,12.5203784 28.5881081,12.1885946 28.2087568,12.1885946 L25.2678919,12.1885946 L25.2678919,7.4472973 C25.2678919,7.06794595 24.9372973,6.73735135 24.5567568,6.73735135 L21.9500541,6.73735135 L21.9500541,1.90091892 C21.9500541,1.52156757 21.6194595,1.18859459 21.2389189,1.18859459 C20.8607568,1.18859459 20.5277838,1.52156757 20.5277838,1.90091892 L20.5277838,6.73735135 L17.9210811,6.73735135 C17.5429189,6.73735135 17.2111351,7.06794595 17.2111351,7.4472973 L17.2111351,12.1885946 L14.2702703,12.1885946 C13.8921081,12.1885946 13.5591351,12.5203784 13.5591351,12.8997297 L13.5591351,28.8764865 C12.3259459,27.17 10.4303784,26.0319459 8.20183784,25.8404865 L8.20183784,22.7129189 L8.20183784,22.0017838 L8.20183784,21.3845946 C8.20183784,21.0076216 7.87124324,20.6746486 7.4907027,20.6746486 C7.11135135,20.6746486 6.78075676,21.0076216 6.78075676,21.3845946 L6.78075676,22.0017838 L6.78075676,22.7129189 L6.78075676,25.8404865 C2.98843243,26.2222162 0,29.3973514 0,33.2848108 L0,43.2882703 C0,43.67 0.331783784,43.9994054 0.711135135,43.9994054 L5.21459459,43.9994054 L9.71924324,43.9994054 L14.2227027,43.9994054 L28.1623784,43.9994054 L42.0996757,43.9994054 C42.4802162,43.9994054 42.8108108,43.67 42.8108108,43.2882703 L42.8108108,21.7175676 C42.8108108,21.4797297 42.6692973,21.2430811 42.4802162,21.1015676 C42.2899459,20.9588649 42.0045405,21.1967027 41.7690811,21.2906486 L28.9187027,27.1236216 L28.9187027,20.5331351 L33.8502703,20.5331351 Z" id="Fill-25" fill="#58B69E" mask="url(#mask-2)"></path>
                        </g>
                    </g>
                </g>
            </g>
        </g>
    </g>
</svg>