<svg width="30px" height="31px" viewBox="0 0 30 31" version="1.1" xmlns="http://www.w3.org/2000/svg" xmlns:xlink="http://www.w3.org/1999/xlink">
    <!-- Generator: Sketch 49.3 (51167) - http://www.bohemiancoding.com/sketch -->
    <desc>Created with Sketch.</desc>
    <defs></defs>
    <g id="Tablet-UI" stroke="none" stroke-width="1" fill="none" fill-rule="evenodd">
        <g id="Tablet-768x1024-(Booking-Widget)" transform="translate(-594.000000, -109.000000)" fill="#57B69D" fill-rule="nonzero">
            <path d="M623.441616,109.565875 C622.691511,108.811375 621.566354,108.811375 620.816249,109.565875 L609.002097,121.44925 L597.187946,109.565875 C596.437841,108.811375 595.312684,108.811375 594.562579,109.565875 C593.812474,110.320375 593.812474,111.452125 594.562579,112.206625 L606.37673,124.09 L594.562579,135.973375 C593.812474,136.727875 593.812474,137.859625 594.562579,138.614125 C594.937631,138.991375 595.312684,139.18 595.875262,139.18 C596.437841,139.18 596.812893,138.991375 597.187946,138.614125 L609.002097,126.73075 L620.816249,138.614125 C621.191301,138.991375 621.75388,139.18 622.128932,139.18 C622.503985,139.18 623.066563,138.991375 623.441616,138.614125 C624.191721,137.859625 624.191721,136.727875 623.441616,135.973375 L611.627464,124.09 L623.441616,112.206625 C624.191721,111.452125 624.191721,110.320375 623.441616,109.565875 Z" id="Close"></path>
        </g>
    </g>
</svg>