<?xml version="1.0" encoding="iso-8859-1"?>
<!-- Generator: Adobe Illustrator 16.0.0, SVG Export Plug-In . SVG Version: 6.00 Build 0)  -->
<!DOCTYPE svg PUBLIC "-//W3C//DTD SVG 1.1 Tiny//EN" "http://www.w3.org/Graphics/SVG/1.1/DTD/svg11-tiny.dtd">
<svg version="1.1" baseProfile="tiny" id="Layer_1" xmlns="http://www.w3.org/2000/svg" xmlns:xlink="http://www.w3.org/1999/xlink"
	 x="0px" y="0px" width="32px" height="32px" viewBox="0 0 32 32" xml:space="preserve">
<path fill-rule="evenodd" fill="#C4CAD2" d="M16.38,9.99c-0.21-0.2-0.54-0.2-0.75,0l-8.3,8.31c-0.21,0.21-0.21,0.54,0,0.75
	c0.2,0.21,0.54,0.21,0.75,0l7.93-7.92l7.921,7.92c0.199,0.21,0.539,0.21,0.75,0c0.209-0.21,0.209-0.55,0-0.76L16.38,9.99z
	 M16,30.931C7.75,30.931,1.07,24.25,1.07,16S7.75,1.07,16,1.07S30.931,7.75,30.931,16S24.25,30.931,16,30.931z M16,0
	C7.16,0,0,7.16,0,16s7.16,16,16,16s16-7.16,16-16S24.84,0,16,0z"/>
</svg>
