
<svg width="15px" height="9px" viewBox="0 0 15 9" version="1.1" xmlns="http://www.w3.org/2000/svg" xmlns:xlink="http://www.w3.org/1999/xlink">
    <!-- Generator: Sketch 49.3 (51167) - http://www.bohemiancoding.com/sketch -->
    <desc>Created with Sketch.</desc>
    <defs></defs>
    <g id="Desktop-UI" stroke="none" stroke-width="1" fill="none" fill-rule="evenodd">
        <g id="Desktop-1920x1080-(Tour-Page-Optin-1-)" transform="translate(-1585.000000, -3603.000000)" fill="#85939D">
            <g id="FAQ" transform="translate(-4.000000, 3253.000000)">
                <g transform="translate(324.000000, 52.000000)" id="FAQ-Show/Hide">
                    <g transform="translate(0.000000, 107.000000)">
                        <g id="3-(Open)" transform="translate(0.000000, 158.000000)">
                            <path d="M1279.65725,34.0005875 C1279.30147,33.8015318 1278.77137,33.860825 1278.50423,34.125762 L1272.85934,39.7233208 L1267.21801,34.1248208 C1266.94671,33.8594133 1266.41483,33.8038847 1266.06738,33.9996463 C1265.85081,34.1187033 1265.72112,34.3135237 1265.72112,34.5196381 C1265.72112,34.6617535 1265.78418,34.8010455 1265.89603,34.9121025 L1272.19537,41.1618863 C1272.35303,41.3181191 1272.60232,41.4117647 1272.86291,41.4117647 C1273.12052,41.4117647 1273.36743,41.3181191 1273.52449,41.1623569 L1279.82681,34.911632 C1279.96365,34.7751635 1280.02255,34.6043427 1279.99221,34.4330513 C1279.96186,34.2575246 1279.84228,34.1041153 1279.65725,34.0005875" id="Arrow" transform="translate(1272.860558, 37.647059) rotate(180.000000) translate(-1272.860558, -37.647059) "></path>
                        </g>
                    </g>
                </g>
            </g>
        </g>
    </g>
</svg>