<?xml version="1.0" encoding="iso-8859-1"?>
<!-- Generator: Adobe Illustrator 16.0.0, SVG Export Plug-In . SVG Version: 6.00 Build 0)  -->
<!DOCTYPE svg PUBLIC "-//W3C//DTD SVG 1.1 Tiny//EN" "http://www.w3.org/Graphics/SVG/1.1/DTD/svg11-tiny.dtd">
<svg version="1.1" baseProfile="tiny" id="Layer_1" xmlns="http://www.w3.org/2000/svg" xmlns:xlink="http://www.w3.org/1999/xlink"
	 x="0px" y="0px" width="40px" height="40px" viewBox="0 0 40 40" xml:space="preserve">
<path fill-rule="evenodd" fill="#58B69E" d="M38.52,37.78c0,0.41-0.33,0.74-0.74,0.74H36.3v-6.67c0-2.86-2-5.18-4.45-5.18
	c-2.45,0-4.44,2.32-4.44,5.18v6.67h-2.97v-6.67c0-2.86-1.99-5.18-4.44-5.18s-4.44,2.32-4.44,5.18v6.67h-2.97v-6.67
	c0-2.86-1.99-5.18-4.44-5.18c-2.45,0-4.45,2.32-4.45,5.18v6.67H2.22c-0.41,0-0.74-0.33-0.74-0.74V24.44c0-0.4,0.33-0.74,0.74-0.74
	h35.56c0.41,0,0.74,0.34,0.74,0.74V37.78z M22.96,18.52h-5.92v-5.19c0-2.04,1.33-3.7,2.96-3.7s2.96,1.66,2.96,3.7V18.52z
	 M11.11,18.52H5.19v-5.19c0-2.04,1.32-3.7,2.96-3.7c1.63,0,2.96,1.66,2.96,3.7V18.52z M38.52,20.74v0.74c0,0.41-0.33,0.74-0.74,0.74
	H2.22c-0.41,0-0.74-0.33-0.74-0.74v-0.74c0-0.41,0.33-0.74,0.74-0.74h2.22h7.41h4.45h7.4h4.45h7.41h2.22
	C38.19,20,38.52,20.33,38.52,20.74z M38.16,18.41c-0.11,0.07-0.24,0.11-0.38,0.11h-4.61L23.33,0.48c-0.2-0.37-0.66-0.52-1.04-0.36
	L22.23,0H2.22C1,0,0,1,0,2.22v0.74c0,0.57,0.22,1.09,0.58,1.48C0.22,4.84,0,5.36,0,5.93v11.85c0,0.57,0.22,1.09,0.58,1.48
	C0.22,19.65,0,20.17,0,20.74v0.74c0,0.57,0.22,1.09,0.58,1.48C0.22,23.36,0,23.87,0,24.44v13.34C0,39,1,40,2.22,40h2.22
	c0.41,0,0.75-0.33,0.75-0.74v-7.41c0-2.04,1.32-3.7,2.96-3.7c1.63,0,2.96,1.66,2.96,3.7v7.41c0,0.41,0.33,0.74,0.74,0.74h4.45
	c0.41,0,0.74-0.33,0.74-0.74v-7.41c0-2.04,1.33-3.7,2.96-3.7s2.96,1.66,2.96,3.7v7.41c0,0.41,0.33,0.74,0.74,0.74h4.45
	c0.41,0,0.74-0.33,0.74-0.74v-7.41c0-2.04,1.33-3.7,2.96-3.7c1.64,0,2.96,1.66,2.96,3.7v7.41c0,0.41,0.34,0.74,0.75,0.74h2.22
	C39,40,40,39,40,37.78V24.44c0-0.57-0.22-1.08-0.58-1.48c0.36-0.39,0.58-0.91,0.58-1.48v-0.74c0-0.57-0.22-1.09-0.58-1.48
	c0.22-0.24,0.39-0.53,0.48-0.85H38.16z M31.5,18.52h-4.09h-2.97v-5.19c0-2.86-1.99-5.18-4.44-5.18s-4.44,2.32-4.44,5.18v5.19h-2.97
	v-5.19c0-2.86-1.99-5.18-4.44-5.18c-2.45,0-4.45,2.32-4.45,5.18v5.19H2.22c-0.41,0-0.74-0.33-0.74-0.74V5.93
	c0-0.41,0.33-0.74,0.74-0.74l22.02-0.01L31.5,18.52z M23.44,3.7H2.22c-0.41,0-0.74-0.33-0.74-0.74V2.22c0-0.41,0.33-0.74,0.74-0.74
	h20L23.44,3.7z"/>
</svg>
