
<svg width="40px" height="41px" viewBox="0 0 40 41" version="1.1" xmlns="http://www.w3.org/2000/svg" xmlns:xlink="http://www.w3.org/1999/xlink">
    <!-- Generator: Sketch 49.3 (51167) - http://www.bohemiancoding.com/sketch -->
    <desc>Created with Sketch.</desc>
    <defs>
        <polygon id="path-1" points="0 6.0329882e-05 39.8010811 6.0329882e-05 39.8010811 40.9325538 0 40.9325538"></polygon>
    </defs>
    <g id="Tablet-UI" stroke="none" stroke-width="1" fill="none" fill-rule="evenodd">
        <g id="Tablet-768x1024-(Checkout)" transform="translate(-363.000000, -793.000000)">
            <g id="Personal-details" transform="translate(135.000000, 793.000000)">
                <g id="personal-icon" transform="translate(228.000000, 0.000000)">
                    <g id="Page-1">
                        <mask id="mask-2" fill="white">
                            <use xlink:href="#path-1"></use>
                        </mask>
                        <g id="Clip-2"></g>
                        <path d="M1.08162162,40.9325538 C0.680540541,40.9325538 0.295675676,40.7096308 0.108648649,40.3262462 C-0.151891892,39.7910154 0.0718918919,39.1470154 0.608108108,38.8874769 L1.26108108,38.5730154 C4.76378378,36.8876308 10.0156757,34.3622462 13.1648649,30.5047077 C13.167027,30.4605538 13.1691892,30.4153231 13.1713514,30.3700923 C13.18,30.1460923 13.1972973,29.7476308 13.1767568,29.4719385 C11.6459459,28.6028615 11.5064865,26.5911692 11.4016216,25.0813231 C11.3918919,24.9348615 11.3821622,24.7916308 11.3713514,24.6505538 C9.36486486,23.5456308 8.07621622,20.6056308 8.00702703,18.7059385 C7.97027027,17.5514769 7.93567568,16.4788615 8.66,15.7594769 C8.82972973,15.5914769 9.02648649,15.4590154 9.24594595,15.3642462 C9.27297297,15.2124 9.30432432,15.0874769 9.33351351,14.9744 C9.38108108,14.7859385 9.41459459,14.6534769 9.41027027,14.3400923 C6.89675676,7.97224615 10.7356757,2.96778462 15.4081081,0.998092308 C19.6405405,-0.785292308 24.8978378,-0.358830769 27.1616216,3.75286154 C28.94,3.88855385 30.3583784,4.83516923 31.2048649,6.47101538 C32.38,8.74009231 32.2589189,12.1647077 31.3681081,13.7553231 C31.3464865,14.0073231 31.2935135,14.2614769 31.2394595,14.5253231 C31.192973,14.7482462 31.1443243,14.9862462 31.1097297,15.2393231 C31.4394595,15.3760923 31.6805405,15.5602462 31.8491892,15.7293231 C32.3918919,16.2699385 32.6610811,17.0808615 32.6491892,18.1362462 C32.6232432,20.2437846 31.7648649,23.5542462 29.6232432,24.5708615 C29.5681081,26.5308615 29.26,28.5544 27.9918919,29.2317846 C27.9,29.5236308 27.872973,29.9576308 27.8545946,30.2688615 C27.8481081,30.3711692 27.8416216,30.4713231 27.832973,30.5660923 C28.2697297,31.2316308 30.2654054,33.2476308 39.2708108,38.5600923 C39.7843243,38.8627077 39.9551351,39.5228615 39.6513514,40.0354769 C39.3475676,40.5480923 38.6859459,40.7171692 38.1691892,40.4134769 C27.9702703,34.3977846 26.1562162,32.3031692 25.7151351,31.1508615 C25.6481081,30.9753231 25.6275676,30.7847077 25.6567568,30.5994769 C25.6772973,30.4702462 25.6859459,30.3119385 25.6967568,30.1385538 C25.7389189,29.4374769 25.7972973,28.4790154 26.3594595,27.7273231 C26.5194595,27.5108615 26.7572973,27.3633231 27.0221622,27.3127077 C26.9886486,27.3030154 27.4718919,26.7957846 27.4718919,23.7771692 C27.4718919,23.2397846 27.8686486,22.7842462 28.4037838,22.7110154 C29.6621622,22.5387077 30.4643243,19.9142462 30.487027,18.1104 C30.4945946,17.4448615 30.3389189,17.2693231 30.3205405,17.2531692 C30.2794595,17.2122462 30.1572973,17.1788615 30.0135135,17.1896308 L30.0016216,17.1896308 C29.4340541,17.1896308 28.9605405,16.7513231 28.9227027,16.1859385 C28.8632432,15.3319385 29.0135135,14.6136308 29.1227027,14.0891692 C29.1637838,13.8888615 29.22,13.6142462 29.2156757,13.5248615 C29.2037838,13.2664 29.2816216,12.9724 29.4394595,12.7688615 C29.8935135,12.1916308 30.2567568,9.33993846 29.2837838,7.45855385 C28.7097297,6.34932308 27.8124324,5.83993846 26.5302703,5.89270769 C26.0794595,5.90563077 25.6708108,5.65686154 25.4924324,5.24763077 C23.9962162,1.83270769 19.7118919,1.52147692 16.2513514,2.98178462 C12.3562162,4.62409231 9.37027027,8.5764 11.4848649,13.7047077 C11.5313514,13.8188615 11.5572973,13.9384 11.5637838,14.0611692 C11.5994595,14.7687077 11.5237838,15.1327077 11.4297297,15.5031692 C11.3767568,15.7110154 11.3389189,15.8607077 11.3432432,16.2527077 C11.3464865,16.5467077 11.2286486,16.8299385 11.0178378,17.0356308 C10.807027,17.2413231 10.5183784,17.3522462 10.2243243,17.3414769 C10.2124324,17.3414769 10.2016216,17.3414769 10.1918919,17.3404 C10.1356757,17.6128615 10.1540541,18.2073231 10.167027,18.6187077 C10.2189189,20.0187077 11.3735135,22.4816308 12.7010811,22.8876308 C13.1032432,23.0114769 13.3972973,23.3571692 13.4535135,23.7728615 C13.5021622,24.1271692 13.5302703,24.5224 13.5594595,24.9327077 C13.6578378,26.3607077 13.7832432,27.4688615 14.4027027,27.6680923 C14.6513514,27.7477846 14.8632432,27.9147077 14.9983784,28.1376308 C15.4016216,28.8085538 15.3627027,29.7250154 15.3313514,30.4616308 C15.3248649,30.6188615 15.3172973,30.7664 15.3172973,30.8934769 C15.3172973,31.1314769 15.2383784,31.3640923 15.0913514,31.5525538 C11.66,35.9636308 5.96810811,38.7011692 2.20162162,40.5114769 L1.55405405,40.8237846 C1.40162162,40.8980923 1.24054054,40.9325538 1.08162162,40.9325538" id="Fill-1" fill="#58B69E" mask="url(#mask-2)"></path>
                    </g>
                </g>
            </g>
        </g>
    </g>
</svg>