<?xml version="1.0" encoding="iso-8859-1"?>
<!-- Generator: Adobe Illustrator 16.0.0, SVG Export Plug-In . SVG Version: 6.00 Build 0)  -->
<!DOCTYPE svg PUBLIC "-//W3C//DTD SVG 1.1 Tiny//EN" "http://www.w3.org/Graphics/SVG/1.1/DTD/svg11-tiny.dtd">
<svg version="1.1" baseProfile="tiny" id="Layer_1" xmlns="http://www.w3.org/2000/svg" xmlns:xlink="http://www.w3.org/1999/xlink"
	 x="0px" y="0px" width="39px" height="40px" viewBox="0 0 39 40" xml:space="preserve">
<path fill-rule="evenodd" fill="#58B69E" d="M13.87,17.34c-0.63-1.19-0.5-1.65-0.46-1.74c0.03-0.07,0.08-0.1,0.07-0.1
	c0.46-0.09,0.79-0.49,0.76-0.95c0-0.02-0.07-1.47,0.28-2.8c0.01-0.06,0.02-0.11,0.02-0.17c0.01-0.11,0.27-2.85,4.65-2.85
	c4.26,0,4.62,2.56,4.65,2.85c0,0.05,0.01,0.11,0.02,0.17c0.35,1.32,0.28,2.78,0.28,2.8c-0.02,0.46,0.26,0.85,0.72,0.94
	c0.03,0.01,0.08,0.04,0.12,0.11c0.03,0.09,0.16,0.55-0.47,1.74l-0.02,0.01c-0.28,0.18-0.58,0.36-0.69,0.74
	c-0.27,0.97-2.13,4.58-4.61,4.58s-4.33-3.61-4.61-4.59c-0.11-0.37-0.39-0.55-0.69-0.73L13.87,17.34z M19.19,24.51
	c0.99,0,1.87-0.32,2.63-0.81c0.37,0.29,0.96,0.7,1.77,1.1c0.13,0.07,0.27,0.1,0.41,0.1c0.34,0,0.67-0.18,0.83-0.5
	c0.23-0.46,0.05-1.01-0.41-1.24c-0.49-0.24-0.87-0.48-1.15-0.69c1.17-1.27,1.92-2.81,2.21-3.57c0.23-0.14,0.42-0.26,0.56-0.5
	c0.83-1.49,1.04-2.69,0.61-3.59c-0.16-0.34-0.4-0.6-0.65-0.78c0-0.63-0.06-1.67-0.33-2.7c-0.1-0.71-0.92-4.44-6.48-4.44
	c-5.54,0-6.37,3.74-6.48,4.44c-0.27,1.02-0.32,2.07-0.33,2.7c-0.25,0.18-0.49,0.44-0.65,0.78c-0.43,0.9-0.22,2.1,0.61,3.59
	c0.14,0.24,0.33,0.36,0.56,0.5c0.29,0.76,1.04,2.3,2.21,3.57c-0.5,0.37-1.36,0.88-2.53,1.25c-3.77,1.2-6.05,3.49-6.68,6.68
	c-2.52-3.02-4.04-6.89-4.04-11.11c0-9.62,7.91-17.45,17.64-17.45s17.64,7.83,17.64,17.45c0,1.13-0.11,2.27-0.33,3.37
	c-0.09,0.5,0.23,0.98,0.74,1.08c0.51,0.1,0.99-0.23,1.09-0.73c0.24-1.22,0.36-2.47,0.36-3.72C39,8.65,30.25,0,19.5,0S0,8.65,0,19.29
	s8.75,19.29,19.5,19.29c0.51,0,0.93-0.41,0.93-0.91c0-0.51-0.42-0.92-0.93-0.92c-4.59,0-8.78-1.75-11.93-4.61
	c0.07-3.32,1.89-5.5,5.58-6.67c1.68-0.53,2.83-1.31,3.41-1.77C17.33,24.19,18.2,24.51,19.19,24.51z M30.8,36.03v1.14
	c0,0.26,0.21,0.47,0.47,0.47h0.13c0.26,0,0.47-0.21,0.47-0.47v-1.14c0.35-0.16,0.6-0.54,0.6-0.97c0-0.59-0.51-1.09-1.11-1.09
	c-0.61,0-1.12,0.5-1.12,1.09C30.2,35.49,30.45,35.87,30.8,36.03z M31.36,25.99c-2.41,0-4.39,1.94-4.39,4.31v0.76h-0.04
	c-0.47,0-0.86,0.38-0.86,0.84v7.26c0,0.46,0.39,0.84,0.86,0.84h8.81c0.47,0,0.86-0.38,0.86-0.84v-7.3c0-0.47-0.39-0.85-0.86-0.85
	H35.7v-0.76C35.7,27.93,33.76,25.99,31.36,25.99z M28.69,30.3c0-1.44,1.2-2.62,2.67-2.62c1.46,0,2.66,1.18,2.66,2.62v0.76h-5.33
	V30.3z M34.88,38.31h-7.09V32.7h7.09V38.31z"/>
</svg>
