<?xml version="1.0" encoding="iso-8859-1"?>
<!-- Generator: Adobe Illustrator 16.0.0, SVG Export Plug-In . SVG Version: 6.00 Build 0)  -->
<!DOCTYPE svg PUBLIC "-//W3C//DTD SVG 1.1 Tiny//EN" "http://www.w3.org/Graphics/SVG/1.1/DTD/svg11-tiny.dtd">
<svg version="1.1" baseProfile="tiny" id="Layer_1" xmlns="http://www.w3.org/2000/svg" xmlns:xlink="http://www.w3.org/1999/xlink"
	 x="0px" y="0px" width="40px" height="39.998px" viewBox="0 0 40 39.998" xml:space="preserve">
<path fill-rule="evenodd" fill="#58B69E" d="M31.21,27.468c-1.53,0-2.77-1.23-2.77-2.74c0-1.52,1.24-2.75,2.77-2.75
	c1.53,0,2.77,1.23,2.77,2.75C33.98,26.238,32.74,27.468,31.21,27.468z M31.21,20.498c-2.35,0-4.26,1.9-4.26,4.23
	s1.91,4.22,4.26,4.22s4.27-1.89,4.27-4.22S33.56,20.498,31.21,20.498z M17.15,13.888c-0.17-0.22-0.35-0.44-0.54-0.66
	c-0.28-0.3-0.75-0.33-1.06-0.05c-0.31,0.27-0.33,0.74-0.06,1.04c0.17,0.19,0.33,0.39,0.48,0.58c0.33,0.41,0.66,0.83,1.11,1.17
	c0.13,0.11,0.29,0.16,0.45,0.16c0.23,0,0.45-0.1,0.59-0.29c0.26-0.32,0.2-0.79-0.13-1.04C17.69,14.567,17.43,14.238,17.15,13.888z
	 M13.52,11.728c-1.41-0.16-2.43,0.13-2.52,0.15c-0.4,0.12-0.62,0.53-0.5,0.92c0.09,0.32,0.39,0.53,0.71,0.53
	c0.07,0,0.14-0.01,0.21-0.03c0.01,0,0.83-0.23,1.94-0.1c0.4,0.04,0.78-0.25,0.82-0.65C14.23,12.138,13.93,11.768,13.52,11.728z
	 M25.1,14.257c0.15,0,0.3-0.04,0.43-0.13c0.99-0.7,1.56-1.31,1.81-1.62c0.26-0.32,0.22-0.78-0.1-1.04c-0.32-0.26-0.79-0.22-1.05,0.1
	c-0.21,0.25-0.68,0.76-1.52,1.35c-0.34,0.24-0.42,0.7-0.18,1.03C24.64,14.147,24.87,14.257,25.1,14.257z M23.18,14.667
	c-0.17-0.38-0.61-0.55-0.98-0.39c-0.48,0.21-0.99,0.4-1.51,0.57c-0.17,0.06-0.34,0.11-0.49,0.15c-0.4,0.1-0.64,0.51-0.54,0.9
	c0.09,0.34,0.39,0.56,0.73,0.56c0.06,0,0.12-0.01,0.19-0.03c0.18-0.05,0.38-0.1,0.59-0.17c0.56-0.19,1.11-0.4,1.62-0.62
	C23.17,15.478,23.34,15.038,23.18,14.667z M7.47,17.038c-0.82,0-1.49-0.67-1.49-1.48c0-0.82,0.67-1.49,1.49-1.49
	c0.83,0,1.5,0.67,1.5,1.49C8.97,16.368,8.3,17.038,7.47,17.038z M7.47,12.587c-1.64,0-2.99,1.33-2.99,2.97
	c0,1.63,1.35,2.96,2.99,2.96c1.65,0,2.99-1.33,2.99-2.96C10.46,13.917,9.12,12.587,7.47,12.587z M29.9,7.408
	c0.82,0,1.49,0.66,1.49,1.48c0,0.82-0.67,1.48-1.49,1.48c-0.83,0-1.5-0.66-1.5-1.48C28.4,8.067,29.07,7.408,29.9,7.408z
	 M29.9,11.848c1.65,0,2.99-1.33,2.99-2.96c0-1.63-1.34-2.96-2.99-2.96s-2.99,1.33-2.99,2.96C26.91,10.518,28.25,11.848,29.9,11.848z
	 M37.78,27.917c-1.94,4.42-5.24,8.62-6.54,10.19c-1.32-1.57-4.67-5.77-6.62-10.22c-0.47-0.95-0.7-1.99-0.7-3.07
	c0-3.96,3.27-7.18,7.29-7.18s7.3,3.22,7.3,7.18C38.51,25.877,38.27,26.917,37.78,27.917z M18.69,30.728l-8.66-3.98
	c-0.2-0.09-0.43-0.09-0.63,0l-7.91,3.6V5.317l8.23-3.76l8.65,3.96c0.2,0.09,0.43,0.09,0.63,0l8.66-3.96l8.22,3.76v12.18
	c-1.35-0.84-2.95-1.34-4.67-1.34c-4.84,0-8.79,3.89-8.79,8.66c0,1.31,0.29,2.56,0.84,3.69l0.06,0.13L18.69,30.728z M37.35,18.638
	c0.01-0.04,0.02-0.08,0.02-0.12V4.837c0-0.29-0.17-0.55-0.43-0.67l-8.97-4.1c-0.2-0.09-0.43-0.09-0.63,0l-8.65,3.96l-8.66-3.96
	c-0.2-0.09-0.43-0.09-0.63,0l-8.97,4.1C0.17,4.288,0,4.547,0,4.837v26.67c0,0.25,0.13,0.49,0.34,0.62c0.22,0.14,0.49,0.16,0.72,0.05
	l8.66-3.94l8.65,3.97c0.1,0.05,0.21,0.07,0.32,0.07c0.1,0,0.21-0.02,0.31-0.07l4.96-2.24c2.62,5.19,6.54,9.58,6.72,9.78
	c0.15,0.16,0.35,0.25,0.56,0.25c0.22,0,0.42-0.09,0.56-0.25c0.2-0.22,4.8-5.45,7.34-11.22c0.57-1.17,0.86-2.42,0.86-3.71
	C40,22.397,38.98,20.208,37.35,18.638z"/>
</svg>
