<?xml version="1.0" encoding="iso-8859-1"?>
<!-- Generator: Adobe Illustrator 16.0.0, SVG Export Plug-In . SVG Version: 6.00 Build 0)  -->
<!DOCTYPE svg PUBLIC "-//W3C//DTD SVG 1.1 Tiny//EN" "http://www.w3.org/Graphics/SVG/1.1/DTD/svg11-tiny.dtd">
<svg version="1.1" baseProfile="tiny" id="Layer_1" xmlns="http://www.w3.org/2000/svg" xmlns:xlink="http://www.w3.org/1999/xlink"
	 x="0px" y="0px" width="30px" height="24px" viewBox="0 0 30 24" xml:space="preserve">
<path fill-rule="evenodd" fill="#FFFFFF" d="M25.61,24H4.39c-1.42,0-2.57-0.97-2.57-2.16v-0.29c0-1.2,1.15-2.17,2.57-2.17h21.22
	c1.42,0,2.57,0.97,2.57,2.17v0.29C28.18,23.03,27.03,24,25.61,24z M4.39,20.83c-0.48,0-0.86,0.32-0.86,0.72v0.29
	c0,0.39,0.38,0.72,0.86,0.72h21.22c0.48,0,0.86-0.33,0.86-0.72v-0.29c0-0.4-0.38-0.72-0.86-0.72H4.39z M24.95,21.1h-0.09
	c-0.46-0.06-0.79-0.48-0.74-0.96l2.14-13.53c0.05-0.48,0.46-0.82,0.92-0.77c0.45,0.05,0.78,0.48,0.73,0.96l-2.14,13.53
	C25.72,20.77,25.36,21.1,24.95,21.1z M19.24,11.9c-0.07,0-0.13-0.01-0.2-0.03c-0.22-0.05-0.41-1.13-0.52-1.34l-3.96-6.54
	c-0.23-0.41-0.09-0.94,0.31-1.18c0.4-0.24,0.9-0.09,1.13,0.33l3.52,5.74l5.22-3.85c0.39-0.26,0.9-0.14,1.15,0.26s0.14,0.94-0.25,1.2
	l-5.95,5.27C19.55,11.85,19.4,11.9,19.24,11.9z M10.62,11.9c-0.16,0-0.32-0.05-0.46-0.14L4.25,6.48c-0.39-0.27-0.49-0.8-0.24-1.21
	c0.25-0.4,0.76-0.51,1.14-0.25l5.19,3.86l3.56-5.75c0.22-0.41,0.73-0.56,1.13-0.32c0.39,0.24,0.53,0.77,0.3,1.19l-4,6.54
	c-0.11,0.21-0.3,1.28-0.52,1.33C10.75,11.89,10.68,11.9,10.62,11.9z M5.38,21.1c-0.4,0-0.76-0.31-0.82-0.75L2.14,6.75
	C2.08,6.27,2.39,5.83,2.85,5.77C3.3,5.71,3.72,6.04,3.78,6.51l2.43,13.61c0.06,0.47-0.26,0.91-0.71,0.97L5.38,21.1z M15,4.62
	c-1.25,0-2.27-1.04-2.27-2.31C12.73,1.03,13.75,0,15,0s2.27,1.03,2.27,2.31C17.27,3.58,16.25,4.62,15,4.62z M15,1.36
	c-0.52,0-0.94,0.42-0.94,0.95c0,0.52,0.42,0.95,0.94,0.95s0.94-0.43,0.94-0.95C15.94,1.78,15.52,1.36,15,1.36z M27.73,6.46
	c-1.26,0-2.28-1.03-2.28-2.31c0-1.27,1.02-2.3,2.28-2.3c1.25,0,2.27,1.03,2.27,2.3C30,5.43,28.98,6.46,27.73,6.46z M27.73,3.2
	c-0.52,0-0.94,0.43-0.94,0.95c0,0.53,0.42,0.95,0.94,0.95c0.51,0,0.93-0.42,0.93-0.95C28.66,3.63,28.24,3.2,27.73,3.2z M2.27,6.46
	C1.02,6.46,0,5.43,0,4.15c0-1.27,1.02-2.3,2.27-2.3c1.26,0,2.28,1.03,2.28,2.3C4.55,5.43,3.53,6.46,2.27,6.46z M2.27,3.2
	c-0.51,0-0.93,0.43-0.93,0.95c0,0.53,0.42,0.95,0.93,0.95c0.52,0,0.94-0.42,0.94-0.95C3.21,3.63,2.79,3.2,2.27,3.2z"/>
</svg>
