<?xml version="1.0" encoding="iso-8859-1"?>
<!-- Generator: Adobe Illustrator 16.0.0, SVG Export Plug-In . SVG Version: 6.00 Build 0)  -->
<!DOCTYPE svg PUBLIC "-//W3C//DTD SVG 1.1 Tiny//EN" "http://www.w3.org/Graphics/SVG/1.1/DTD/svg11-tiny.dtd">
<svg version="1.1" baseProfile="tiny" id="Layer_1" xmlns="http://www.w3.org/2000/svg" xmlns:xlink="http://www.w3.org/1999/xlink"
	 x="0px" y="0px" width="32px" height="32px" viewBox="0 0 32 32" xml:space="preserve">
<path fill-rule="evenodd" fill="#C4CAD2" d="M16.38,22.01c-0.21,0.2-0.54,0.2-0.75,0l-8.3-8.31c-0.21-0.21-0.21-0.54,0-0.75
	c0.2-0.21,0.54-0.21,0.75,0l7.93,7.92l7.92-7.92c0.2-0.21,0.54-0.21,0.75,0s0.21,0.55,0,0.76L16.38,22.01z M16,1.07
	C7.75,1.07,1.07,7.75,1.07,16S7.75,30.93,16,30.93S30.93,24.25,30.93,16S24.25,1.07,16,1.07z M16,32C7.16,32,0,24.84,0,16
	S7.16,0,16,0s16,7.16,16,16S24.84,32,16,32z"/>
</svg>
