<?xml version="1.0" encoding="iso-8859-1"?>
<!-- Generator: Adobe Illustrator 16.0.0, SVG Export Plug-In . SVG Version: 6.00 Build 0)  -->
<!DOCTYPE svg PUBLIC "-//W3C//DTD SVG 1.1 Tiny//EN" "http://www.w3.org/Graphics/SVG/1.1/DTD/svg11-tiny.dtd">
<svg version="1.1" baseProfile="tiny" id="Layer_1" xmlns="http://www.w3.org/2000/svg" xmlns:xlink="http://www.w3.org/1999/xlink"
	 x="0px" y="0px" width="10.44px" height="23px" viewBox="0 0 10.44 23" xml:space="preserve">
<path fill="#FFFFFF" d="M6.94,23H2.31V11.5H0V7.54h2.31V5.16C2.31,1.92,3.62,0,7.33,0h3.09v3.96H8.49c-1.45,0-1.54,0.56-1.54,1.59
	L6.94,7.54h3.5l-0.41,3.96H6.94V23z"/>
<path fill="#FFFFFF" d="M6.94,23H2.31V11.5H0V7.54h2.31V5.16C2.31,1.92,3.62,0,7.33,0h3.09v3.96H8.49c-1.45,0-1.54,0.56-1.54,1.59
	L6.94,7.54h3.5l-0.41,3.96H6.94V23z"/>
</svg>
