
<svg width="42px" height="38px" viewBox="0 0 42 38" version="1.1" xmlns="http://www.w3.org/2000/svg" xmlns:xlink="http://www.w3.org/1999/xlink">
    <!-- Generator: Sketch 49.3 (51167) - http://www.bohemiancoding.com/sketch -->
    <desc>Created with Sketch.</desc>
    <defs>
        <polygon id="path-1" points="0 0 49 0 49 48.9998 0 48.9998"></polygon>
    </defs>
    <g id="Desktop-UI" stroke="none" stroke-width="1" fill="none" fill-rule="evenodd">
        <g id="Desktop-1920x1080-(Tour-Page-Option-2-)" transform="translate(-939.000000, -4471.000000)">
            <g id="FAQ" transform="translate(-4.000000, 4411.000000)">
                <g transform="translate(324.000000, 60.000000)" id="Icon">
                    <g transform="translate(619.000000, 0.000000)">
                        <mask id="mask-2" fill="white">
                            <use xlink:href="#path-1"></use>
                        </mask>
                        <g id="Clip-2"></g>
                        <path d="M0,12.3839399 C0,17.548488 2.88,22.0818991 7.21714286,23.9368262 L7.21714286,28.9551353 C7.21714286,29.6863306 7.74857143,30.2712869 8.40857143,30.2712869 C8.71714286,30.2712869 9.02571429,30.1258175 9.24857143,29.8864472 L13.8942857,24.7680799 L20.8457143,24.7680799 C27.0428571,24.7680799 32.0905714,19.2032985 32.0905714,12.3839399 C32.0905714,5.55688455 27.0428571,-0.0002 20.8457143,-0.0002 L11.2457143,-0.0002 C5.04857143,-0.0002 0,5.55688455 0,12.3839399 M1.32857143,12.3839399 C1.32857143,6.33426064 5.75142857,1.46219067 11.1942857,1.50837143 L20.8028571,1.50837143 C26.2885714,1.50837143 30.72,6.43431895 30.72,12.4301207 C30.72,18.4721032 26.2457143,23.35187 20.8028571,23.35187 L13.6285714,23.35187 C13.4571429,23.35187 13.2771429,23.3988204 13.1485714,23.5442898 L8.54571429,28.6164764 L8.54571429,23.3988204 C8.54571429,23.1055726 8.36571429,22.8138641 8.1,22.7130362 C4.07142857,21.2506455 1.32857143,17.0635901 1.32857143,12.3839399 M14.8371429,18.033386 C14.6914286,18.1719283 14.64,18.3566513 14.64,18.5490711 C14.64,18.7337942 14.7428571,18.9185172 14.8371429,19.0570595 C14.9914286,19.1956017 15.1971429,19.2417825 15.3942857,19.2417825 C15.6,19.2417825 15.8057143,19.149421 15.9514286,19.0570595 C16.1057143,18.9185172 16.1571429,18.7337942 16.1571429,18.5490711 C16.1571429,18.3566513 16.0542857,18.1719283 15.9514286,18.033386 C15.6514286,17.8024822 15.1457143,17.8024822 14.8371429,18.033386 M12.7114286,10.8445813 C13.1228571,10.8445813 13.4742857,10.5136192 13.4742857,10.1441732 C13.4742857,9.59000408 13.7228571,9.12049971 14.1857143,8.75105364 C14.64,8.42778834 15.2485714,8.28924606 15.8057143,8.38160758 C16.5085714,8.52014985 17.1171429,9.07431895 17.2714286,9.72854636 C17.4257143,10.4212577 17.1685714,11.0754851 16.56,11.491112 C15.3428571,12.3762431 14.64,13.6231236 14.64,14.9700624 C14.64,15.3395085 14.9914286,15.6704706 15.3942857,15.6704706 C15.8057143,15.6704706 16.1571429,15.3395085 16.1571429,14.9700624 C16.1571429,14.092628 16.6628571,13.2074968 17.52,12.5609662 C18.5828571,11.8143773 19.0457143,10.6059808 18.7885714,9.40528105 C18.5314286,8.19688455 17.4685714,7.21939184 16.1571429,6.98848805 C15.0942857,6.80376501 14.0828571,7.0346688 13.2685714,7.64271545 C12.4628571,8.24306531 12.0085714,9.12049971 12.0085714,10.0979924 C11.9571429,10.5136192 12.2571429,10.8445813 12.7114286,10.8445813 M42,23.9214327 C42,19.2887329 39.0342857,15.3395085 34.8762857,14.5544356 C34.5171429,14.4620741 34.2085714,14.7545522 34.1237143,15.1470886 C34.0371429,15.5319283 34.3028571,15.878284 34.6542857,15.9706455 C38.1514286,16.7018408 40.6714286,20.0653394 40.6714286,23.9683831 C40.6714286,27.477351 38.64,30.5483714 35.6237143,31.6728729 C35.3571429,31.7644647 35.1857143,32.0577125 35.1857143,32.3486513 L35.1857143,35.8591586 L31.9534286,32.3040099 C31.8171429,32.2031819 31.6457143,32.1115901 31.4657143,32.1115901 L26.022,32.1115901 C23.2362857,32.1115901 20.7085714,30.4021324 19.4314286,27.6243598 C19.2514286,27.2310536 18.8485714,27.0848146 18.54,27.2849312 C18.1885714,27.477351 18.0514286,27.9160682 18.2314286,28.2547271 C19.74,31.5258641 22.7057143,33.5193335 26.022,33.5193335 L31.2,33.5193335 L34.6971429,37.3761965 C34.92,37.6140274 35.1857143,37.7140857 35.4505714,37.7140857 C35.58,37.7140857 35.7171429,37.667905 35.8457143,37.6140274 C36.2485714,37.4216076 36.5142857,37.0290711 36.5142857,36.5449429 L36.5142857,32.8420157 C39.7885714,31.3796251 42,27.8698875 42,23.9214327" id="Fill-1" fill="#58B69E" mask="url(#mask-2)"></path>
                    </g>
                </g>
            </g>
        </g>
    </g>
</svg>