<?xml version="1.0" encoding="iso-8859-1"?>
<!-- Generator: Adobe Illustrator 16.0.0, SVG Export Plug-In . SVG Version: 6.00 Build 0)  -->
<!DOCTYPE svg PUBLIC "-//W3C//DTD SVG 1.1 Tiny//EN" "http://www.w3.org/Graphics/SVG/1.1/DTD/svg11-tiny.dtd">
<svg version="1.1" baseProfile="tiny" id="Layer_1" xmlns="http://www.w3.org/2000/svg" xmlns:xlink="http://www.w3.org/1999/xlink"
	 x="0px" y="0px" width="48px" height="57px" viewBox="0 0 48 57" xml:space="preserve">
<path fill-rule="evenodd" fill="#FDFDFD" d="M3.1,2h41.8C45.51,2,46,2.49,46,3.1v50.8c0,0.61-0.49,1.1-1.1,1.1H3.1
	C2.49,55,2,54.51,2,53.9V3.1C2,2.49,2.49,2,3.1,2z"/>
<rect x="7.08" y="7.13" fill-rule="evenodd" fill="#E9F6EF" width="33.84" height="42.74"/>
<path fill-rule="evenodd" fill="#3AB977" d="M19,30v5h19v-5H19z M20,31h17v3H20V31z"/>
<rect x="19" y="22" fill-rule="evenodd" fill="#3AB977" width="19" height="5"/>
<path fill-rule="evenodd" fill="#3AB977" d="M2.64,0C1.18,0,0,1.18,0,2.64v51.72C0,55.82,1.18,57,2.64,57h42.72
	c1.46,0,2.64-1.18,2.64-2.64V2.64C48,1.18,46.82,0,45.36,0H2.64z M3.1,2h41.8C45.51,2,46,2.49,46,3.1v50.8c0,0.61-0.49,1.1-1.1,1.1
	H3.1C2.49,55,2,54.51,2,53.9V3.1C2,2.49,2.49,2,3.1,2z"/>
<path fill-rule="evenodd" fill="#3AB977" d="M10,13v5h5v-5H10z M11,14h3v3h-3V14z"/>
<rect x="11" y="14" fill-rule="evenodd" fill="#FFFFFF" width="3" height="3"/>
<rect x="10" y="22" fill-rule="evenodd" fill="#3AB977" width="5" height="5"/>
<path fill-rule="evenodd" fill="#3AB977" d="M10,30v5h5v-5H10z M11,31h3v3h-3V31z"/>
<rect x="11" y="31" fill-rule="evenodd" fill="#FFFFFF" width="3" height="3"/>
<path fill-rule="evenodd" fill="#3AB977" d="M10,39v5h5v-5H10z M11,40h3v3h-3V40z"/>
<rect x="11" y="40" fill-rule="evenodd" fill="#FFFFFF" width="3" height="3"/>
<rect x="20" y="31" fill-rule="evenodd" fill="#FFFFFF" width="17" height="3"/>
<path fill-rule="evenodd" fill="#3AB977" d="M19,39v5h19v-5H19z M20,40h17v3H20V40z"/>
<rect x="20" y="40" fill-rule="evenodd" fill="#FFFFFF" width="17" height="3"/>
<path fill-rule="evenodd" fill="#3AB977" d="M19,13v5h19v-5H19z M20,14h17v3H20V14z"/>
<rect x="20" y="14" fill-rule="evenodd" fill="#FFFFFF" width="17" height="3"/>
</svg>
