
<svg width="16px" height="28px" viewBox="0 0 16 28" version="1.1" xmlns="http://www.w3.org/2000/svg" xmlns:xlink="http://www.w3.org/1999/xlink">
    <!-- Generator: Sketch 49.3 (51167) - http://www.bohemiancoding.com/sketch -->
    <desc>Created with Sketch.</desc>
    <defs></defs>
    <g id="Success-DT-and-M" stroke="none" stroke-width="1" fill="none" fill-rule="evenodd">
        <g id="Desktop---Success-02-WOWO" transform="translate(-773.000000, -2559.000000)" fill="#57B69D">
            <g id="GUIDE" transform="translate(160.000000, 2352.000000)">
                <g id="Title-Panel" transform="translate(370.000000, 40.000000)">
                    <path d="M262.066896,173.517244 L250.997608,185.412057 L239.935321,173.515244 C239.403323,172.951253 238.360328,172.833255 237.678997,173.249248 C237.254332,173.502244 237,173.916238 237,174.354231 C237,174.656226 237.123666,174.952222 237.342999,175.188218 L249.695614,188.469008 C250.004779,188.801003 250.493611,189 251.004608,189 C251.509773,189 251.993938,188.801003 252.301936,188.470008 L264.660385,175.187218 C264.928717,174.897222 265.044217,174.534228 264.984717,174.170234 C264.925217,173.79724 264.690718,173.471245 264.327886,173.251248 C263.630222,172.828255 262.590727,172.954253 262.066896,173.517244 Z" id="Arrow" transform="translate(251.000000, 181.000000) rotate(-90.000000) translate(-251.000000, -181.000000) "></path>
                </g>
            </g>
        </g>
    </g>
</svg>