
<svg width="39px" height="61px" viewBox="0 0 39 61" version="1.1" xmlns="http://www.w3.org/2000/svg" xmlns:xlink="http://www.w3.org/1999/xlink">
    <!-- Generator: Sketch 49.3 (51167) - http://www.bohemiancoding.com/sketch -->
    <desc>Created with Sketch.</desc>
    <defs></defs>
    <g id="Success-DT-and-M" stroke="none" stroke-width="1" fill="none" fill-rule="evenodd">
        <g id="Desktop---Success-02-WOWO" transform="translate(-967.000000, -749.000000)" fill="#57B69D">
            <g id="Booking-Panel" transform="translate(910.000000, 84.000000)">
                <g id="Website-booking" transform="translate(30.000000, 636.000000)">
                    <g id="Tap" transform="translate(27.000000, 29.866667)">
                        <path d="M8.33829004,15.7786164 C6.98143139,14.1046966 6.15789474,11.9051588 6.15789474,9.49683885 C6.15789474,4.25256191 10.0635951,0 14.8811583,0 C19.6995628,0 23.6052632,4.25256191 23.6052632,9.49683885 C23.6052632,11.9051588 22.7817265,14.1046966 21.4240267,15.7786164 L21.4240267,9.49683885 C21.4240267,5.56294436 18.4949617,2.37443864 14.8811583,2.37443864 C11.267355,2.37443864 8.33829004,5.56294436 8.33829004,9.49683885 L8.33829004,15.7786164 Z" id="Fill-4"></path>
                        <path d="M28.0088674,21.5512119 C27.104237,21.5512119 26.2623457,21.8485073 25.563737,22.3565788 C24.9626283,20.4973318 23.3314109,19.1645647 21.4144761,19.1645647 C20.6132804,19.1645647 19.8629543,19.3974307 19.216063,19.8033356 L19.216063,9.61981665 C19.216063,6.9828154 17.2482587,4.84652223 14.8200848,4.84652223 C12.3919109,4.84652223 10.4232587,6.9828154 10.4232587,9.61981665 L10.4232587,32.9082655 L8.20449783,28.7350844 C6.98956304,26.4524446 4.30110652,25.6700882 2.19849783,26.9881286 C0.0958891304,28.3052486 -0.623915217,31.2248186 0.589323913,33.5074584 C0.869106522,34.0339382 1.94584565,36.0560994 2.16967174,36.4785719 C3.88058478,39.7120048 4.47321522,45.1912608 6.1917587,48.4292959 C8.58941087,52.9467138 12.6038674,58.8981449 12.8293891,59.2377796 C13.1837804,59.7725432 13.8713674,59.8931181 14.3631065,59.5083829 C14.8556935,59.1227272 14.9676065,58.378108 14.6123674,57.8433444 C14.3910848,57.5092322 10.0646283,50.971494 8.09088913,47.2290691 C6.75047609,44.6877915 5.95097609,38.7842222 4.0730413,35.2857085 C3.84751957,34.8650769 2.77247609,32.8401544 2.4935413,32.314595 C1.88565,31.1732751 2.24682391,29.7134901 3.29812826,29.0544699 C4.34943261,28.3954497 5.69323696,28.7866279 6.30112826,29.9279478 L10.4130848,37.6613107 C10.7979978,38.5366294 12.6216717,38.4924493 12.6216717,37.0630381 L12.6216717,9.61981665 C12.6216717,8.30085582 13.6059978,7.23316944 14.8200848,7.23316944 C16.0341717,7.23316944 17.0184978,8.30085582 17.0184978,9.61981665 L17.0184978,29.9040169 C17.0184978,30.5630371 17.510237,31.0968803 18.1172804,31.0968803 C18.7243239,31.0968803 19.216063,30.5630371 19.216063,29.9040169 L19.216063,23.9378591 C19.216063,22.6198187 20.2003891,21.5512119 21.4144761,21.5512119 C22.628563,21.5512119 23.6120413,22.6198187 23.6120413,23.9378591 L23.6120413,29.9040169 C23.6120413,30.5630371 24.1054761,31.0968803 24.7116717,31.0968803 C25.3187152,31.0968803 25.8104543,30.5630371 25.8104543,29.9040169 L25.8104543,26.3245063 C25.8104543,25.0055455 26.7947804,23.9378591 28.0088674,23.9378591 C29.2229543,23.9378591 30.2072804,25.0055455 30.2072804,26.3245063 L30.2072804,32.2897437 C30.2072804,32.9487639 30.6998674,33.4835275 31.306063,33.4835275 C31.9131065,33.4835275 32.4056935,32.9487639 32.4056935,32.2897437 L32.4056935,28.7102331 C32.4056935,27.3921927 33.3900196,26.3245063 34.6032587,26.3245063 C35.8173457,26.3245063 36.8016717,27.3921927 36.8016717,28.7102331 L36.8016717,37.0630381 C36.8016717,44.8773979 32.4056935,52.3245103 32.4056935,58.5410222 C32.4056935,59.199122 32.8974326,59.7329652 33.5036283,59.7329652 C34.1115196,59.7329652 34.6032587,59.199122 34.6032587,58.5410222 C34.6032587,53.1841819 39.0000848,44.9077717 39.0000848,37.0630381 L39.0000848,28.7102331 C39.0000848,26.0750727 37.0322804,23.9378591 34.6032587,23.9378591 C33.6986283,23.9378591 32.8575848,24.2342341 32.1589761,24.743226 C31.5578674,22.883979 29.92665,21.5512119 28.0088674,21.5512119" id="Fill-1"></path>
                    </g>
                </g>
            </g>
        </g>
    </g>
</svg>