
<svg width="24px" height="24px" viewBox="0 0 24 24" version="1.1" xmlns="http://www.w3.org/2000/svg" xmlns:xlink="http://www.w3.org/1999/xlink">
    <!-- Generator: Sketch 49.3 (51167) - http://www.bohemiancoding.com/sketch -->
    <desc>Created with Sketch.</desc>
    <defs></defs>
    <g id="Desktop-UI" stroke="none" stroke-width="1" fill="none" fill-rule="evenodd">
        <g id="Desktop-1920x1080-(Tour-Page-Option-2-)" transform="translate(-351.000000, -1150.000000)" fill="#58B69E">
            <g id="Tour-Info" transform="translate(295.000000, 188.000000)">
                <g id="Highlights" transform="translate(26.000000, 795.000000)">
                    <g id="highlights" transform="translate(30.000000, 167.000000)">
                        <g id="Shape">
                            <path d="M12,15 C11.904,15 11.808,15.03 11.724,15.084 L8.334,17.346 L9.48,13.134 C9.534,12.936 9.468,12.732 9.306,12.606 L5.958,10.002 L10.002,10.002 C10.206,10.002 10.386,9.876 10.464,9.684 L12,5.844 L13.536,9.684 C13.614,9.876 13.794,10.002 13.998,10.002 L18.042,10.002 L14.694,12.606 C14.532,12.732 14.466,12.936 14.52,13.134 L15.666,17.346 L12.276,15.084 C12.192,15.03 12.096,15 12,15 Z M16.5,19.002 C16.602,19.002 16.704,18.966 16.794,18.906 C16.962,18.786 17.04,18.57 16.98,18.366 L15.57,13.188 L19.806,9.894 C19.974,9.762 20.04,9.54 19.974,9.336 C19.902,9.138 19.71,9 19.5,9 L14.34,9 L12.468,4.314 C12.312,3.936 11.688,3.936 11.538,4.314 L9.66,9 L4.5,9 C4.29,9 4.098,9.138 4.026,9.336 C3.96,9.54 4.026,9.762 4.194,9.894 L8.43,13.188 L7.02,18.366 C6.96,18.57 7.038,18.786 7.206,18.906 C7.374,19.026 7.602,19.032 7.776,18.918 L12,16.098 L16.224,18.918 C16.308,18.972 16.404,19.002 16.5,19.002 Z M12,1.002 C18.066,1.002 22.998,5.934 22.998,12 C22.998,18.066 18.066,22.998 12,22.998 C5.934,22.998 1.002,18.066 1.002,12 C1.002,5.934 5.934,1.002 12,1.002 Z M12,24 C18.618,24 24,18.618 24,12 C24,5.382 18.618,0 12,0 C5.382,0 0,5.382 0,12 C0,18.618 5.382,24 12,24 Z"></path>
                        </g>
                    </g>
                </g>
            </g>
        </g>
    </g>
</svg>