
<svg width="46px" height="39px" viewBox="0 0 46 39" version="1.1" xmlns="http://www.w3.org/2000/svg" xmlns:xlink="http://www.w3.org/1999/xlink">
    <!-- Generator: Sketch 49.3 (51167) - http://www.bohemiancoding.com/sketch -->
    <desc>Created with Sketch.</desc>
    <defs></defs>
    <g id="Desktop-UI" stroke="none" stroke-width="1" fill="none" fill-rule="evenodd">
        <g id="Desktop-1920x1080-(Tour-Page-Option-2-)" transform="translate(-709.000000, -3762.000000)">
            <g id="Tour-Info" transform="translate(295.000000, 188.000000)">
                <g id="Latest-reviews" transform="translate(0.000000, 3574.000000)">
                    <g id="Latest-Reviews-icon" transform="translate(414.000000, 0.000000)">
                        <g id="Page-1">
                            <path d="M0,14.934 C0,21.163 4.10968182,26.629 10.3008636,28.865 L10.3008636,34.919 C10.3008636,35.801 11.0577727,36.505 12.0007727,36.505 C12.4409091,36.505 12.8789545,36.329 13.1988636,36.042 L19.8291364,29.868 L29.7484091,29.868 C38.5929545,29.868 45.7982273,23.158 45.7982273,14.934 C45.7982273,6.702 38.5929545,0 29.7484091,0 L16.0487727,0 C7.20527273,0 0,6.702 0,14.934 M1.89540909,14.934 C1.89540909,7.639 8.20681818,1.763 15.9766364,1.819 L29.6867273,1.819 C37.5161364,1.819 43.8411364,7.76 43.8411364,14.99 C43.8411364,22.276 37.4565455,28.161 29.6867273,28.161 L19.4496364,28.161 C19.205,28.161 18.9488636,28.218 18.7638182,28.392 L12.1962727,34.51 L12.1962727,28.218 C12.1962727,27.864 11.9390909,27.514 11.5595909,27.391 C5.81063636,25.627 1.89540909,20.578 1.89540909,14.934" id="Fill-1" fill="#58B69E"></path>
                            <path d="M16.4807545,16.5595 C15.4238,16.5595 14.5728,15.7395 14.5728,14.7365 C14.5728,13.7245 15.4238,12.9085 16.4807545,12.9085 C17.5377091,12.9085 18.3887091,13.7245 18.3887091,14.7365 C18.3887091,15.7395 17.5377091,16.5595 16.4807545,16.5595" id="Fill-3" fill="#58B69E"></path>
                            <path d="M22.8417182,16.5595 C21.7847636,16.5595 20.9337636,15.7395 20.9337636,14.7365 C20.9337636,13.7245 21.7847636,12.9085 22.8417182,12.9085 C23.8976273,12.9085 24.7496727,13.7245 24.7496727,14.7365 C24.7496727,15.7395 23.8976273,16.5595 22.8417182,16.5595" id="Fill-5" fill="#58B69E"></path>
                            <path d="M29.2022636,16.5595 C28.1463545,16.5595 27.2943091,15.7395 27.2943091,14.7365 C27.2943091,13.7245 28.1463545,12.9085 29.2022636,12.9085 C30.2581727,12.9085 31.1102182,13.7245 31.1102182,14.7365 C31.1102182,15.7395 30.2581727,16.5595 29.2022636,16.5595" id="Fill-7" fill="#58B69E"></path>
                            <path d="M46,28.4345 C46,33.8115 41.4449545,38.1685 35.8235455,38.1685 C30.2010909,38.1685 25.645,33.8115 25.645,28.4345 C25.645,23.0565 30.2010909,18.6995 35.8235455,18.6995 C41.4449545,18.6995 46,23.0565 46,28.4345" id="Fill-9" fill="#FFFFFF"></path>
                            <path d="M30.9287273,33.1074 C29.6313182,31.8694 28.9193636,30.2084 28.9193636,28.4304 C28.9193636,26.6564 29.6313182,24.9994 30.9287273,23.7554 C32.2313636,22.5114 33.9636818,21.7994 35.8235455,21.8014 C37.6771364,21.8014 39.4105,22.4814 40.7120909,23.7244 C42.0115909,24.9694 42.7559545,26.6564 42.7559545,28.4344 C42.7559545,30.2084 42.0450455,31.8664 40.7424091,33.1074 C39.445,34.3534 37.7105909,35.0354 35.8528182,35.0354 C33.994,35.0354 32.2313636,34.3834 30.9287273,33.1074 M41.8255,34.1754 C43.4355,32.6374 44.3042727,30.6244 44.3042727,28.4344 C44.3042727,26.2714 43.4355,24.2314 41.8223636,22.6884 C40.2196818,21.1484 38.1120455,20.3204 35.8235455,20.3204 C33.5611818,20.3204 31.4263636,21.1484 29.8163636,22.6884 C28.2063636,24.2284 27.3407273,26.2424 27.3407273,28.4324 C27.3407273,30.5954 28.2063636,32.6354 29.8163636,34.1744 C31.4263636,35.7154 33.5308636,36.5434 35.8235455,36.5464 C38.0827727,36.5454 40.2196818,35.6844 41.8255,34.1754" id="Fill-11" fill="#58B69E"></path>
                            <path d="M38.2377091,28.1054 L35.7296636,28.1054 L35.7296636,25.7094 C35.7296636,24.5844 33.9011636,24.5844 33.9011636,25.7094 C33.9011636,26.8034 33.9043,27.8984 33.9043,28.9654 C33.9011636,29.4384 34.3057545,29.8224 34.8033909,29.8224 L38.2042545,29.8224 C39.3814364,29.8224 39.3814364,28.1054 38.2377091,28.1054" id="Fill-13" fill="#58B69E"></path>
                        </g>
                    </g>
                </g>
            </g>
        </g>
    </g>
</svg>