<?xml version="1.0" encoding="iso-8859-1"?>
<!-- Generator: Adobe Illustrator 16.0.0, SVG Export Plug-In . SVG Version: 6.00 Build 0)  -->
<!DOCTYPE svg PUBLIC "-//W3C//DTD SVG 1.1 Tiny//EN" "http://www.w3.org/Graphics/SVG/1.1/DTD/svg11-tiny.dtd">
<svg version="1.1" baseProfile="tiny" id="Layer_1" xmlns="http://www.w3.org/2000/svg" xmlns:xlink="http://www.w3.org/1999/xlink"
	 x="0px" y="0px" width="28px" height="28px" viewBox="0 0 28 28" xml:space="preserve">
<path fill-rule="evenodd" fill="#FFFFFF" d="M0,13c0,3.54,1.53,6.76,4,9.1V28l4.34-3.1C10.07,25.6,11.99,26,14,26
	c7.73,0,14-5.82,14-13S21.73,0,14,0S0,5.82,0,13z M17,13c0-1.1,0.9-2,2-2s2,0.9,2,2s-0.9,2-2,2S17,14.1,17,13z M12,13
	c0-1.1,0.9-2,2-2s2,0.9,2,2s-0.9,2-2,2S12,14.1,12,13z M7,13c0-1.1,0.9-2,2-2s2,0.9,2,2s-0.9,2-2,2S7,14.1,7,13z"/>
</svg>
