<?xml version="1.0" encoding="utf-8"?>
<!-- Generator: Adobe Illustrator 16.0.0, SVG Export Plug-In . SVG Version: 6.00 Build 0)  -->
<!DOCTYPE svg PUBLIC "-//W3C//DTD SVG 1.1//EN" "http://www.w3.org/Graphics/SVG/1.1/DTD/svg11.dtd">
<svg version="1.1" xmlns="http://www.w3.org/2000/svg" xmlns:xlink="http://www.w3.org/1999/xlink" x="0px" y="0px"
	 width="566.93px" height="566.93px" viewBox="0 0 566.93 566.93" enable-background="new 0 0 566.93 566.93" xml:space="preserve">
<g id="BG_-_Green">
	<rect id="Green" fill="#57B69D" width="566.93" height="566.93"/>
</g>
<g id="walks_-_White">
	<g>
		<polygon fill="#FFFFFF" points="71.272,410.679 113.02,410.679 113.02,413.104 98.639,413.104 118.038,467.151 136.059,424.366 
			131.732,413.104 124.454,413.104 124.454,410.679 158.923,410.679 158.923,413.104 147.32,413.104 167.414,466.807 
			189.063,413.104 172.782,413.104 172.782,410.679 201.021,410.679 201.021,413.104 191.838,413.104 160.832,490.712 
			137.272,427.827 110.937,490.712 83.052,413.104 71.272,413.104 		"/>
		<path fill="#FFFFFF" d="M281.399,483.086c-1.506,1.158-3.293,2.171-5.373,3.031c-2.078,0.869-4.62,1.297-7.621,1.297
			c-5.542,0-9.555-1.181-12.035-3.546c-2.491-2.365-4.192-5.686-5.111-9.963h-0.354c-0.462,1.04-1.095,2.336-1.904,3.903
			c-0.81,1.557-2.047,3.057-3.722,4.501c-1.677,1.44-3.896,2.658-6.674,3.64c-2.765,0.983-6.294,1.465-10.56,1.465
			c-4.849,0-8.722-0.547-11.606-1.636c-2.892-1.101-5.141-2.458-6.756-4.073c-1.619-1.614-2.69-3.435-3.207-5.464
			c-0.52-2.015-0.779-3.891-0.779-5.628c0-4.037,0.809-7.276,2.424-9.7c1.617-2.423,3.727-4.357,6.327-5.803
			c2.596-1.438,5.483-2.628,8.66-3.548c3.17-0.926,6.377-1.907,9.614-2.945c3.809-1.271,6.954-2.367,9.438-3.292
			c2.48-0.927,4.419-2.046,5.807-3.377c1.382-1.331,2.33-3.002,2.855-5.023c0.518-2.02,0.778-4.766,0.778-8.228
			c0-2.772-0.175-5.259-0.517-7.449c-0.349-2.197-0.981-4.07-1.906-5.632c-0.927-1.558-2.252-2.742-3.987-3.55
			c-1.731-0.804-4.041-1.216-6.925-1.216c-3.81,0-6.955,0.665-9.441,1.996c-2.487,1.327-3.728,3.492-3.728,6.489
			c0,1.969,0.17,3.904,0.524,5.803c0.342,1.912,0.518,3.327,0.518,4.251c0,1.618-0.58,2.973-1.734,4.068
			c-1.158,1.097-2.833,1.646-5.022,1.646c-3.816,0-6.18-0.692-7.104-2.076c-0.929-1.393-1.383-3.178-1.383-5.369
			c0-2.547,0.574-4.97,1.731-7.277c1.158-2.308,2.86-4.358,5.108-6.15c2.256-1.789,5.081-3.203,8.491-4.242
			c3.406-1.043,7.298-1.562,11.693-1.562c5.31,0,9.757,0.665,13.341,1.992c3.575,1.327,6.461,3.119,8.658,5.37
			c2.193,2.249,3.751,4.796,4.674,7.619c0.922,2.837,1.391,5.807,1.391,8.926v43.133c0,3.354,0.522,5.604,1.558,6.757
			c1.039,1.155,2.538,1.73,4.504,1.73c1.27,0,2.597-0.23,3.983-0.689c1.383-0.463,2.712-1.156,3.983-2.083L281.399,483.086z
			 M251.084,442.553h-0.349c-0.229,1.505-2.141,3.006-5.713,4.506l-12.995,5.198c-3.699,1.502-6.524,3.609-8.489,6.322
			c-1.966,2.715-2.939,6.088-2.939,10.136c0,1.729,0.167,3.521,0.518,5.367c0.344,1.848,0.972,3.489,1.904,4.937
			c0.921,1.445,2.218,2.625,3.896,3.557c1.671,0.916,3.834,1.38,6.5,1.38c3.808,0,6.895-0.806,9.262-2.423
			c2.366-1.618,4.156-3.639,5.373-6.064c1.21-2.424,2.02-5.05,2.421-7.881c0.404-2.824,0.609-5.396,0.609-7.713V442.553z"/>
		<polygon fill="#FFFFFF" points="286.769,482.572 300.107,482.572 300.107,362.521 286.769,362.521 286.769,360.096 
			315.002,360.096 315.002,482.572 328.339,482.572 328.339,484.992 286.769,484.992 		"/>
		<polygon fill="#FFFFFF" points="338.04,482.572 351.379,482.572 351.379,362.521 338.04,362.521 338.04,360.096 366.272,360.096 
			366.272,442.901 368.184,442.901 402.653,413.104 390.354,413.104 390.354,410.675 417.204,410.675 417.204,413.104 
			406.812,413.104 379.788,436.32 418.066,482.572 425.516,482.572 425.516,484.992 386.546,484.992 386.546,482.572 
			398.841,482.572 368.184,445.321 366.272,445.321 366.272,482.572 375.804,482.572 375.804,484.992 338.04,484.992 		"/>
		<path fill="#FFFFFF" d="M435.912,460.744h1.903c0.805,2.77,1.848,5.572,3.121,8.399c1.268,2.829,2.973,5.429,5.11,7.797
			c2.131,2.369,4.766,4.297,7.88,5.805c3.117,1.499,6.87,2.253,11.258,2.253c3.698,0,6.989-1.135,9.876-3.381
			c2.884-2.252,4.331-5.918,4.331-11.001c0-4.387-1.121-7.476-3.379-9.266c-2.25-1.795-4.877-3.208-7.879-4.245l-13.514-4.677
			c-1.734-0.576-3.611-1.303-5.631-2.165c-2.019-0.871-3.894-2.081-5.63-3.639c-1.725-1.562-3.15-3.551-4.245-5.978
			c-1.1-2.426-1.642-5.543-1.642-9.357c0-3.228,0.629-6.231,1.905-9.001c1.267-2.772,2.996-5.201,5.195-7.28
			c2.189-2.081,4.821-3.696,7.878-4.852c3.061-1.152,6.385-1.729,9.966-1.729c2.534,0,4.584,0.203,6.153,0.607
			c1.555,0.404,2.913,0.804,4.064,1.213c1.146,0.406,2.188,0.807,3.121,1.207c0.918,0.413,2.015,0.611,3.287,0.611
			c1.27,0,2.197-0.463,2.774-1.388h1.903v19.749h-1.903c-0.812-2.538-1.735-4.993-2.774-7.365c-1.038-2.361-2.275-4.472-3.718-6.319
			c-1.45-1.846-3.24-3.292-5.374-4.331c-2.138-1.041-4.649-1.562-7.534-1.562c-5.544,0-9.848,1.246-12.907,3.727
			c-3.062,2.484-4.59,5.805-4.59,9.962c0,3.696,1.301,6.492,3.894,8.4c2.6,1.902,6.438,3.673,11.521,5.282l12.647,4.161
			c5.425,1.845,9.877,4.384,13.338,7.615c3.463,3.242,5.196,7.508,5.196,12.823c0,3.119-0.607,6.181-1.823,9.178
			c-1.206,3.006-2.999,5.634-5.364,7.883c-2.368,2.25-5.259,4.073-8.667,5.456c-3.405,1.392-7.3,2.081-11.688,2.081
			c-2.539,0-4.882-0.257-7.012-0.777c-2.146-0.521-4.107-1.065-5.893-1.644c-1.797-0.578-3.441-1.135-4.942-1.65
			c-1.496-0.522-2.884-0.778-4.154-0.778c-1.272,0-2.199,0.256-2.777,0.778c-0.576,0.516-1.038,1.072-1.381,1.65h-1.903V460.744z"/>
		<path fill="#FFFFFF" d="M440.826,284.131c-28,0-50.695,22.695-50.695,50.693c0,27.992,22.695,50.694,50.695,50.694
			c27.996,0,50.687-22.702,50.687-50.694C491.513,306.826,468.822,284.131,440.826,284.131 M475.596,344.019
			c-1.453,2.904-3.865,4.625-7.025,5.305c-0.985,0.213-1.981,0.283-2.987,0.271c-0.078,0-0.163-0.015-0.248-0.021
			c0.079-0.495,0.167-0.971,0.22-1.439c0.15-1.212,0.11-2.41-0.376-3.547c-0.646-1.53-1.86-2.366-3.44-2.695
			c-1.695-0.363-3.337-0.111-4.941,0.445c-2.341,0.802-4.329,2.115-5.796,4.144c-0.867,1.202-1.357,2.543-1.425,4.038
			c-0.006,0.114,0,0.228,0,0.364c0.348,0.119,0.693,0.226,1.025,0.363c1.266,0.526,2.281,1.352,2.776,2.664
			c0.636,1.664,0.318,3.211-0.733,4.611c-0.875,1.157-2.073,1.806-3.488,2.069c-0.198,0.027-0.253,0.088-0.225,0.292
			c0.15,1.38,0.815,2.477,1.852,3.352c0.586,0.501,1.203,0.958,1.805,1.434c0.864,0.682,1.652,1.432,2.087,2.479
			c0.048,0.129,0.099,0.257,0.142,0.383c0.162,0.513,0.157,0.543-0.328,0.797c-0.738,0.395-1.537,0.428-2.343,0.4
			c-1.255-0.034-2.474-0.298-3.676-0.651c-0.18-0.061-0.299-0.027-0.422,0.108c-0.959,1.087-1.92,2.166-2.896,3.242
			c-0.768,0.845-1.595,1.64-2.647,2.114c-0.504,0.225-1.05,0.406-1.588,0.455c-0.443,0.037-0.921-0.108-1.353-0.262
			c-1.144-0.408-2.042-1.184-2.851-2.06c-1.052-1.138-2.077-2.298-3.105-3.456c-0.145-0.164-0.278-0.196-0.492-0.132
			c-1.424,0.414-2.864,0.713-4.357,0.635c-0.659-0.028-1.298-0.156-1.86-0.543c-0.171-0.105-0.214-0.218-0.156-0.428
			c0.285-1.06,0.896-1.908,1.725-2.601c0.709-0.597,1.459-1.146,2.179-1.737c1.012-0.828,1.757-1.837,1.992-3.16
			c0.029-0.201,0.052-0.394,0.077-0.601c-0.331-0.077-0.638-0.136-0.942-0.232c-1.594-0.508-2.786-1.481-3.456-3.036
			c-0.919-2.155-0.172-4.486,1.85-5.685c0.581-0.347,1.227-0.578,1.888-0.879c0.012-1.057-0.221-2.123-0.713-3.126
			c-1.025-2.092-2.692-3.527-4.713-4.596c-1.467-0.771-3.025-1.251-4.685-1.351c-1.127-0.075-2.223,0.054-3.255,0.536
			c-1.66,0.781-2.447,2.154-2.651,3.922c-0.115,1.026,0,2.037,0.214,3.038c0.02,0.1,0.029,0.201,0.051,0.306
			c-0.04,0.014-0.071,0.038-0.108,0.038c-2.084,0.049-4.101-0.279-5.967-1.271c-2.415-1.289-4.065-3.271-4.854-5.864
			c-1.46-4.778-0.639-9.127,2.824-12.823c1.737-1.853,3.978-2.842,6.482-3.155c4.775-0.605,8.98,0.79,12.694,3.774
			c2.762,2.216,4.854,4.996,6.59,8.051c0.883,1.561,1.644,3.184,2.305,4.853c0.031,0.081,0.066,0.159,0.102,0.237
			c0.028,0,0.06-0.007,0.087-0.007c0.045-0.699,0.12-1.398,0.141-2.098c0.079-3.023-0.627-5.893-1.788-8.647
			c-1.005-2.396-2.135-4.732-3.217-7.087c-0.994-2.158-1.945-4.332-2.556-6.638c-0.563-2.108-0.815-4.251-0.621-6.438
			c0.248-2.829,1.218-5.393,2.775-7.759c1.22-1.847,2.686-3.488,4.268-5.028c1.71-1.664,3.456-3.301,5.178-4.955
			c0.124-0.117,0.231-0.117,0.341-0.007c2.369,2.357,4.934,4.514,7.158,7.025c1.633,1.847,3.044,3.836,3.975,6.136
			c0.914,2.268,1.269,4.623,1.133,7.056c-0.156,2.773-0.934,5.395-2.029,7.92c-0.903,2.083-1.894,4.134-2.853,6.197
			c-1.098,2.358-2.137,4.744-2.762,7.284c-0.569,2.304-0.746,4.633-0.404,6.991c0.004,0.014,0.014,0.032,0.045,0.088
			c0.288-0.683,0.55-1.331,0.835-1.965c1.507-3.343,3.386-6.445,5.922-9.124c2.387-2.527,5.163-4.463,8.554-5.402
			c2.671-0.74,5.372-0.876,8.062-0.112c3.34,0.944,5.746,3.038,7.147,6.197C477.385,336.69,477.409,340.396,475.596,344.019"/>
	</g>
</g>
</svg>
