<?xml version="1.0" encoding="utf-8"?>
<!-- Generator: Adobe Illustrator 16.0.0, SVG Export Plug-In . SVG Version: 6.00 Build 0)  -->
<!DOCTYPE svg PUBLIC "-//W3C//DTD SVG 1.1//EN" "http://www.w3.org/Graphics/SVG/1.1/DTD/svg11.dtd">
<svg version="1.1" id="Layer_1" xmlns="http://www.w3.org/2000/svg" xmlns:xlink="http://www.w3.org/1999/xlink" x="0px" y="0px"
	 width="5606.243px" height="5685.24px" viewBox="0 0 5606.243 5685.24" enable-background="new 0 0 5606.243 5685.24"
	 xml:space="preserve">
<path fill="#57B69D" d="M2804.768,426.204c-1412.623,0-2557.63,1145.012-2557.63,2557.561
	c0,1412.241,1145.007,2557.609,2557.63,2557.609C4217.241,5541.374,5362,4396.006,5362,2983.765
	C5362,1571.216,4217.241,426.204,2804.768,426.204 M4558.966,3447.633c-73.316,146.516-194.998,233.342-354.417,267.631
	c-49.744,10.741-99.982,14.285-150.76,13.69c-3.936,0-8.184-0.741-12.503-1.028c3.993-24.982,8.435-48.967,11.104-72.637
	c7.589-61.141,5.553-121.584-18.98-178.938c-32.622-77.197-93.844-119.383-173.577-135.983
	c-85.524-18.319-168.364-5.611-249.297,22.479c-118.098,40.445-218.422,106.697-292.409,209.039
	c-43.756,60.648-68.481,128.303-71.882,203.729c-0.314,5.762,0,11.469,0,18.373c17.521,6.014,34.978,11.383,51.735,18.33
	c63.853,26.57,115.078,68.186,140.058,134.414c32.094,83.938,16.091,161.984-36.979,232.637
	c-44.177,58.361-104.602,91.115-176.016,104.386c-9.997,1.397-12.754,4.44-11.294,14.759
	c7.552,69.604,41.135,124.946,93.376,169.066c29.571,25.299,60.719,48.37,91.08,72.362c43.59,34.372,83.346,72.203,105.283,125.043
	c2.41,6.472,4.973,12.954,7.135,19.302c8.191,25.863,7.932,27.395-16.562,40.184c-37.262,19.934-77.544,21.573-118.198,20.217
	c-63.283-1.744-124.785-15.018-185.44-32.848c-9.046-3.052-15.074-1.402-21.293,5.453c-48.381,54.846-96.874,109.271-146.128,163.58
	c-38.716,42.6-80.45,82.711-133.552,106.641c-25.451,11.358-52.969,20.503-80.11,22.977c-22.397,1.867-46.467-5.457-68.235-13.203
	c-57.695-20.598-103.015-59.729-143.835-103.908c-53.056-57.389-104.794-115.908-156.659-174.373
	c-7.302-8.246-14.059-9.896-24.843-6.66c-71.831,20.908-144.509,35.99-219.853,32.059c-33.266-1.461-65.448-7.879-93.828-27.43
	c-8.624-5.293-10.778-10.982-7.894-21.579c14.374-53.444,45.224-96.233,86.991-131.204c35.802-30.084,73.631-57.824,109.936-87.628
	c51.039-41.797,88.619-92.679,100.488-159.426c1.492-10.146,2.628-19.86,3.903-30.308c-16.691-3.9-32.148-6.855-47.549-11.713
	c-80.385-25.64-140.566-74.77-174.331-153.195c-46.399-108.736-8.697-226.344,93.309-286.79
	c29.29-17.503,61.888-29.162,95.215-44.348c0.599-53.305-11.111-107.104-35.958-157.711
	c-51.731-105.528-135.844-177.952-237.746-231.854c-74.01-38.87-152.665-63.118-236.386-68.142
	c-56.848-3.794-112.127,2.704-164.203,27.055c-83.756,39.416-123.465,108.679-133.751,197.851
	c-5.827,51.798,0,102.788,10.787,153.283c0.981,5.028,1.477,10.153,2.551,15.419c-2.01,0.703-3.604,1.926-5.476,1.926
	c-105.135,2.453-206.859-14.099-301.031-64.098c-121.843-65.029-205.103-165.051-244.861-295.863
	c-73.665-241.08-32.232-460.465,142.49-646.943c87.646-93.469,200.659-143.377,327.039-159.202
	c240.934-30.547,453.094,39.867,640.468,190.43c139.34,111.795,244.839,252.067,332.43,406.168
	c44.565,78.741,82.966,160.628,116.294,244.822c1.58,4.097,3.354,8.035,5.137,11.962c1.404,0,2.984-0.324,4.382-0.324
	c2.257-35.279,6.065-70.559,7.106-105.834c3.963-152.55-31.677-297.291-90.226-436.283
	c-50.693-120.906-107.69-238.75-162.283-357.551c-50.176-108.875-98.167-218.541-128.948-334.876
	c-28.439-106.373-41.164-214.472-31.322-324.778c12.498-142.747,61.437-272.055,140.028-391.438
	c61.504-93.167,135.457-175.988,215.3-253.683c86.274-83.964,174.347-166.532,261.212-250.002c6.254-5.9,11.685-5.9,17.205-0.343
	c119.522,118.93,248.885,227.715,361.11,354.445c82.387,93.169,153.612,193.518,200.521,309.551
	c46.147,114.405,64.014,233.244,57.197,355.974c-7.904,139.918-47.103,272.16-102.388,399.572
	c-45.578,105.083-95.538,208.544-143.934,312.664c-55.387,118.984-107.818,239.335-139.33,367.492
	c-28.723,116.228-37.644,233.736-20.412,352.729c0.197,0.674,0.701,1.61,2.288,4.427c14.536-34.444,27.74-67.165,42.111-99.137
	c76.013-168.639,170.824-325.174,298.755-460.314c120.408-127.507,260.498-225.159,431.58-272.565
	c134.751-37.338,271.039-44.194,406.683-5.664c168.533,47.657,289.928,153.276,360.608,312.664
	C4649.224,3077.919,4650.467,3264.887,4558.966,3447.633"/>
</svg>
