<?xml version="1.0" encoding="iso-8859-1"?>
<!-- Generator: Adobe Illustrator 16.0.0, SVG Export Plug-In . SVG Version: 6.00 Build 0)  -->
<!DOCTYPE svg PUBLIC "-//W3C//DTD SVG 1.1 Tiny//EN" "http://www.w3.org/Graphics/SVG/1.1/DTD/svg11-tiny.dtd">
<svg version="1.1" baseProfile="tiny" id="Layer_1" xmlns="http://www.w3.org/2000/svg" xmlns:xlink="http://www.w3.org/1999/xlink"
	 x="0px" y="0px" width="40px" height="26px" viewBox="0 0 40 26" xml:space="preserve">
<path fill-rule="evenodd" fill="#58B69E" d="M39.36,24.72H0.64C0.29,24.72,0,25,0,25.36C0,25.71,0.29,26,0.64,26h38.72
	c0.35,0,0.64-0.29,0.64-0.64C40,25,39.71,24.72,39.36,24.72z M16.91,17.23c-0.35,0-0.64,0.29-0.64,0.64s0.29,0.64,0.64,0.64h6.04
	c0.35,0,0.64-0.29,0.64-0.64s-0.29-0.64-0.64-0.64H16.91z M2.89,22.07c0.27,0.23,0.68,0.18,0.9-0.09L20.08,1.67l16.13,20.3
	c0.13,0.16,0.31,0.24,0.5,0.24c0.14,0,0.28-0.04,0.4-0.14c0.28-0.22,0.32-0.62,0.1-0.9L20.58,0.24C20.46,0.09,20.28,0,20.08,0
	c-0.19,0-0.38,0.09-0.5,0.24L2.79,21.17C2.57,21.45,2.61,21.85,2.89,22.07z M28.59,22.21c0.14,0,0.28-0.04,0.4-0.14
	c0.28-0.22,0.32-0.62,0.1-0.9l-8.27-10.3l2.54-3.16c0.22-0.28,0.18-0.68-0.1-0.9c-0.27-0.23-0.67-0.18-0.89,0.09L20,9.85L17.63,6.9
	c-0.22-0.27-0.62-0.32-0.89-0.09c-0.28,0.22-0.32,0.62-0.1,0.9l2.54,3.16l-8.27,10.3c-0.22,0.28-0.18,0.68,0.1,0.9
	c0.12,0.1,0.26,0.14,0.4,0.14c0.18,0,0.37-0.08,0.5-0.23L20,11.9l8.09,10.08C28.22,22.13,28.41,22.21,28.59,22.21z"/>
</svg>
