
<svg width="50px" height="36px" viewBox="0 0 50 36" version="1.1" xmlns="http://www.w3.org/2000/svg" xmlns:xlink="http://www.w3.org/1999/xlink">
    <!-- Generator: Sketch 49.3 (51167) - http://www.bohemiancoding.com/sketch -->
    <desc>Created with Sketch.</desc>
    <defs></defs>
    <g id="Success-DT-and-M" stroke="none" stroke-width="1" fill="none" fill-rule="evenodd" stroke-linejoin="round">
        <g id="Desktop---Success-02-WOWO" transform="translate(-210.000000, -579.000000)" stroke="#58B69E" stroke-width="2">
            <g id="What-happens-next" transform="translate(160.000000, 497.000000)">
                <g id="Email-icon" transform="translate(51.000000, 81.000000)">
                    <path d="M0,2.24955 L0,6.6618 L20.2133333,19.292175 L20.3233333,19.3293 C20.5033333,19.402425 20.7566667,19.49355 21.0811111,19.5858 C21.75,19.787175 22.6733333,19.969425 23.6844444,19.969425 C24.9322222,19.949175 26.2344444,19.6938 27.5377778,18.833175 C30.61,16.8003 40.6811111,10.19205 47.0088889,6.055425 L47.0088889,2.24955 L0,2.24955 Z M23.7022222,24.29055 L23.6844444,24.29055 C20.52,24.271425 18.2777778,23.1903 18.0977778,23.114925 L17.99,23.063175 L0,11.8413 L0,35.2008 L47.0088889,35.2008 L47.0088889,11.311425 C40.8044444,15.374925 32.8,20.628675 30.14,22.403925 C27.9711111,23.832675 25.6411111,24.29055 23.7022222,24.29055 Z" id="Page-1"></path>
                </g>
            </g>
        </g>
    </g>
</svg>