
<svg width="50px" height="50px" viewBox="0 0 50 50" version="1.1" xmlns="http://www.w3.org/2000/svg" xmlns:xlink="http://www.w3.org/1999/xlink">
    <!-- Generator: Sketch 49.3 (51167) - http://www.bohemiancoding.com/sketch -->
    <desc>Created with Sketch.</desc>
    <defs>
        <polygon id="path-1" points="0 0.00323414634 49.9995 0.00323414634 49.9995 49.7560976 0 49.7560976"></polygon>
    </defs>
    <g id="Success-DT-and-M" stroke="none" stroke-width="1" fill="none" fill-rule="evenodd">
        <g id="Desktop---Success-02-WOWO" transform="translate(-211.000000, -675.000000)">
            <g id="What-happens-next" transform="translate(160.000000, 497.000000)">
                <g id="Map-Details-Directions" transform="translate(51.000000, 177.000000)">
                    <g id="Page-1">
                        <g id="Group-3" transform="translate(0.000000, 1.240917)">
                            <mask id="mask-2" fill="white">
                                <use xlink:href="#path-1"></use>
                            </mask>
                            <g id="Clip-2"></g>
                            <path d="M46.687,23.1877098 C46.6995,23.1379537 46.71325,23.0881976 46.71325,23.0384415 L46.71325,6.0206122 C46.71325,5.65988049 46.50075,5.33646585 46.1745,5.18719756 L34.96325,0.087197561 C34.712,-0.0247536585 34.4245,-0.0247536585 34.1745,0.087197561 L23.362,5.01305122 L12.537,0.087197561 C12.287,-0.0247536585 11.9995,-0.0247536585 11.7495,0.087197561 L0.53825,5.18719756 C0.212,5.33770976 -0.0005,5.65988049 -0.0005,6.0206122 L-0.0005,39.1954902 C-0.0005,39.5064659 0.162,39.8050024 0.4245,39.9667098 C0.6995,40.1396122 1.037,40.1657341 1.3245,40.0289049 L12.15075,35.1279293 L22.96325,40.066222 C23.08825,40.1284171 23.2245,40.1520512 23.362,40.1520512 C23.487,40.1520512 23.6245,40.1284171 23.7495,40.066222 L29.9495,37.2798805 C33.2245,43.7357341 38.1245,49.1964659 38.3495,49.4452463 C38.537,49.6442707 38.787,49.756222 39.05075,49.756222 C39.3245,49.756222 39.57575,49.6442707 39.7495,49.4452463 C39.9995,49.1703439 45.7495,42.665978 48.92575,35.4874171 C49.637,34.0320512 49.9995,32.4771732 49.9995,30.8737829 C49.9995,27.863539 48.72575,25.1406366 46.687,23.1877098 Z M23.362,38.2252463 L12.537,33.2757585 C12.287,33.1638073 11.9995,33.1638073 11.7495,33.2757585 L1.86325,37.7538073 L1.86325,6.61768537 L12.15075,1.9406122 L22.96325,6.86646585 C23.212,6.97841707 23.4995,6.97841707 23.7495,6.86646585 L34.57575,1.9406122 L44.8495,6.61768537 L44.8495,21.7684171 C43.162,20.723539 41.162,20.1015878 39.012,20.1015878 C32.96325,20.1015878 28.0245,24.9403683 28.0245,30.8737829 C28.0245,32.5032951 28.387,34.0581732 29.0745,35.4637829 L29.15075,35.6267341 L23.362,38.2252463 Z M47.2245,34.7298805 C44.7995,40.2279293 40.6745,45.4523195 39.05075,47.4040024 C37.3995,45.4523195 33.21325,40.2279293 30.77575,34.6938073 C30.18825,33.5096122 29.8995,32.2171976 29.8995,30.8737829 C29.8995,25.9466854 33.987,21.9425634 39.012,21.9425634 C44.03825,21.9425634 48.137,25.9466854 48.137,30.8737829 C48.137,32.1923195 47.837,33.485978 47.2245,34.7298805 Z M39.012,25.5013683 C36.0745,25.5013683 33.68825,27.863539 33.68825,30.7618317 C33.68825,33.6601244 36.0745,36.0123439 39.012,36.0123439 C41.95075,36.0123439 44.35075,33.6601244 44.35075,30.7618317 C44.35075,27.863539 41.95075,25.5013683 39.012,25.5013683 Z M39.012,34.1713683 C37.0995,34.1713683 35.5495,32.6401244 35.5495,30.7618317 C35.5495,28.8723439 37.0995,27.3411 39.012,27.3411 C40.92575,27.3411 42.47575,28.8723439 42.47575,30.7618317 C42.47575,32.6401244 40.92575,34.1713683 39.012,34.1713683 Z" id="Fill-1" fill="#58B69E" mask="url(#mask-2)"></path>
                        </g>
                        <polyline id="Stroke-4" stroke="#58B69E" stroke-width="2" stroke-linecap="round" stroke-linejoin="round" points="30.703125 11.3652878 34.674375 15.3171659 30.699375 19.2715317"></polyline>
                        <polyline id="Stroke-6" stroke="#58B69E" stroke-width="2" stroke-linecap="round" stroke-linejoin="round" points="12.526875 17.9248829 23.169375 22.4427366 23.219375 15.3151756 32.145625 15.3151756"></polyline>
                        <path d="M12.4255,18.0645732 C12.4255,19.7550366 11.048,21.1258171 9.34925,21.1258171 C7.6505,21.1258171 6.273,19.7550366 6.273,18.0645732 C6.273,16.3741098 7.6505,15.0033293 9.34925,15.0033293 C11.048,15.0033293 12.4255,16.3741098 12.4255,18.0645732 Z" id="Stroke-8" stroke="#58B69E" stroke-width="2"></path>
                    </g>
                </g>
            </g>
        </g>
    </g>
</svg>