<?xml version="1.0" encoding="iso-8859-1"?>
<!-- Generator: Adobe Illustrator 16.0.0, SVG Export Plug-In . SVG Version: 6.00 Build 0)  -->
<!DOCTYPE svg PUBLIC "-//W3C//DTD SVG 1.1 Tiny//EN" "http://www.w3.org/Graphics/SVG/1.1/DTD/svg11-tiny.dtd">
<svg version="1.1" baseProfile="tiny" id="Layer_1" xmlns="http://www.w3.org/2000/svg" xmlns:xlink="http://www.w3.org/1999/xlink"
	 x="0px" y="0px" width="39px" height="32px" viewBox="0 0 39 32" xml:space="preserve">
<path fill-rule="evenodd" fill="#D3D3D3" d="M14.62,3.2c-3.59,0-6.5,2.86-6.5,6.39c0,3.53,2.91,6.4,6.5,6.4
	c3.6,0,6.51-2.87,6.51-6.4C21.13,6.06,18.22,3.2,14.62,3.2z M3.37,28.81h22.56c-0.71-5.16-5-9.2-10.34-9.63
	c-0.31,0.03-0.62,0.05-0.94,0.05c-0.31,0-0.62-0.02-0.93-0.05C8.38,19.61,4.09,23.65,3.37,28.81z M24.44,9.61
	c0,3.1-1.5,5.84-3.8,7.6c5.08,2.25,8.62,7.26,8.62,13.1c0,0.55-0.03,1.09-0.1,1.63h-1.53V32H1.66v-0.06H0.1
	C0.04,31.4,0,30.86,0,30.31c0-5.84,3.56-10.87,8.65-13.11c-2.3-1.76-3.78-4.5-3.78-7.59C4.87,4.3,9.25,0,14.65,0
	C20.06,0,24.44,4.3,24.44,9.61z M39,30.31c0,0.55-0.04,1.09-0.1,1.63h-1.54V32h-6.49v-3.19h4.8c-0.67-4.8-4.42-8.62-9.23-9.48
	c-0.63-0.65-1.33-1.22-2.06-1.75v-1.59c3.59-0.01,6.49-2.87,6.49-6.4c0-3.53-2.91-6.39-6.51-6.39c-0.15,0-0.29,0.01-0.44,0.02
	c-0.73-1.03-1.64-1.92-2.68-2.65c0.99-0.33,2.05-0.52,3.15-0.52c5.4,0,9.78,4.3,9.78,9.61c0,3.08-1.47,5.81-3.76,7.57
	C35.47,19.49,39,24.49,39,30.31z"/>
</svg>
