<?xml version="1.0" encoding="iso-8859-1"?>
<!-- Generator: Adobe Illustrator 16.0.0, SVG Export Plug-In . SVG Version: 6.00 Build 0)  -->
<!DOCTYPE svg PUBLIC "-//W3C//DTD SVG 1.1 Tiny//EN" "http://www.w3.org/Graphics/SVG/1.1/DTD/svg11-tiny.dtd">
<svg version="1.1" baseProfile="tiny" id="Layer_1" xmlns="http://www.w3.org/2000/svg" xmlns:xlink="http://www.w3.org/1999/xlink"
	 x="0px" y="0px" width="39.999px" height="34px" viewBox="0 0 39.999 34" xml:space="preserve">
<path fill-rule="evenodd" fill="#58B69E" d="M38.668,32.65H1.289v-1.8h4.53h5.95h5.19h5.95h5.19h5.95h4.57v1.8H38.668z M6.438,28.42
	h0.54h3.64h0.53v1.17h-4.71V28.42z M7.639,13.85h2.35v13.27h-2.35V13.85z M11.148,11.37v1.17h-0.53h-3.64h-0.54v-1.17H11.148z
	 M3.999,8.99h31.96v1.08h-1.86h-5.95h-5.24h-5.95h-5.19h-5.95h-1.82V8.99z M19.979,1.38l15.89,6.3H4.088L19.979,1.38z M33.429,12.54
	h-0.53h-3.6h-0.53v-1.17h4.66V12.54z M32.278,27.12h-2.36V13.85h2.36V27.12z M28.769,28.42h0.53h3.64h0.54v1.17h-4.71V28.42z
	 M17.628,28.42h0.53h3.6h0.53v1.17h-4.66V28.42z M22.289,12.54h-0.53h-3.64h-0.54v-1.17h4.66v1.17H22.289z M21.139,27.12h-2.36
	V13.85h2.36V27.12z M12.438,29.59v-1.8c0-0.36-0.27-0.67-0.67-0.67h-0.53V13.85h0.53c0.35,0,0.67-0.27,0.67-0.68v-1.8h3.9v1.8
	c0,0.36,0.27,0.68,0.67,0.68h0.53v13.27h-0.53c-0.36,0-0.67,0.31-0.67,0.67v1.8H12.438z M23.579,29.59v-1.8
	c0-0.36-0.31-0.67-0.67-0.67h-0.53V13.85h0.53c0.36,0,0.67-0.27,0.67-0.68v-1.8h3.9v1.8c0,0.36,0.31,0.68,0.67,0.68h0.53v13.27
	h-0.53c-0.36,0-0.67,0.31-0.67,0.67v1.8H23.579z M39.289,29.59h-4.57v-1.8c0-0.36-0.31-0.67-0.67-0.67h-0.53V13.85h0.53
	c0.36,0,0.67-0.27,0.67-0.68v-1.8h1.86c0.36,0,0.67-0.27,0.67-0.67V8.94h2.04c0.31,0,0.58-0.22,0.62-0.54
	c0.05-0.31-0.09-0.63-0.4-0.72l-19.31-7.65c-0.13-0.04-0.31-0.04-0.49,0l-19.3,7.65c-0.27,0.14-0.45,0.41-0.4,0.72
	c0.04,0.32,0.31,0.54,0.62,0.54h2.04v1.76c0,0.36,0.27,0.67,0.67,0.67h1.82v1.8c0,0.36,0.26,0.68,0.66,0.68h0.53v13.27h-0.53
	c-0.35,0-0.66,0.31-0.66,0.67v1.8h-4.49c-0.4,0-0.66,0.27-0.66,0.63v3.11c0,0.36,0.26,0.67,0.66,0.67h38.66
	c0.36,0,0.67-0.31,0.67-0.67v-3.11C39.958,29.86,39.639,29.59,39.289,29.59z"/>
</svg>
