<?xml version="1.0" encoding="iso-8859-1"?>
<!-- Generator: Adobe Illustrator 16.0.0, SVG Export Plug-In . SVG Version: 6.00 Build 0)  -->
<!DOCTYPE svg PUBLIC "-//W3C//DTD SVG 1.1 Tiny//EN" "http://www.w3.org/Graphics/SVG/1.1/DTD/svg11-tiny.dtd">
<svg version="1.1" baseProfile="tiny" id="Layer_1" xmlns="http://www.w3.org/2000/svg" xmlns:xlink="http://www.w3.org/1999/xlink"
	 x="0px" y="0px" width="40.004px" height="40px" viewBox="0 0 40.004 40" xml:space="preserve">
<path fill-rule="evenodd" fill="#58B69E" d="M21.962,12.44c-0.32-0.02-0.61-0.22-0.72-0.53l-1.24-3.36l-1.24,3.36
	c-0.11,0.31-0.4,0.51-0.72,0.53l-3.58,0.14l2.81,2.22c0.26,0.2,0.37,0.53,0.28,0.84l-0.97,3.45l2.98-1.99
	c0.13-0.09,0.29-0.14,0.44-0.14s0.31,0.05,0.44,0.14l2.98,1.99l-0.97-3.45c-0.09-0.31,0.02-0.64,0.28-0.84l2.81-2.22L21.962,12.44z
	 M24.142,15.72l1.41,5.02c0.09,0.32-0.03,0.67-0.3,0.86c-0.14,0.1-0.31,0.16-0.47,0.16c-0.15,0-0.31-0.05-0.44-0.14l-4.34-2.89
	l-4.34,2.89c-0.27,0.19-0.64,0.18-0.91-0.02c-0.27-0.19-0.39-0.54-0.3-0.86l1.41-5.02l-4.09-3.23c-0.26-0.21-0.37-0.55-0.26-0.87
	c0.1-0.32,0.39-0.54,0.72-0.56l5.21-0.2l1.81-4.89c0.23-0.63,1.27-0.63,1.5,0l1.81,4.89l5.21,0.2c0.33,0.02,0.62,0.24,0.72,0.56
	c0.11,0.32,0,0.66-0.26,0.87L24.142,15.72z M31.702,21.34c-2.09,3.28-5.51,5.61-9.5,6.25l4.71,9.64l2.82-7.05
	c0.14-0.36,0.52-0.57,0.9-0.49l6.95,1.39L31.702,21.34z M20.002,1.6c-6.78,0-12.29,5.51-12.29,12.29c0,6.78,5.51,12.29,12.29,12.29
	s12.29-5.51,12.29-12.29C32.292,7.11,26.782,1.6,20.002,1.6z M2.422,31.08l6.95-1.39c0.38-0.08,0.76,0.13,0.9,0.49l2.82,7.05
	l4.71-9.64c-3.99-0.64-7.41-2.97-9.5-6.25L2.422,31.08z M39.852,32.68c-0.18,0.26-0.5,0.39-0.81,0.32l-8.07-1.61l-3.24,8.11
	c-0.12,0.29-0.4,0.49-0.72,0.5h-0.03c-0.3,0-0.58-0.17-0.72-0.45l-5.77-11.79c-0.16,0-0.32,0.02-0.49,0.02s-0.33-0.02-0.49-0.02
	l-5.77,11.79c-0.14,0.28-0.42,0.45-0.72,0.45h-0.03c-0.32-0.01-0.6-0.21-0.72-0.5l-3.24-8.11L0.962,33
	c-0.31,0.07-0.63-0.06-0.81-0.32c-0.19-0.26-0.2-0.6-0.04-0.87l7.3-12.09c-0.83-1.78-1.3-3.75-1.3-5.83
	C6.112,6.23,12.342,0,20.002,0s13.89,6.23,13.89,13.89c0,2.08-0.47,4.05-1.3,5.83l7.3,12.09C40.052,32.08,40.042,32.42,39.852,32.68
	z"/>
</svg>
