<?xml version="1.0" encoding="iso-8859-1"?>
<!-- Generator: Adobe Illustrator 16.0.0, SVG Export Plug-In . SVG Version: 6.00 Build 0)  -->
<!DOCTYPE svg PUBLIC "-//W3C//DTD SVG 1.1 Tiny//EN" "http://www.w3.org/Graphics/SVG/1.1/DTD/svg11-tiny.dtd">
<svg version="1.1" baseProfile="tiny" id="Layer_1" xmlns="http://www.w3.org/2000/svg" xmlns:xlink="http://www.w3.org/1999/xlink"
	 x="0px" y="0px" width="32px" height="40px" viewBox="0 0 32 40" xml:space="preserve">
<path fill-rule="evenodd" fill="#58B69E" d="M14,13.24c-0.7-0.21-1.55-0.32-2.2,0c-0.91,0.46-1.8,1.29-1.8,2.44
	c0,3.45,6,7.32,6,7.32s6-3.87,6-7.32c0-1.15-0.86-1.98-1.77-2.44c-0.66-0.33-1.61-0.31-2.23,0c-0.87,0.44-1.94,1.36-1.94,1.36
	S14.79,13.48,14,13.24z M16,1.78c7.84,0,14.22,6.38,14.22,14.22c0,9.77-11.56,19.8-14.22,21.97C13.34,35.81,1.78,25.81,1.78,16
	C1.78,8.16,8.16,1.78,16,1.78z M16,40c0.19,0,0.38-0.06,0.54-0.18C17.17,39.33,32,27.86,32,16c0-8.82-7.18-16-16-16S0,7.18,0,16
	c0,11.91,14.83,23.34,15.46,23.82C15.62,39.94,15.81,40,16,40z"/>
</svg>
