<?xml version="1.0" encoding="iso-8859-1"?>
<!-- Generator: Adobe Illustrator 16.0.0, SVG Export Plug-In . SVG Version: 6.00 Build 0)  -->
<!DOCTYPE svg PUBLIC "-//W3C//DTD SVG 1.1 Tiny//EN" "http://www.w3.org/Graphics/SVG/1.1/DTD/svg11-tiny.dtd">
<svg version="1.1" baseProfile="tiny" id="Layer_1" xmlns="http://www.w3.org/2000/svg" xmlns:xlink="http://www.w3.org/1999/xlink"
	 x="0px" y="0px" width="21.997px" height="30.001px" viewBox="0 0 21.997 30.001" xml:space="preserve">
<path fill-rule="evenodd" fill="#FFFFFF" d="M10.999,7.19c2.26,0,4.1,1.85,4.1,4.12s-1.84,4.12-4.1,4.12s-4.1-1.85-4.1-4.12
	S8.739,7.19,10.999,7.19z M10.999,17.13c3.19,0,5.79-2.61,5.79-5.82s-2.6-5.82-5.79-5.82s-5.79,2.61-5.79,5.82
	S7.809,17.13,10.999,17.13z M9.079,18.65c-0.12,0-0.23,0.02-0.35,0.07l-1.73,0.78l-0.44-1.85c-0.09-0.37-0.42-0.64-0.8-0.65
	l-1.9-0.05l0.4-1.87c0.08-0.37-0.1-0.75-0.44-0.93l-1.68-0.87l1.16-1.51c0.23-0.3,0.24-0.73,0.01-1.03l-1.15-1.53l1.7-0.85
	c0.34-0.17,0.53-0.55,0.46-0.92l-0.38-1.87l1.9-0.03c0.38,0,0.71-0.27,0.81-0.64l0.47-1.84l1.72,0.8c0.35,0.16,0.76,0.07,1-0.22
	l1.22-1.46l1.21,1.48c0.24,0.29,0.65,0.39,1,0.23l1.73-0.78l0.44,1.86c0.09,0.37,0.42,0.63,0.8,0.65l1.9,0.05l-0.4,1.86
	c-0.08,0.38,0.1,0.76,0.44,0.94l1.68,0.87l-1.16,1.51c-0.23,0.3-0.24,0.72-0.01,1.03l1.15,1.52l-1.7,0.85
	c-0.34,0.17-0.53,0.55-0.46,0.93l0.38,1.87l-1.9,0.03c-0.38,0-0.71,0.26-0.81,0.63l-0.47,1.85l-1.72-0.8
	c-0.35-0.17-0.76-0.08-1,0.22l-1.22,1.46l-1.21-1.48C9.568,18.76,9.329,18.65,9.079,18.65z M10.918,22.52
	c0.25,0,0.49-0.06,0.65-0.25l1.46-1.7l2.06,0.96c0.23,0.11,0.49,0.11,0.72,0c0.22-0.11,0.39-0.31,0.45-0.56l0.57-2.2l2.27-0.03
	c0.25-0.01,0.48-0.12,0.64-0.32c0.16-0.2,0.22-0.45,0.17-0.7l-0.44-2.24l2.03-1.01c0.22-0.11,0.39-0.32,0.44-0.57
	c0.06-0.24,0.01-0.5-0.14-0.7l-1.37-1.82l1.39-1.81c0.16-0.2,0.21-0.45,0.16-0.7s-0.21-0.46-0.44-0.57l-2.01-1.05l0.47-2.23
	c0.06-0.24,0-0.5-0.16-0.7c-0.15-0.2-0.39-0.32-0.64-0.32l-2.27-0.07l-0.53-2.21c-0.06-0.25-0.22-0.45-0.45-0.57
	c-0.23-0.11-0.49-0.11-0.72-0.01l-2.07,0.94l-1.43-1.77c-0.16-0.19-0.4-0.31-0.65-0.31s-0.49,0.11-0.65,0.3l-1.46,1.75l-2.06-0.97
	c-0.23-0.1-0.49-0.1-0.72,0.01c-0.22,0.1-0.39,0.31-0.45,0.55l-0.57,2.21l-2.27,0.03c-0.25,0-0.48,0.12-0.64,0.31
	c-0.16,0.2-0.22,0.46-0.17,0.71l0.44,2.23l-2.03,1.02c-0.22,0.11-0.39,0.32-0.44,0.56c-0.06,0.25-0.01,0.51,0.14,0.71l1.37,1.82
	l-1.39,1.8c-0.16,0.2-0.21,0.46-0.16,0.71c0.05,0.24,0.21,0.45,0.44,0.57l2.01,1.04l-0.47,2.23c-0.06,0.25,0,0.51,0.16,0.71
	c0.15,0.19,0.39,0.31,0.64,0.32l2.27,0.06l0.53,2.22c0.06,0.24,0.22,0.44,0.45,0.56c0.23,0.11,0.49,0.11,0.72,0l2.07-0.94l1.43,1.74
	C10.429,22.45,10.668,22.52,10.918,22.52z M16.139,30c0.15,0,0.29-0.04,0.42-0.11c0.27-0.15,0.43-0.43,0.43-0.74v-5.61
	c0-0.47-0.38-0.85-0.85-0.85c-0.46,0-0.84,0.38-0.84,0.85v4.11l-3.96-2.37c-0.27-0.16-0.6-0.16-0.87,0l-3.96,2.37v-4.11
	c0-0.47-0.38-0.85-0.84-0.85c-0.47,0-0.85,0.38-0.85,0.85v5.61c0,0.31,0.17,0.59,0.43,0.74c0.27,0.15,0.59,0.15,0.85-0.01l4.81-2.88
	l4.8,2.88C15.838,29.96,15.989,30,16.139,30z"/>
</svg>
