<?xml version="1.0" encoding="iso-8859-1"?>
<!-- Generator: Adobe Illustrator 16.0.0, SVG Export Plug-In . SVG Version: 6.00 Build 0)  -->
<!DOCTYPE svg PUBLIC "-//W3C//DTD SVG 1.1 Tiny//EN" "http://www.w3.org/Graphics/SVG/1.1/DTD/svg11-tiny.dtd">
<svg version="1.1" baseProfile="tiny" id="Layer_1" xmlns="http://www.w3.org/2000/svg" xmlns:xlink="http://www.w3.org/1999/xlink"
	 x="0px" y="0px" width="36px" height="43px" viewBox="0 0 36 43" xml:space="preserve">
<path fill-rule="evenodd" fill="#58B69E" d="M8,10v3h3v-3H8z M15,10v3h14v-3H15z M8,17v3h3v-3H8z M15,17v3h14v-3H15z M8,24v3h3v-3H8
	z M15,24v3h14v-3H15z M8,31v3h3v-3H8z M15,31v3h14v-3H15z M1.98,0C0.89,0,0,0.89,0,1.99v39.02C0,42.11,0.89,43,1.98,43h32.04
	c1.09,0,1.98-0.89,1.98-1.99V1.99C36,0.89,35.11,0,34.02,0H1.98z M2.77,1.51h30.46c0.7,0,1.27,0.58,1.27,1.29v37.4
	c0,0.71-0.57,1.29-1.27,1.29H2.77c-0.7,0-1.27-0.58-1.27-1.29V2.8C1.5,2.09,2.07,1.51,2.77,1.51z"/>
</svg>
