
<svg width="36px" height="28px" viewBox="0 0 36 28" version="1.1" xmlns="http://www.w3.org/2000/svg" xmlns:xlink="http://www.w3.org/1999/xlink">
    <!-- Generator: Sketch 49.3 (51167) - http://www.bohemiancoding.com/sketch -->
    <desc>Created with Sketch.</desc>
    <defs></defs>
    <g id="Desktop-UI" stroke="none" stroke-width="1" fill="none" fill-rule="evenodd">
        <g id="Desktop-1024x768-(Checkout)" transform="translate(-728.000000, -851.000000)" fill="#58B69E">
            <g id="Payment-details" transform="translate(488.000000, 851.000000)">
                <g id="Payment-icon" transform="translate(240.000000, 0.000000)">
                    <path d="M2.76923077,18.2 L8.30769231,18.2 L8.30769231,12.6 L2.76923077,12.6 L2.76923077,18.2 Z M16.6153846,25.2 L26.3076923,25.2 L26.3076923,22.4 L16.6153846,22.4 L16.6153846,25.2 Z M2.75538462,8.666 C1.24615385,8.666 0,9.912 0,11.438 L0,25.228 C0,26.7526 1.24615385,28 2.75538462,28 L27.0401538,28 C28.5646154,28 29.8093846,26.7526 29.8093846,25.228 L29.8093846,11.438 C29.8093846,9.912 28.5646154,8.666 27.0401538,8.666 L2.75538462,8.666 Z M9.74769231,0 C8.19692308,0 6.92307692,1.078 6.92307692,2.408 L6.92307692,2.8 L36,2.8 L36,2.408 C36,1.078 34.7261538,0 33.1753846,0 L9.74769231,0 Z M36,4.2 L6.92307692,4.2 L6.92307692,7 L28.62,7 C30.8921538,7 32.76,8.722 32.76,10.822 L32.76,15.4 L33.3152308,15.4 C34.7815385,15.4 36,14.28 36,12.908 L36,4.2 Z" id="Page-1"></path>
                </g>
            </g>
        </g>
    </g>
</svg>