
<svg width="131px" height="131px" viewBox="0 0 131 131" version="1.1" xmlns="http://www.w3.org/2000/svg" xmlns:xlink="http://www.w3.org/1999/xlink">
    <!-- Generator: Sketch 49.3 (51167) - http://www.bohemiancoding.com/sketch -->
    <desc>Created with Sketch.</desc>
    <defs></defs>
    <g id="Desktop-UI" stroke="none" stroke-width="1" fill="none" fill-rule="evenodd">
        <g id="Desktop-1280x800-(Booking-Widget)" transform="translate(-361.000000, -538.000000)">
            <g id="Tour-Info" transform="translate(38.000000, 190.000000)">
                <g id="Video-Hero" transform="translate(2.000000, 197.000000)">
                    <g id="Play" transform="translate(322.000000, 152.000000)">
                        <path d="M64.9574468,128.085106 C84.175031,128.085106 101.41561,119.62054 113.154269,106.216321 C123.020466,94.9502407 129,80.1946945 129,64.0425532 C129,28.6728277 100.327172,-2.84217094e-14 64.9574468,-2.84217094e-14 C29.5877213,-2.84217094e-14 0.914893617,28.6728277 0.914893617,64.0425532 C0.914893617,99.4122787 29.5877213,128.085106 64.9574468,128.085106 Z" id="Oval-2" fill="#57B69D" opacity="0.8"></path>
                        <path d="M51.2735355,42.3257742 L69.5709808,53.3044122 L87.8692801,64.2839042 L69.5709808,75.2625422 L51.2735355,86.2411802 L51.2735355,64.2839042 L51.2735355,42.3257742 Z M64.3856383,0.24143026 C29.0160035,0.24143026 0.343085106,28.9132813 0.343085106,64.2839835 C0.343085106,99.6536182 29.0160035,128.326537 64.3856383,128.326537 C99.7574078,128.326537 128.428191,99.6536182 128.428191,64.2839835 C128.428191,28.9132813 99.7574078,0.24143026 64.3856383,0.24143026 Z" id="PLAY-BUTTON" stroke="#FFFFFF" stroke-width="2" stroke-linecap="round" stroke-linejoin="round"></path>
                    </g>
                </g>
            </g>
        </g>
    </g>
</svg>