<?xml version="1.0" encoding="iso-8859-1"?>
<!-- Generator: Adobe Illustrator 16.0.0, SVG Export Plug-In . SVG Version: 6.00 Build 0)  -->
<!DOCTYPE svg PUBLIC "-//W3C//DTD SVG 1.1 Tiny//EN" "http://www.w3.org/Graphics/SVG/1.1/DTD/svg11-tiny.dtd">
<svg version="1.1" baseProfile="tiny" id="Layer_1" xmlns="http://www.w3.org/2000/svg" xmlns:xlink="http://www.w3.org/1999/xlink"
	 x="0px" y="0px" width="37px" height="40px" viewBox="0 0 37 40" xml:space="preserve">
<path fill-rule="evenodd" fill="#58B69E" d="M16.98,10.61H4.38L1.95,8.16l2.43-2.45h12.6V10.61z M16.98,4.08H4.04
	c-0.21,0-0.42,0.09-0.57,0.24L0.24,7.59c-0.32,0.32-0.32,0.83,0,1.15l3.23,3.27c0.15,0.15,0.36,0.23,0.57,0.23h12.94v4.09H8.89
	c-0.21,0-0.42,0.08-0.57,0.24l-3.23,3.26c-0.32,0.32-0.32,0.84,0,1.16l3.23,3.26c0.15,0.15,0.36,0.24,0.57,0.24h8.09v7.78
	c0,0.98-0.42,1.89-1.16,2.5c-1.32,1.09-2.08,2.7-2.08,4.41c0,0.45,0.37,0.82,0.81,0.82h9.71c0.44,0,0.8-0.37,0.8-0.82
	c0-1.71-0.75-3.32-2.07-4.41c-0.74-0.61-1.16-1.52-1.16-2.5V20.41h11.13c0.21,0,0.42-0.09,0.57-0.24l3.23-3.27
	c0.32-0.32,0.32-0.83,0-1.15l-3.23-3.27c-0.15-0.15-0.36-0.24-0.57-0.24H21.83V2.45C21.83,1.1,20.74,0,19.4,0
	c-1.33,0-2.42,1.1-2.42,2.45V4.08z M16.98,22.86H9.23L6.8,20.41l2.43-2.45h7.75V22.86z M21.83,13.88h10.79l2.43,2.45l-2.43,2.45
	H21.83V13.88z M15.44,38.37c0.19-0.91,0.67-1.74,1.4-2.34c1.12-0.92,1.76-2.29,1.76-3.76V2.45c0-0.45,0.36-0.82,0.8-0.82
	c0.45,0,0.81,0.37,0.81,0.82v10.61v6.53v12.68c0,1.47,0.64,2.84,1.75,3.76c0.73,0.6,1.22,1.43,1.41,2.34H15.44z"/>
</svg>
