<?xml version="1.0" encoding="iso-8859-1"?>
<!-- Generator: Adobe Illustrator 16.0.0, SVG Export Plug-In . SVG Version: 6.00 Build 0)  -->
<!DOCTYPE svg PUBLIC "-//W3C//DTD SVG 1.1 Tiny//EN" "http://www.w3.org/Graphics/SVG/1.1/DTD/svg11-tiny.dtd">
<svg version="1.1" baseProfile="tiny" id="Layer_1" xmlns="http://www.w3.org/2000/svg" xmlns:xlink="http://www.w3.org/1999/xlink"
	 x="0px" y="0px" width="50px" height="52px" viewBox="0 0 50 52" xml:space="preserve">
<path fill-rule="evenodd" fill="#3AB977" d="M40,27.8c0,10.94-8.95,19.62-20,19.62c-1.85,0-3.75-0.44-5.45-0.92L5.45,52V41.92
	C1.92,38.35,0,33.19,0,27.8C0,16.86,8.95,8,20,8S40,16.86,40,27.8z"/>
<path fill-rule="evenodd" fill="#3AB977" d="M37.2,27.54c0-9.78-7.88-17.7-17.6-17.7C9.88,9.84,2,17.76,2,27.54
	c0,4.82,1.69,9.43,4.8,12.62v9.02l8-4.92c1.5,0.43,3.17,0.82,4.8,0.82C29.32,45.08,37.2,37.32,37.2,27.54z M35,27.75
	c0,8.7-6.94,15.6-15.5,15.6c-1.44,0-2.91-0.35-4.23-0.72L8.23,46v-7.02C5.49,36.14,4,32.04,4,27.75C4,19.05,10.94,12,19.5,12
	S35,19.05,35,27.75z"/>
<path fill-rule="evenodd" fill="#E4F2ED" d="M38,27.55c0,9.69-8.06,17.39-18,17.39c-1.67,0-3.38-0.39-4.91-0.81L6.91,49v-8.94
	C3.73,36.9,2,32.33,2,27.55C2,17.86,10.06,10,20,10S38,17.86,38,27.55z"/>
<path fill-rule="evenodd" fill="#3AB977" d="M43.6,38.23v5.1v4.83V50l-10.02-5.84C31.68,44.7,29.68,45,27.6,45h-0.09
	c1.16-0.53,2.26-1.17,3.29-1.91c1.06-0.17,2.16-0.42,3.04-0.8L42,47.2v-9.74c0.35-0.33,0.91-0.89,1.54-1.63h0.01
	c0.05-0.06,1.09-1.3,1.53-2.07c2.09-3.24,3.32-7.1,3.32-11.26c0-11.51-9.31-20.83-20.8-20.83c-6.99,0-13.16,3.45-16.93,8.74
	c-1.09,0.58-2.11,1.25-3.06,2.02C11.28,5.07,18.84,0,27.6,0C39.97,0,50,10.07,50,22.5C50,28.63,47.55,34.17,43.6,38.23z"/>
<path fill-rule="evenodd" fill="#3AB977" d="M11.2,31.51c-1.55,0-2.8-1.29-2.8-2.87c0-1.59,1.25-2.87,2.8-2.87
	c1.55,0,2.8,1.28,2.8,2.87C14,30.22,12.75,31.51,11.2,31.51z"/>
<path fill-rule="evenodd" fill="#3AB977" d="M27.2,25.77c1.55,0,2.8,1.28,2.8,2.87c0,1.58-1.25,2.87-2.8,2.87
	c-1.55,0-2.8-1.29-2.8-2.87C24.4,27.05,25.65,25.77,27.2,25.77z"/>
<path fill-rule="evenodd" fill="#3AB977" d="M22,28.64c0,1.58-1.25,2.87-2.8,2.87c-1.55,0-2.8-1.29-2.8-2.87
	c0-1.59,1.25-2.87,2.8-2.87C20.75,25.77,22,27.05,22,28.64z"/>
</svg>
