
<svg width="54px" height="56px" viewBox="0 0 54 56" version="1.1" xmlns="http://www.w3.org/2000/svg" xmlns:xlink="http://www.w3.org/1999/xlink">
    <!-- Generator: Sketch 49.3 (51167) - http://www.bohemiancoding.com/sketch -->
    <desc>Created with Sketch.</desc>
    <defs></defs>
    <g id="Desktop-UI" stroke="none" stroke-width="1" fill="none" fill-rule="evenodd">
        <g id="Desktop-1920x1080-(Tour-Page-Option-2-)" transform="translate(-704.000000, -3233.000000)" fill="#58B69E">
            <g id="Tour-Info" transform="translate(295.000000, 188.000000)">
                <g id="Verified-guest-reviews" transform="translate(26.000000, 3014.000000)">
                    <g id="verified_reviews" transform="translate(383.000000, 31.000000)">
                        <path d="M42.4938462,38.4230769 L46.1215385,38.4230769 C49.14,38.4230769 51.5769231,40.86 51.5769231,43.8784615 C51.5769231,46.8830769 49.14,49.32 46.1215385,49.32 L43.6984615,49.32 L40.68,51.1476923 L40.68,49.32 L40.68,48.9876923 C38.5615385,48.24 37.0384615,46.2461538 37.0384615,43.8784615 C37.0384615,40.86 39.4753846,38.4230769 42.4938462,38.4230769 Z M38.34,50.5384615 L38.2569231,50.5384615 L38.2569231,55.3846154 L43.6984615,51.7430769 L46.1215385,51.7430769 C50.4692308,51.7430769 54,48.2261538 54,43.8784615 C54,39.5307692 50.4692308,36 46.1215385,36 L42.4938462,36 C38.1461538,36 34.6153846,39.5307692 34.6153846,43.8784615 C34.6153846,46.6892308 36.1107692,49.1538462 38.34,50.5384615 Z M19.2046154,24.0092308 C18.3323077,22.3615385 18.5123077,21.7246154 18.5676923,21.6 C18.6092308,21.5030769 18.6784615,21.4615385 18.6646154,21.4615385 C19.3015385,21.3369231 19.7584615,20.7830769 19.7169231,20.1461538 C19.7169231,20.1184615 19.62,18.1107692 20.1046154,16.2692308 C20.1184615,16.1861538 20.1323077,16.1169231 20.1323077,16.0338462 C20.1461538,15.8815385 20.5061538,12.0876923 26.5707692,12.0876923 C32.4692308,12.0876923 32.9676923,15.6323077 33.0092308,16.0338462 C33.0092308,16.1030769 33.0230769,16.1861538 33.0369231,16.2692308 C33.5215385,18.0969231 33.4246154,20.1184615 33.4246154,20.1461538 C33.3969231,20.7830769 33.7846154,21.3230769 34.4215385,21.4476923 C34.4630769,21.4615385 34.5323077,21.5030769 34.5876923,21.6 C34.6292308,21.7246154 34.8092308,22.3615385 33.9369231,24.0092308 L33.9092308,24.0230769 C33.5215385,24.2723077 33.1061538,24.5215385 32.9538462,25.0476923 C32.58,26.3907692 30.0046154,31.3892308 26.5707692,31.3892308 C23.1369231,31.3892308 20.5753846,26.3907692 20.1876923,25.0338462 C20.0353846,24.5215385 19.6476923,24.2723077 19.2323077,24.0230769 L19.2046154,24.0092308 Z M26.5707692,33.9369231 C27.9415385,33.9369231 29.16,33.4938462 30.2123077,32.8153846 C30.7246154,33.2169231 31.5415385,33.7846154 32.6630769,34.3384615 C32.8430769,34.4353846 33.0369231,34.4769231 33.2307692,34.4769231 C33.7015385,34.4769231 34.1584615,34.2276923 34.38,33.7846154 C34.6984615,33.1476923 34.4492308,32.3861538 33.8123077,32.0676923 C33.1338462,31.7353846 32.6076923,31.4030769 32.22,31.1123077 C33.84,29.3538462 34.8784615,27.2215385 35.28,26.1692308 C35.5984615,25.9753846 35.8615385,25.8092308 36.0553846,25.4769231 C37.2046154,23.4138462 37.4953846,21.7523077 36.9,20.5061538 C36.6784615,20.0353846 36.3461538,19.6753846 36,19.4261538 C36,18.5538462 35.9169231,17.1138462 35.5430769,15.6876923 C35.4046154,14.7046154 34.2692308,9.54 26.5707692,9.54 C18.9,9.54 17.7507692,14.7184615 17.5984615,15.6876923 C17.2246154,17.1 17.1553846,18.5538462 17.1415385,19.4261538 C16.7953846,19.6753846 16.4630769,20.0353846 16.2415385,20.5061538 C15.6461538,21.7523077 15.9369231,23.4138462 17.0861538,25.4769231 C17.28,25.8092308 17.5430769,25.9753846 17.8615385,26.1692308 C18.2630769,27.2215385 19.3015385,29.3538462 20.9215385,31.1123077 C20.2292308,31.6246154 19.0384615,32.3307692 17.4184615,32.8430769 C12.1984615,34.5046154 9.04153846,37.6753846 8.16923077,42.0923077 C4.68,37.9107692 2.57538462,32.5523077 2.57538462,26.7092308 C2.57538462,13.3892308 13.5276923,2.54769231 27,2.54769231 C40.4723077,2.54769231 51.4246154,13.3892308 51.4246154,26.7092308 C51.4246154,28.2738462 51.2723077,29.8523077 50.9676923,31.3753846 C50.8430769,32.0676923 51.2861538,32.7323077 51.9923077,32.8707692 C52.6984615,33.0092308 53.3630769,32.5523077 53.5015385,31.86 C53.8338462,30.1707692 54,28.44 54,26.7092308 C54,11.9769231 41.8846154,0 27,0 C12.1153846,0 0,11.9769231 0,26.7092308 C0,41.4415385 12.1153846,53.4184615 27,53.4184615 C27.7061538,53.4184615 28.2876923,52.8507692 28.2876923,52.1584615 C28.2876923,51.4523077 27.7061538,50.8846154 27,50.8846154 C20.6446154,50.8846154 14.8430769,48.4615385 10.4815385,44.5153846 C10.5784615,39.9046154 13.0984615,36.8861538 18.2076923,35.2661538 C20.5338462,34.5323077 22.1261538,33.4523077 22.9292308,32.8153846 C23.9953846,33.4938462 25.2,33.9369231 26.5707692,33.9369231 Z" id="Shape"></path>
                    </g>
                </g>
            </g>
        </g>
    </g>
</svg>