<?xml version="1.0" encoding="iso-8859-1"?>
<!-- Generator: Adobe Illustrator 16.0.0, SVG Export Plug-In . SVG Version: 6.00 Build 0)  -->
<!DOCTYPE svg PUBLIC "-//W3C//DTD SVG 1.1 Tiny//EN" "http://www.w3.org/Graphics/SVG/1.1/DTD/svg11-tiny.dtd">
<svg version="1.1" baseProfile="tiny" id="Layer_1" xmlns="http://www.w3.org/2000/svg" xmlns:xlink="http://www.w3.org/1999/xlink"
	 x="0px" y="0px" width="28px" height="26px" viewBox="0 0 28 26" xml:space="preserve">
<path fill-rule="evenodd" fill="#FFFFFF" d="M16.87,14.82c0.02-0.19,0.06-0.36,0.12-0.52c0.06-0.15,0.15-0.28,0.27-0.38
	c0.11-0.1,0.27-0.15,0.48-0.15c0.19,0,0.33,0.06,0.43,0.16c0.11,0.12,0.19,0.26,0.25,0.42c0.05,0.16,0.09,0.34,0.1,0.52
	c0.01,0.19,0.02,0.35,0.02,0.49c0,0.14-0.01,0.31-0.02,0.5c-0.01,0.18-0.05,0.35-0.11,0.52c-0.06,0.16-0.15,0.29-0.27,0.4
	c-0.11,0.11-0.26,0.16-0.46,0.16c-0.21,0-0.36-0.05-0.47-0.16c-0.11-0.11-0.19-0.24-0.25-0.4c-0.05-0.17-0.08-0.34-0.09-0.53
	l-0.02-0.51C16.85,15.19,16.86,15.01,16.87,14.82z M15.76,17.32c0.19,0.25,0.45,0.46,0.76,0.6s0.7,0.22,1.15,0.22
	c0.43,0,0.81-0.07,1.12-0.21c0.32-0.14,0.58-0.34,0.79-0.59c0.2-0.25,0.35-0.54,0.45-0.88c0.1-0.33,0.15-0.69,0.15-1.08
	c0-0.38-0.04-0.75-0.12-1.09s-0.22-0.64-0.41-0.9c-0.19-0.25-0.45-0.46-0.75-0.6c-0.31-0.15-0.7-0.23-1.16-0.23
	c-0.43,0-0.81,0.07-1.13,0.22c-0.31,0.14-0.58,0.34-0.79,0.59c-0.2,0.25-0.36,0.55-0.46,0.88c-0.09,0.33-0.14,0.69-0.14,1.08
	c0,0.38,0.04,0.75,0.12,1.09S15.56,17.06,15.76,17.32z M17.85,7.71c-0.05-0.08-0.13-0.13-0.23-0.13h-1.21
	c-0.1,0-0.18,0.05-0.23,0.13l-5.93,10.33c-0.05,0.08-0.04,0.17,0,0.25c0.05,0.08,0.13,0.13,0.23,0.13h1.24
	c0.1,0,0.18-0.05,0.23-0.13l5.9-10.33C17.9,7.88,17.89,7.78,17.85,7.71z M9.48,10.19C9.49,10,9.53,9.81,9.6,9.64
	c0.06-0.16,0.15-0.3,0.27-0.41c0.11-0.1,0.27-0.15,0.48-0.15c0.18,0,0.32,0.05,0.43,0.16c0.11,0.12,0.19,0.27,0.24,0.44
	c0.06,0.18,0.09,0.37,0.11,0.56c0.01,0.2,0.02,0.36,0.02,0.5c0,0.15-0.01,0.31-0.02,0.49c-0.02,0.17-0.05,0.34-0.11,0.49
	c-0.06,0.15-0.15,0.27-0.27,0.38c-0.11,0.09-0.26,0.14-0.46,0.14c-0.21,0-0.36-0.05-0.47-0.14c-0.11-0.1-0.2-0.23-0.25-0.38
	c-0.05-0.15-0.09-0.32-0.1-0.5l-0.01-0.49C9.46,10.57,9.47,10.39,9.48,10.19z M7.97,9.61c-0.1,0.34-0.15,0.7-0.15,1.09
	c0,0.38,0.05,0.75,0.13,1.08c0.08,0.34,0.22,0.64,0.41,0.88c0.2,0.25,0.46,0.44,0.77,0.58c0.31,0.14,0.69,0.21,1.14,0.21
	c0.44,0,0.81-0.06,1.13-0.2c0.32-0.13,0.58-0.32,0.78-0.56c0.21-0.24,0.36-0.53,0.46-0.86c0.09-0.33,0.14-0.69,0.14-1.08
	c0-0.38-0.04-0.75-0.11-1.1c-0.08-0.35-0.22-0.66-0.41-0.92c-0.19-0.27-0.45-0.48-0.76-0.64c-0.3-0.15-0.69-0.23-1.15-0.23
	c-0.44,0-0.81,0.08-1.13,0.23C8.9,8.24,8.64,8.44,8.43,8.7C8.22,8.96,8.07,9.26,7.97,9.61z M22.65,15.73L23.93,20l-4.59,0.13
	l-1.55,4.19L14,21.82l-3.79,2.5l-1.55-4.19L4.07,20l1.28-4.27L1.73,13l3.62-2.73L4.07,6l4.59-0.13l1.55-4.19L14,4.18l3.79-2.5
	l1.55,4.19L23.93,6l-1.28,4.27L26.27,13L22.65,15.73z M27.34,11.7l-2.72-2.05l0.96-3.21c0.15-0.48,0.05-1.01-0.25-1.42
	c-0.31-0.41-0.8-0.67-1.33-0.68l-3.44-0.11L19.4,1.09c-0.18-0.48-0.58-0.85-1.07-1.01C18.16,0.03,17.98,0,17.8,0
	c-0.34,0-0.67,0.1-0.95,0.29L14,2.17l-2.85-1.88C10.87,0.1,10.54,0,10.2,0c-0.18,0-0.36,0.03-0.53,0.08
	C9.18,0.24,8.78,0.62,8.6,1.09L7.44,4.23L4,4.34C3.47,4.35,2.98,4.61,2.67,5.02c-0.3,0.4-0.4,0.94-0.25,1.42l0.96,3.21L0.66,11.7
	C0.24,12.01,0,12.49,0,13s0.24,0.99,0.66,1.3l2.72,2.05l-0.96,3.21c-0.15,0.48-0.05,1.02,0.25,1.42c0.32,0.42,0.8,0.67,1.33,0.68
	l3.44,0.11l1.16,3.14c0.18,0.48,0.58,0.85,1.07,1.01C9.84,25.97,10.02,26,10.2,26c0.34,0,0.67-0.1,0.95-0.29L14,23.83l2.85,1.88
	C17.13,25.9,17.46,26,17.8,26c0.18,0,0.36-0.03,0.53-0.08c0.5-0.16,0.89-0.53,1.07-1.01l1.16-3.14L24,21.66
	c0.53-0.01,1.01-0.26,1.33-0.68c0.3-0.4,0.4-0.94,0.25-1.42l-0.96-3.21l2.72-2.05C27.75,13.99,28,13.51,28,13
	S27.76,12.01,27.34,11.7z"/>
</svg>
