<?xml version="1.0" encoding="iso-8859-1"?>
<!-- Generator: Adobe Illustrator 16.0.0, SVG Export Plug-In . SVG Version: 6.00 Build 0)  -->
<!DOCTYPE svg PUBLIC "-//W3C//DTD SVG 1.1 Tiny//EN" "http://www.w3.org/Graphics/SVG/1.1/DTD/svg11-tiny.dtd">
<svg version="1.1" baseProfile="tiny" id="Layer_1" xmlns="http://www.w3.org/2000/svg" xmlns:xlink="http://www.w3.org/1999/xlink"
	 x="0px" y="0px" width="31px" height="32px" viewBox="0 0 31 32" xml:space="preserve">
<path fill-rule="evenodd" fill="#FFFFFF" d="M24,30.4c-0.77,0-1.4-0.63-1.4-1.4s0.63-1.4,1.4-1.4s1.4,0.63,1.4,1.4
	S24.77,30.4,24,30.4z M24,26c-1.66,0-3,1.34-3,3s1.34,3,3,3s3-1.34,3-3S25.66,26,24,26z M25.86,21.73H12.77L9.8,11.61h19.03
	L25.86,21.73z M31,10.67V10.6l-0.01-0.03v-0.06l-0.01-0.03l-0.01-0.04l-0.01-0.05l-0.01-0.02c-0.03-0.08-0.06-0.15-0.11-0.22
	L30.8,10.1l-0.01-0.02c-0.06-0.07-0.12-0.13-0.19-0.18l-0.05-0.03l-0.04-0.02l-0.03-0.02l-0.06-0.02L30.4,9.8l-0.06-0.02l-0.03-0.01
	l-0.06-0.02H30.2l-0.04-0.01h-0.07h-0.02h-0.02H9.25l-0.9-3.07L8.33,6.6L8.32,6.58L8.3,6.52L8.28,6.49L8.26,6.46L8.23,6.41
	c-0.04-0.07-0.11-0.14-0.18-0.2L8.03,6.2L7.98,6.16C7.91,6.11,7.84,6.08,7.76,6.05L7.69,6.03L7.65,6.02L7.62,6.01H7.56L7.54,6H7.47
	H0.93C0.42,6,0,6.42,0,6.93c0,0.52,0.42,0.94,0.93,0.94h5.84l4.41,15.05l0.02,0.05l0.01,0.04l0.02,0.04l0.02,0.04l0.01,0.03
	l0.03,0.05l0.02,0.02l0.04,0.06l0.06,0.07l0.06,0.06l0.02,0.01l0.05,0.04l0.03,0.01l0.04,0.03l0.03,0.02l0.05,0.02l0.04,0.02
	l0.06,0.02l0.03,0.01l0.05,0.01l0.03,0.01l0.06,0.01h0.02l0.09,0.01h14.48l0.09-0.01h0.02l0.07-0.01l0.03-0.01l0.05-0.01l0.03-0.01
	l0.06-0.02l0.04-0.02l0.05-0.02l0.03-0.02l0.04-0.03l0.03-0.01l0.04-0.04l0.02-0.01l0.06-0.05l0.06-0.07l0.05-0.07l0.01-0.02
	l0.03-0.05l0.02-0.03l0.02-0.04l0.02-0.04l0.01-0.04l0.02-0.04l3.51-11.98v-0.01l0.01-0.03l0.01-0.06l0.01-0.05L31,10.76v-0.07
	V10.67z M14,30.4c-0.77,0-1.4-0.63-1.4-1.4s0.63-1.4,1.4-1.4s1.4,0.63,1.4,1.4S14.77,30.4,14,30.4z M14,26c-1.66,0-3,1.34-3,3
	s1.34,3,3,3s3-1.34,3-3S15.66,26,14,26z M20,7V4h3l-4-4l-4,4h3v3H20z"/>
</svg>
