<?xml version="1.0" encoding="iso-8859-1"?>
<!-- Generator: Adobe Illustrator 16.0.0, SVG Export Plug-In . SVG Version: 6.00 Build 0)  -->
<!DOCTYPE svg PUBLIC "-//W3C//DTD SVG 1.1 Tiny//EN" "http://www.w3.org/Graphics/SVG/1.1/DTD/svg11-tiny.dtd">
<svg version="1.1" baseProfile="tiny" id="Layer_1" xmlns="http://www.w3.org/2000/svg" xmlns:xlink="http://www.w3.org/1999/xlink"
	 x="0px" y="0px" width="34px" height="31.87px" viewBox="0 0 34 31.87" xml:space="preserve">
<path fill-rule="evenodd" fill="#02C386" d="M32.64,12.87l-7.4,7.9l7.4,7.74V12.87z M31.6,11.06l-0.66-0.62v2.28l1.11-1.18
	C31.91,11.38,31.77,11.21,31.6,11.06z M4.76,1.32v12.97l5.41,5.63c0.22-0.08,0.48-0.06,0.67,0.1c0.15,0.12,0.2,0.28,0.21,0.45h12.37
	c0.01-0.16,0.06-0.31,0.19-0.43c0.17-0.15,0.4-0.19,0.61-0.15l5.36-5.71V1.32H4.76z M2.29,11.07c-0.11,0.1-0.21,0.22-0.3,0.33
	l1.41,1.47v-2.84L2.29,11.07z M1.36,12.81v15.78c0,0.37,0.12,0.72,0.31,1.02c0.02-0.1,0.06-0.2,0.14-0.29l7.41-8.46L1.38,12.7
	C1.37,12.74,1.36,12.78,1.36,12.81z M3.4,30.56h27.2c0.6,0,1.14-0.26,1.51-0.67l-7.88-8.23c-0.05,0.01-0.1,0.03-0.16,0.03
	c-0.03,0-0.06-0.01-0.09-0.02c-0.11,0.07-0.22,0.11-0.36,0.11H10.4c-0.06,0-0.12-0.02-0.18-0.03l-7.38,8.42
	c-0.08,0.1-0.19,0.15-0.31,0.19C2.79,30.48,3.09,30.56,3.4,30.56z M30.6,31.87H3.4c-1.88,0-3.4-1.47-3.4-3.28V12.81
	c0-0.89,0.5-1.9,1.35-2.69L3.3,8.3c0.03-0.03,0.07-0.04,0.1-0.07V0.66C3.4,0.3,3.7,0,4.08,0h26.18c0.38,0,0.68,0.3,0.68,0.66v7.96
	l1.62,1.5c0.19,0.18,0.61,0.63,0.96,1.19l0.01,0.02c0.26,0.44,0.47,0.95,0.47,1.48v15.78C34,30.4,32.48,31.87,30.6,31.87z"/>
</svg>
