<?xml version="1.0" encoding="iso-8859-1"?>
<!-- Generator: Adobe Illustrator 16.0.0, SVG Export Plug-In . SVG Version: 6.00 Build 0)  -->
<!DOCTYPE svg PUBLIC "-//W3C//DTD SVG 1.1 Tiny//EN" "http://www.w3.org/Graphics/SVG/1.1/DTD/svg11-tiny.dtd">
<svg version="1.1" baseProfile="tiny" id="Layer_1" xmlns="http://www.w3.org/2000/svg" xmlns:xlink="http://www.w3.org/1999/xlink"
	 x="0px" y="0px" width="40px" height="40px" viewBox="0 0 40 40" xml:space="preserve">
<path fill-rule="evenodd" fill="#58B69E" d="M29.58,11.5c0,3.6-2.13,7.64-4.45,11.3l0.21-0.31l0.87,1.3C28.68,19.9,31,15.55,31,11.5
	c0-3.51-1.51-6.65-3.88-8.76L26.95,2.8c-0.38-0.36-0.78-0.69-1.21-0.98l0.11-0.05C24.16,0.65,22.15,0,20,0s-4.16,0.65-5.86,1.77
	l0.12,0.05c-0.43,0.29-0.83,0.62-1.21,0.98l-0.17-0.06C10.5,4.86,9,7.99,9,11.5c0,4.07,2.3,8.41,4.76,12.29l0.87-1.3l0.23,0.34
	c-2.32-3.66-4.44-7.7-4.44-11.33c0-5.52,4.3-10.02,9.58-10.02S29.58,5.98,29.58,11.5z M15.42,23.71l0.01-0.02l-0.57-0.86
	L15.42,23.71z M17.03,26.14c-0.52-0.78-1.06-1.59-1.61-2.43l-0.56-0.88l-0.23-0.34l-0.87,1.3l-0.73,1.09
	c-1.16,1.7-2.17,3.19-2.79,4.43c-0.62-1.22-1.62-2.69-2.76-4.36c-2.74-4.04-6.16-9.06-6.16-13.43c0-5.07,4-9.19,8.92-9.19
	c0.92,0,1.8,0.15,2.64,0.41l0.17,0.06c0.38-0.36,0.78-0.69,1.21-0.98l-0.12-0.05c-1.2-0.51-2.52-0.8-3.9-0.8C4.6,0.97,0,5.7,0,11.52
	c0,4.8,3.55,10.01,6.4,14.21c1.37,2.02,2.69,3.95,3.07,5.14c-4.05,0.64-8.49,1.88-8.49,4.26c0,3.84,11.65,4.87,18.53,4.87
	c6.89,0,18.54-1.03,18.54-4.87c0-2.19-3.77-3.39-7.59-4.04c0.28-1.18,1.68-3.25,3.16-5.43C36.46,21.48,40,16.27,40,11.52
	C40,5.7,35.4,0.97,29.76,0.97c-1.38,0-2.7,0.29-3.91,0.8l-0.11,0.05c0.43,0.29,0.83,0.62,1.21,0.98l0.17-0.06
	c0.83-0.26,1.72-0.41,2.64-0.41c4.92,0,8.92,4.12,8.92,9.19c0,4.33-3.41,9.33-6.14,13.36c-1.16,1.7-2.17,3.19-2.79,4.43
	c-0.62-1.22-1.62-2.69-2.76-4.36l-0.78-1.16l-0.87-1.3l-0.21,0.31c-0.19,0.31-0.4,0.59-0.59,0.89c-0.53,0.81-1.04,1.62-1.55,2.38
	c-1.24,1.86-2.33,3.48-3,4.83C19.33,29.57,18.26,27.97,17.03,26.14z M20.01,34c0.39,0,0.7-0.35,0.7-0.76c0-1.17,1.67-3.68,3.44-6.32
	c0.42-0.62,0.85-1.26,1.27-1.91l0.49,0.72c1.37,2.01,2.67,3.93,3.06,5.13c-1.71-0.24-3.34-0.37-4.52-0.45
	c-0.54-0.03-1,0.37-1.03,0.91c-0.04,0.54,0.37,1,0.91,1.04c8.53,0.54,11.61,2.23,11.77,2.75c-0.29,1.03-6.24,2.94-16.59,2.94
	c-10.34,0-16.3-1.91-16.58-2.91c0.2-0.78,4.27-2.51,12.73-2.94c0.54-0.02,0.95-0.48,0.92-1.02c-0.02-0.54-0.48-0.95-1.02-0.92
	c-0.76,0.04-2.48,0.14-4.47,0.39c0.46-1.22,1.71-3.06,3.02-4.99l0.44-0.65l1.32,1.98c1.75,2.62,3.4,5.09,3.42,6.25v0.03
	C19.3,33.67,19.62,34,20.01,34z M24.67,10.23c-0.4-0.34-1.02-0.3-1.37,0.08l-4.14,4.44l-1.5-1.41c-0.38-0.35-1-0.35-1.38,0
	c-0.37,0.36-0.37,0.94,0,1.3l2.24,2.09C18.7,16.9,18.95,17,19.2,17h0.03c0.27-0.01,0.53-0.12,0.7-0.31l4.83-5.17
	C25.11,11.14,25.07,10.56,24.67,10.23z"/>
</svg>
