<?xml version="1.0" encoding="iso-8859-1"?>
<!-- Generator: Adobe Illustrator 16.0.0, SVG Export Plug-In . SVG Version: 6.00 Build 0)  -->
<!DOCTYPE svg PUBLIC "-//W3C//DTD SVG 1.1 Tiny//EN" "http://www.w3.org/Graphics/SVG/1.1/DTD/svg11-tiny.dtd">
<svg version="1.1" baseProfile="tiny" id="Layer_1" xmlns="http://www.w3.org/2000/svg" xmlns:xlink="http://www.w3.org/1999/xlink"
	 x="0px" y="0px" width="62px" height="53px" viewBox="0 0 62 53" xml:space="preserve">
<path fill-rule="evenodd" fill="#F4F5F6" d="M8,13c0,6.08,4.92,11,11,11c0.58,0,1.15-0.04,1.7-0.13C20.25,22.67,20,21.36,20,20
	c0-5.5,4.03-10.05,9.3-10.87C27.73,4.96,23.71,2,19,2C12.92,2,8,6.92,8,13z"/>
<path fill-rule="evenodd" fill="#F4F5F6" d="M41.3,23.87C41.85,23.96,42.42,24,43,24c6.08,0,11-4.92,11-11S49.08,2,43,2
	c-4.71,0-8.73,2.96-10.3,7.13C37.97,9.95,42,14.5,42,20C42,21.36,41.75,22.67,41.3,23.87z"/>
<path fill-rule="evenodd" fill="#E4E6E8" d="M44.69,36.73c-2.31-2.46-5.23-4.2-8.48-5.09c2.34-0.96,4.33-2.56,5.75-4.59
	c0.36-0.02,0.71-0.05,1.07-0.05c4.5,0,8.52,1.79,11.47,4.92c2.69,2.87,4.45,6.89,4.73,11.74H48.86C47.91,41,46.49,38.65,44.69,36.73
	z M19.78,38.57c2.94-3.13,6.97-4.92,11.46-4.93c4.5,0.01,8.52,1.8,11.46,4.93c2.69,2.86,4.46,6.88,4.74,11.74h-32.4
	C15.33,45.45,17.09,41.43,19.78,38.57z M20.54,27.08c1.42,2.01,3.41,3.61,5.73,4.56c-3.25,0.89-6.17,2.63-8.47,5.09
	c-1.8,1.92-3.22,4.27-4.18,6.93H2.77c0.28-4.85,2.04-8.87,4.74-11.74C10.45,28.79,14.47,27,18.97,27
	C19.5,27,20.02,27.03,20.54,27.08z M38.57,12.35c1.88,1.87,3.03,4.43,3.04,7.28c-0.01,2.85-1.16,5.41-3.04,7.28
	c-1.88,1.86-4.46,3.01-7.33,3.01c-2.86,0-5.45-1.15-7.33-3.01c-1.87-1.87-3.03-4.43-3.03-7.28s1.16-5.41,3.03-7.28
	c1.88-1.86,4.47-3.01,7.33-3.01C34.11,9.34,36.69,10.49,38.57,12.35z M43.03,2.69c2.87,0,5.45,1.15,7.33,3.02
	c1.88,1.86,3.04,4.43,3.04,7.27c0,2.85-1.16,5.42-3.04,7.28c-1.71,1.7-4.01,2.79-6.57,2.98c0.34-1.15,0.53-2.36,0.53-3.61
	c0-6.03-4.15-11.09-9.77-12.55c0.35-0.49,0.73-0.95,1.16-1.37C37.59,3.84,40.17,2.69,43.03,2.69z M18.97,2.69
	c2.86,0,5.45,1.15,7.32,3.02c0.46,0.45,0.87,0.95,1.24,1.48c-5.41,1.59-9.36,6.55-9.36,12.44c0,1.26,0.19,2.48,0.53,3.63
	c-2.76-0.07-5.24-1.19-7.06-3C9.76,18.4,8.6,15.83,8.6,12.98c0-2.84,1.16-5.41,3.04-7.27C13.52,3.84,16.1,2.69,18.97,2.69z
	 M56.48,30.08c-2.31-2.46-5.23-4.2-8.47-5.09c4.75-1.94,8.1-6.58,8.1-12.01C56.11,5.81,50.25,0,43.03,0
	c-4.91,0-9.18,2.69-11.41,6.67c-0.13-0.01-0.25-0.02-0.38-0.02c-0.28,0-0.56,0.02-0.84,0.04C28.17,2.7,23.89,0,18.97,0
	C11.75,0,5.89,5.81,5.89,12.98c0,5.43,3.35,10.07,8.1,12.01c-3.24,0.89-6.16,2.63-8.47,5.09C2.08,33.74,0,38.93,0,45.01
	c0,0.35,0.14,0.7,0.4,0.95c0.25,0.25,0.6,0.39,0.96,0.39h11.5c-0.37,1.68-0.59,3.44-0.58,5.3c0,0.36,0.14,0.71,0.39,0.96
	S13.27,53,13.63,53h35.22c0.36,0,0.71-0.14,0.96-0.39s0.4-0.6,0.4-0.96c0-1.86-0.22-3.62-0.59-5.3h11.03c0.35,0,0.7-0.14,0.95-0.39
	c0.26-0.25,0.4-0.6,0.4-0.95C62,38.93,59.92,33.74,56.48,30.08z"/>
</svg>
