<?xml version="1.0" encoding="iso-8859-1"?>
<!-- Generator: Adobe Illustrator 16.0.0, SVG Export Plug-In . SVG Version: 6.00 Build 0)  -->
<!DOCTYPE svg PUBLIC "-//W3C//DTD SVG 1.1 Tiny//EN" "http://www.w3.org/Graphics/SVG/1.1/DTD/svg11-tiny.dtd">
<svg version="1.1" baseProfile="tiny" id="Layer_1" xmlns="http://www.w3.org/2000/svg" xmlns:xlink="http://www.w3.org/1999/xlink"
	 x="0px" y="0px" width="35px" height="33px" viewBox="0 0 35 33" xml:space="preserve">
<path fill-rule="evenodd" fill="#FFFFFF" d="M29.19,6.35h3.58v2.29c0,1.26-0.56,2.39-1.48,3.22c-0.58,0.52-1.3,0.92-2.1,1.14V6.35z
	 M2.23,6.35h3.46v6.61c-0.75-0.22-1.43-0.6-1.98-1.1C2.79,11.03,2.23,9.9,2.23,8.64V6.35z M17.44,22.98c-2.63,0-5.01-0.96-6.73-2.51
	c-1.73-1.56-2.79-3.69-2.79-6.06V2h19.04v12.41c0,2.37-1.06,4.5-2.79,6.06C22.45,22.02,20.07,22.98,17.44,22.98z M34.67,4.65
	c-0.2-0.19-0.49-0.3-0.78-0.3h-4.7V1c0-0.26-0.12-0.52-0.33-0.71C28.65,0.11,28.37,0,28.07,0H6.8C6.51,0,6.23,0.11,6.02,0.29
	C5.81,0.48,5.69,0.74,5.69,1v3.35H1.11c-0.29,0-0.58,0.11-0.78,0.3C0.12,4.83,0,5.09,0,5.35v3.29c0,3.13,2.44,5.74,5.69,6.4v-0.63
	c0,5.5,4.67,10.02,10.64,10.52V31H9.88c-0.61,0-1.11,0.45-1.11,1s0.5,1,1.11,1H25c0.61,0,1.11-0.45,1.11-1s-0.5-1-1.11-1h-6.45
	v-6.07c5.97-0.5,10.64-5.02,10.64-10.52v0.65C32.5,14.45,35,11.81,35,8.64V5.35C35,5.09,34.88,4.83,34.67,4.65z"/>
</svg>
