<?xml version="1.0" encoding="iso-8859-1"?>
<!-- Generator: Adobe Illustrator 16.0.0, SVG Export Plug-In . SVG Version: 6.00 Build 0)  -->
<!DOCTYPE svg PUBLIC "-//W3C//DTD SVG 1.1 Tiny//EN" "http://www.w3.org/Graphics/SVG/1.1/DTD/svg11-tiny.dtd">
<svg version="1.1" baseProfile="tiny" id="Layer_1" xmlns="http://www.w3.org/2000/svg" xmlns:xlink="http://www.w3.org/1999/xlink"
	 x="0px" y="0px" width="39.8px" height="39.78px" viewBox="0 0 39.8 39.78" xml:space="preserve">
<path fill-rule="evenodd" fill="#58B69E" d="M36.6,24.15h-1.42h-1.07c-0.39,0-0.71-0.32-0.71-0.71s0.32-0.71,0.71-0.71h1.07
	c0.98,0,1.78-0.79,1.78-1.77c0-0.99-0.8-1.78-1.78-1.78H23.45v-0.71v-0.71c0.01-0.59,0.01-2.26,0-9.08c0-6.82-1.52-7.26-2.84-7.26
	c-0.75,0-1.81,1.17-1.9,3.03c-0.08,1.85-0.31,3.86-0.94,6.65c-0.49,2.14-3.28,5.22-4.37,6.7c-0.51,0.7-0.55,2.41-0.55,2.41
	l-0.06,16.02c0,0.16-0.01,0.32-0.03,0.47c0.37,0.42,1.3,1.16,2.97,1.16h8.42h8.9c0.98,0,1.77-1,1.77-1.99
	c0-0.98-0.79-1.77-1.77-1.77h-0.36c-0.39,0-0.71-0.32-0.71-0.71c0-0.39,0.32-0.71,0.71-0.71h2.49c0.98,0,1.78-0.8,1.78-1.78
	s-0.8-1.77-1.78-1.77h-1.07c-0.39,0-0.71-0.32-0.71-0.72c0-0.39,0.32-0.71,0.71-0.71h2.49c0.98,0,1.78-0.79,1.78-1.77
	S37.58,24.15,36.6,24.15z M11.37,21.31c0-1.96-1.59-3.55-3.55-3.55H4.98c-1.97,0-3.56,1.59-3.56,3.55v13.5
	c0,1.96,1.59,3.55,3.56,3.55h2.84c1.96,0,3.55-1.59,3.55-3.55V21.31z M39.8,25.93c0,1.38-0.89,2.55-2.12,3
	c0.43,0.54,0.7,1.22,0.7,1.97c0,1.6-1.18,2.91-2.71,3.15c0.36,0.52,0.57,1.14,0.57,1.82c0,1.77-1.43,3.41-3.19,3.41h-8.92h-8.38
	c-2.33,0-3.54-1.18-3.54-1.18l-0.13,0.26c-0.65,0.86-1.68,1.42-2.84,1.42H3.55C1.59,39.78,0,38.19,0,36.23V19.89
	c0-1.96,1.59-3.55,3.55-3.55h5.69c1.17,0,2.22,0.53,2.89,1.37c0.13-0.39,0.32-0.82,0.65-1.2c1.41-1.62,3.09-3.5,3.57-5.14
	c0.95-3.28,1.29-5.65,1.42-7.82C17.89,1.38,19.49,0,20.61,0c1.67,0,4.1,0.12,4.26,8.52c0.12,6.03,0.07,8.23,0.03,9.24h10.28
	c1.76,0,3.2,1.43,3.2,3.2c0,0.75-0.27,1.43-0.7,1.97C38.91,23.37,39.8,24.54,39.8,25.93z"/>
</svg>
