<?xml version="1.0" encoding="iso-8859-1"?>
<!-- Generator: Adobe Illustrator 16.0.0, SVG Export Plug-In . SVG Version: 6.00 Build 0)  -->
<!DOCTYPE svg PUBLIC "-//W3C//DTD SVG 1.1 Tiny//EN" "http://www.w3.org/Graphics/SVG/1.1/DTD/svg11-tiny.dtd">
<svg version="1.1" baseProfile="tiny" id="Layer_1" xmlns="http://www.w3.org/2000/svg" xmlns:xlink="http://www.w3.org/1999/xlink"
	 x="0px" y="0px" width="33.77px" height="48.62px" viewBox="0 0 33.77 48.62" xml:space="preserve">
<path fill-rule="evenodd" fill="#FFFFFF" d="M1.67,11.53h1.87c2.96,0,5.84,1.05,8.11,2.95c0.46,0.39,0.9,0.82,1.35,1.33
	c0.95,1.08,1.71,2.29,2.24,3.59c0.35,0.88,0.61,1.83,0.78,2.92l0.34,2.03h-2.05c-6.97,0-12.64-5.68-12.64-12.65V11.53z M17.19,24.35
	l0.32-2.1c0.09-0.59,0.21-1.11,0.35-1.61c0.66-2.26,1.94-4.3,3.72-5.89c0.33-0.29,0.68-0.58,1.03-0.83
	c2.17-1.57,4.72-2.39,7.38-2.39h1.86v0.17c0,6.97-5.67,12.65-12.64,12.65H17.19z M29.99,10.03c-2.6,0-5.11,0.7-7.32,2.05
	c0.01,0.45,0,0.91-0.04,1.36l-1.5-0.13l0.01-0.15c-0.19,0.15-0.38,0.31-0.56,0.47c-1.71,1.53-3.02,3.44-3.82,5.56l-0.13-0.35
	c-0.6-1.46-1.44-2.82-2.51-4.03c-0.5-0.56-0.99-1.04-1.5-1.48l-0.17-0.13c-0.53-4.1,0.93-8.16,3.97-10.96l0.13-0.12l1.26,1.38
	c2.35,2.56,3.6,6.16,3.33,9.66l-0.01,0.15l1.5,0.13c0.04-0.45,0.05-0.91,0.04-1.36c-0.04-3.52-1.39-7.03-3.75-9.6L16.64,0
	l-1.23,1.14c-3.08,2.83-4.71,6.81-4.55,10.93c-2.2-1.33-4.74-2.04-7.32-2.04H0.17v1.67c0,7.8,6.35,14.15,14.14,14.15l1.74-0.01v1.55
	L0.83,27.4H0.36L0,28.13l9.11,20.49h16.95l7.71-21.22l-16.3-0.01v-1.55l1.74,0.01c7.8,0,14.14-6.35,14.14-14.15v-1.67H29.99z
	 M1.98,28.9h29.65l-6.62,18.21l-14.92,0.01L1.98,28.9z"/>
</svg>
