<?xml version="1.0" encoding="iso-8859-1"?>
<!-- Generator: Adobe Illustrator 16.0.0, SVG Export Plug-In . SVG Version: 6.00 Build 0)  -->
<!DOCTYPE svg PUBLIC "-//W3C//DTD SVG 1.1 Tiny//EN" "http://www.w3.org/Graphics/SVG/1.1/DTD/svg11-tiny.dtd">
<svg version="1.1" baseProfile="tiny" id="Layer_1" xmlns="http://www.w3.org/2000/svg" xmlns:xlink="http://www.w3.org/1999/xlink"
	 x="0px" y="0px" width="38px" height="41px" viewBox="0 0 38 41" xml:space="preserve">
<path fill-rule="evenodd" fill="#58B69E" d="M13.48,17.23c-0.61-1.18-0.48-1.64-0.45-1.72c0.03-0.08,0.08-0.1,0.08-0.1
	c0.44-0.09,0.75-0.49,0.73-0.95c0-0.02-0.07-1.45,0.27-2.78c0.01-0.06,0.02-0.11,0.03-0.17c0.01-0.11,0.26-2.83,4.51-2.83
	c4.14,0,4.49,2.55,4.52,2.83c0,0.05,0.01,0.11,0.02,0.17c0.34,1.32,0.27,2.76,0.27,2.78c-0.02,0.46,0.25,0.85,0.7,0.94
	c0.03,0.01,0.08,0.03,0.11,0.11c0.04,0.08,0.16,0.54-0.45,1.72l-0.02,0.01c-0.27,0.18-0.56,0.36-0.66,0.74
	c-0.27,0.96-2.08,4.55-4.49,4.55c-2.41,0-4.21-3.59-4.48-4.56c-0.11-0.37-0.38-0.54-0.67-0.73L13.48,17.23z M18.65,24.36
	c0.96,0,1.81-0.31,2.56-0.8c0.35,0.28,0.93,0.7,1.71,1.1c0.13,0.06,0.27,0.09,0.41,0.09c0.33,0,0.65-0.18,0.81-0.5
	c0.22-0.45,0.04-1-0.41-1.23c-0.47-0.24-0.85-0.48-1.12-0.68c1.14-1.26,1.88-2.79,2.16-3.55c0.22-0.14,0.41-0.27,0.54-0.5
	c0.81-1.48,1.01-2.68,0.59-3.57c-0.15-0.34-0.38-0.59-0.63-0.77c0-0.63-0.06-1.67-0.32-2.68c-0.1-0.71-0.9-4.42-6.3-4.42
	c-5.38,0-6.19,3.71-6.3,4.41c-0.25,1.02-0.31,2.06-0.32,2.69c-0.24,0.18-0.47,0.43-0.63,0.77c-0.41,0.89-0.21,2.09,0.6,3.57
	c0.13,0.23,0.32,0.36,0.54,0.5c0.28,0.75,1.01,2.29,2.15,3.55c-0.49,0.36-1.33,0.87-2.47,1.24c-3.66,1.19-5.87,3.47-6.49,6.64
	c-2.45-3-3.92-6.85-3.92-11.04c0-9.57,7.69-17.35,17.14-17.35c9.46,0,17.15,7.78,17.15,17.35c0,1.12-0.11,2.25-0.32,3.34
	c-0.09,0.5,0.22,0.98,0.71,1.08c0.5,0.09,0.97-0.23,1.06-0.72c0.24-1.22,0.36-2.46,0.36-3.7C37.91,8.6,29.4,0,18.95,0
	C8.5,0,0,8.6,0,19.18c0,10.57,8.5,19.17,18.95,19.17c0.5,0,0.91-0.41,0.91-0.91s-0.41-0.91-0.91-0.91c-4.46,0-8.53-1.74-11.59-4.58
	c0.06-3.3,1.84-5.47,5.42-6.63c1.63-0.53,2.75-1.31,3.31-1.76C16.84,24.05,17.69,24.36,18.65,24.36z M35.71,34.96
	c-0.2,0.42-0.55,0.67-1,0.77c-0.15,0.03-0.29,0.04-0.43,0.04h-0.04l0.03-0.21c0.03-0.18,0.02-0.35-0.05-0.52
	c-0.09-0.22-0.27-0.34-0.49-0.39c-0.25-0.05-0.48-0.02-0.71,0.06c-0.34,0.12-0.63,0.31-0.84,0.61c-0.12,0.17-0.19,0.37-0.2,0.58
	v0.06l0.15,0.05c0.18,0.08,0.32,0.2,0.4,0.39c0.09,0.24,0.04,0.47-0.11,0.67c-0.13,0.17-0.3,0.26-0.5,0.3
	c-0.03,0-0.04,0.01-0.03,0.04c0.02,0.2,0.11,0.36,0.26,0.49l0.26,0.21c0.13,0.1,0.24,0.21,0.3,0.36l0.02,0.06
	c0.03,0.07,0.02,0.08-0.05,0.11c-0.1,0.06-0.22,0.07-0.33,0.06c-0.18,0-0.36-0.04-0.53-0.09c-0.02-0.01-0.04-0.01-0.06,0.01
	l-0.42,0.47c-0.11,0.13-0.22,0.24-0.38,0.31c-0.07,0.03-0.15,0.06-0.22,0.07c-0.07,0-0.14-0.02-0.2-0.04
	c-0.16-0.06-0.29-0.17-0.41-0.3l-0.44-0.5c-0.02-0.03-0.04-0.03-0.07-0.02c-0.21,0.06-0.41,0.1-0.63,0.09
	c-0.09,0-0.19-0.02-0.27-0.08c-0.02-0.01-0.03-0.03-0.02-0.06c0.04-0.16,0.13-0.28,0.25-0.38l0.31-0.25
	c0.15-0.12,0.25-0.27,0.29-0.46l0.01-0.09l-0.14-0.03c-0.23-0.08-0.4-0.22-0.49-0.45c-0.13-0.31-0.03-0.65,0.26-0.82
	c0.09-0.05,0.18-0.09,0.27-0.13c0.01-0.16-0.03-0.31-0.1-0.46c-0.15-0.3-0.38-0.51-0.67-0.67c-0.21-0.11-0.44-0.18-0.68-0.19
	c-0.16-0.01-0.32,0.01-0.46,0.08c-0.24,0.11-0.36,0.31-0.38,0.57c-0.02,0.15,0,0.29,0.03,0.44v0.04l-0.01,0.01
	c-0.3,0.01-0.59-0.04-0.86-0.19c-0.35-0.18-0.58-0.47-0.7-0.85c-0.21-0.7-0.09-1.33,0.41-1.87c0.25-0.27,0.57-0.41,0.93-0.46
	c0.69-0.08,1.29,0.12,1.82,0.55c0.4,0.33,0.7,0.73,0.95,1.18c0.12,0.22,0.23,0.46,0.33,0.7l0.01,0.04c0.02-0.31,0.04-0.31,0.04-0.31
	c0.01-0.44-0.09-0.86-0.26-1.26c-0.14-0.35-0.31-0.69-0.46-1.03c-0.14-0.31-0.28-0.63-0.37-0.97c-0.08-0.3-0.12-0.62-0.09-0.93
	c0.04-0.42,0.18-0.79,0.4-1.13c0.18-0.27,0.39-0.51,0.61-0.74l0.75-0.72c0.01-0.01,0.03-0.01,0.05,0c0.34,0.35,0.7,0.66,1.02,1.02
	c0.24,0.27,0.44,0.56,0.57,0.9c0.13,0.33,0.19,0.67,0.17,1.03c-0.03,0.4-0.14,0.78-0.3,1.15c-0.12,0.3-0.27,0.6-0.4,0.9
	c-0.16,0.34-0.31,0.69-0.4,1.06c-0.08,0.34-0.11,0.68-0.06,1.02l0.01,0.01l0.12-0.28c0.21-0.49,0.48-0.94,0.85-1.33
	c0.34-0.37,0.74-0.65,1.22-0.79c0.39-0.11,0.78-0.13,1.16-0.02c0.48,0.14,0.83,0.45,1.03,0.91C35.97,33.89,35.97,34.43,35.71,34.96z
	 M30.72,26.24c-4.02,0-7.27,3.3-7.27,7.38S26.7,41,30.72,41S38,37.7,38,33.62S34.74,26.24,30.72,26.24z"/>
</svg>
