<?xml version="1.0" encoding="iso-8859-1"?>
<!-- Generator: Adobe Illustrator 16.0.0, SVG Export Plug-In . SVG Version: 6.00 Build 0)  -->
<!DOCTYPE svg PUBLIC "-//W3C//DTD SVG 1.1 Tiny//EN" "http://www.w3.org/Graphics/SVG/1.1/DTD/svg11-tiny.dtd">
<svg version="1.1" baseProfile="tiny" id="Layer_1" xmlns="http://www.w3.org/2000/svg" xmlns:xlink="http://www.w3.org/1999/xlink"
	 x="0px" y="0px" width="37px" height="40px" viewBox="0 0 37 40" xml:space="preserve">
<path fill-rule="evenodd" fill="#58B69E" d="M10.53,6.03V0H8.89v6.03H10.53z M28.11,6.03V0h-1.64v6.03H28.11z M23.34,3.85V2.18
	h-9.89v1.67H23.34z M20,29l1,2l4-5l-4-5l-1,2l2,2H11v2h11L20,29z M35.36,11.23H1.64V6.36c0-1.54,0.5-2.43,0.65-2.51h4.48V2.18H2.29
	C0.79,2.18,0,4.28,0,6.36v29.46C0,38.12,1.84,40,4.09,40h28.82c2.25,0,4.09-1.88,4.09-4.18V6.36c0-2.08-0.79-4.18-2.29-4.18h-4.48
	v1.67l4.43-0.01c0.2,0.09,0.7,0.98,0.7,2.52V11.23z M1.64,12.9h33.72v22.92c0,1.38-1.1,2.51-2.45,2.51H4.09
	c-1.35,0-2.45-1.13-2.45-2.51V12.9z"/>
</svg>
