<?xml version="1.0" encoding="iso-8859-1"?>
<!-- Generator: Adobe Illustrator 16.0.0, SVG Export Plug-In . SVG Version: 6.00 Build 0)  -->
<!DOCTYPE svg PUBLIC "-//W3C//DTD SVG 1.1 Tiny//EN" "http://www.w3.org/Graphics/SVG/1.1/DTD/svg11-tiny.dtd">
<svg version="1.1" baseProfile="tiny" id="Layer_1" xmlns="http://www.w3.org/2000/svg" xmlns:xlink="http://www.w3.org/1999/xlink"
	 x="0px" y="0px" width="19px" height="40px" viewBox="0 0 19 40" xml:space="preserve">
<path fill-rule="evenodd" fill="#58B69E" d="M8.73,4.36v2.87h-3v1.66h3v4.79h1.63V8.89h3.03V7.23h-3.03V4.36H8.73z M9.54,27.89
	c0.73,0,1.43-0.18,2.07-0.49c0.09,0.23,0.2,0.45,0.33,0.66c0.31,0.51,0.7,0.92,1.12,1.25c-1.21,0.53-2.51,0.78-3.82,0.71
	c-1.11-0.03-2.18-0.31-3.19-0.79c0.38-0.32,0.73-0.71,1.01-1.17c0.14-0.22,0.25-0.46,0.34-0.7C8.07,27.7,8.79,27.89,9.54,27.89z
	 M12.46,26.88c1.78-1.33,2.99-3.83,2.99-6.71c0-0.96-0.11-1.84-0.36-2.72l2.5-8.13l-0.05-0.17C16.95,7.36,16,5.66,14.72,4.18
	c-1.37-1.65-3.04-3-5.01-4.05L9.5,0L9.29,0.13C7.32,1.22,5.65,2.57,4.28,4.18C3.04,5.66,2.05,7.36,1.46,9.15L1.41,9.32L4,17.47
	c-0.25,0.89-0.36,1.78-0.36,2.7c0,2.84,1.17,5.32,2.91,6.66c-0.06,0.24-0.17,0.48-0.3,0.71c-0.64,1.04-1.8,1.61-2.48,1.87
	C1.67,29.46,0,30.85,0,32.59V40h6.68h5.69H19v-7.41c0-1.74-1.67-3.13-3.77-3.18c-0.68-0.26-1.84-0.83-2.48-1.87
	C12.63,27.33,12.53,27.11,12.46,26.88z M14.2,17.95c0.17,0.73,0.26,1.46,0.26,2.22c0,3.71-2.18,6.71-4.92,6.71
	c-2.74,0-4.92-3-4.92-6.71c0-0.77,0.09-1.51,0.28-2.22H14.2z M14.04,29.94c0.37,0.19,0.71,0.33,0.98,0.43l0.09,0.04h0.08
	c0.58,0,1.13,0.14,1.58,0.37c-1.71,2.49-4.56,3.94-7.53,3.82c-3.78-0.14-6.07-2.81-6.85-3.9c0.42-0.18,0.9-0.29,1.42-0.29h0.08
	l0.09-0.04c0.3-0.1,0.7-0.26,1.12-0.49c1.24,0.69,2.61,1.06,4.06,1.14h0.43C11.12,31.02,12.65,30.64,14.04,29.94z M17.56,31.38
	c0.32,0.35,0.5,0.77,0.5,1.21V39h-5.69v-3.78C14.43,34.58,16.26,33.24,17.56,31.38z M11.34,39H7.66v-3.55
	c0.47,0.1,0.97,0.17,1.5,0.19h0.43c0.59,0,1.18-0.05,1.75-0.16V39z M6.68,39H0.94v-6.41c0-0.51,0.23-0.98,0.61-1.35
	c0.68,0.97,2.37,3.02,5.13,3.95V39z M4.88,16.95L2.44,9.32c0.6-1.61,1.45-3.13,2.61-4.48c1.24-1.44,2.74-2.7,4.49-3.66
	c1.76,0.96,3.25,2.18,4.5,3.66c1.15,1.35,2.01,2.87,2.61,4.48l-2.44,7.63H4.88z"/>
</svg>
