<?xml version="1.0" encoding="utf-8"?>
<!-- Generator: Adobe Illustrator 16.0.0, SVG Export Plug-In . SVG Version: 6.00 Build 0)  -->
<!DOCTYPE svg PUBLIC "-//W3C//DTD SVG 1.1//EN" "http://www.w3.org/Graphics/SVG/1.1/DTD/svg11.dtd">
<svg version="1.1" id="Layer_1" xmlns="http://www.w3.org/2000/svg" xmlns:xlink="http://www.w3.org/1999/xlink" x="0px" y="0px"
	 width="29.588px" height="39.27px" viewBox="0 0 29.588 39.27" enable-background="new 0 0 29.588 39.27" xml:space="preserve">
<linearGradient id="SVGID_1_" gradientUnits="userSpaceOnUse" x1="4.882813e-004" y1="19.635" x2="29.5879" y2="19.635">
	<stop  offset="0" style="stop-color:#F79B51"/>
	<stop  offset="1" style="stop-color:#F1730C"/>
</linearGradient>
<path fill="url(#SVGID_1_)" d="M3.138,18.69c-0.38-1.779-0.79-3.51-1.12-5.25c-0.31-1.659-0.5-3.33-0.36-5.02
	c0.14-1.74,0.4-3.44,1.21-5.03c1.32-2.58,4.84-2.08,6.01-0.13c0.71,1.2,0.99,2.521,1.18,3.86c0.15,1.08,0.28,2.17,0.25,3.26
	c-0.02,0.74-0.26,1.5-0.54,2.2c-0.46,1.13-1.06,2.21-1.23,3.439c-0.06,0.44-0.07,0.88-0.14,1.32c-0.02,0.12-0.14,0.31-0.24,0.33
	C6.538,18.01,4.908,18.33,3.138,18.69z M0.018,9.71c0,0.38-0.04,0.77,0,1.149c0.33,2.99,0.94,5.931,1.77,8.82
	c0.18,0.61,0.55,0.83,1.17,0.71l6.23-1.28c0.69-0.14,0.91-0.39,0.87-1.09c-0.09-1.359,0.22-2.62,0.77-3.859
	c0.41-0.92,0.83-1.87,1.01-2.86c0.16-0.89,0.05-1.84,0-2.77c-0.11-1.631-0.32-3.25-0.92-4.801c-0.74-1.92-1.98-3.26-4.12-3.64
	c-2.36-0.42-4.46,0.65-5.5,2.81C0.268,5.06,0.068,7.37,0.018,9.71z M26.349,27.62c-1.701-0.33-3.341-0.66-4.98-1
	c-0.1-0.021-0.221-0.2-0.221-0.311c-0.02-1.5-0.449-2.899-1.129-4.229c-0.641-1.23-0.91-2.511-0.75-3.92
	c0.189-1.69,0.299-3.38,0.92-4.98c0.67-1.74,1.85-2.55,3.619-2.59c1.28-0.04,2.16,0.58,2.791,1.62c0.77,1.29,1.01,2.72,1.199,4.17
	c0.381,2.89-0.15,5.7-0.76,8.5C26.849,25.79,26.588,26.68,26.349,27.62z M29.588,18.71c-0.04-0.7-0.06-1.29-0.12-1.87
	c-0.16-1.72-0.449-3.42-1.23-4.99c-1.549-3.14-5.439-3.92-8.049-1.59c-0.931,0.83-1.42,1.93-1.78,3.1
	c-0.479,1.5-0.591,3.061-0.75,4.61c-0.15,1.5-0.021,2.94,0.67,4.3c0.76,1.521,1.33,3.08,1.159,4.83
	c-0.049,0.561,0.261,0.84,0.841,0.96l6.229,1.26c0.68,0.141,1.03-0.069,1.211-0.739l0.52-1.96
	C28.978,23.99,29.417,21.32,29.588,18.71z M9.308,22.74c0.35,1.399,0.73,2.76,0.71,4.189c-0.02,1.04-0.31,1.39-1.32,1.62
	c-1.63,0.38-2.64-0.11-3.3-1.65c-0.28-0.63-0.5-1.29-0.71-1.939c-0.13-0.391-0.2-0.8-0.3-1.22L9.308,22.74z M7.738,30.31
	c0.5-0.069,1-0.109,1.48-0.229c0.82-0.181,1.53-0.54,1.97-1.3c0.34-0.58,0.46-1.211,0.46-1.87c-0.01-1.83-0.5-3.58-0.97-5.33
	c-0.12-0.471-0.53-0.66-1.05-0.561l-6.23,1.271c-0.64,0.14-0.88,0.47-0.75,1.12c0.33,1.6,0.7,3.199,1.49,4.649
	C4.908,29.47,6.058,30.31,7.738,30.31z M20.237,31.69l4.931,1c-0.319,1.271-0.59,2.53-1.28,3.65c-0.199,0.33-0.459,0.66-0.77,0.89
	c-0.73,0.551-2.37,0.49-3.11-0.06c-0.38-0.29-0.45-0.7-0.47-1.14c-0.061-1.2,0.23-2.36,0.49-3.53
	C20.078,32.25,20.158,31.99,20.237,31.69z M21.798,39.27l0.01-0.029c0.26-0.03,0.53-0.03,0.791-0.07
	c1.34-0.22,2.209-1.061,2.819-2.2c0.78-1.45,1.16-3.04,1.479-4.64c0.131-0.63-0.109-0.95-0.739-1.09
	c-2.08-0.431-4.171-0.86-6.271-1.271c-0.5-0.1-0.88,0.13-1.039,0.65c-0.15,0.489-0.301,0.989-0.391,1.5
	c-0.21,1.229-0.49,2.46-0.54,3.699c-0.069,1.75,0.74,2.79,2.271,3.181C20.718,39.13,21.258,39.18,21.798,39.27z"/>
</svg>
