<?xml version="1.0" encoding="utf-8"?>
<!-- Generator: Adobe Illustrator 19.2.0, SVG Export Plug-In . SVG Version: 6.00 Build 0)  -->
<svg version="1.1" id="Layer_1" xmlns="http://www.w3.org/2000/svg" xmlns:xlink="http://www.w3.org/1999/xlink" x="0px" y="0px"
	 viewBox="0 0 200 50" style="enable-background:new 0 0 200 50;" xml:space="preserve">
<style type="text/css">
	.st0{fill:#57B69D;}
</style>
<polygon class="st0" points="1.7,20.3 15.8,20.3 15.8,21.1 10.9,21.1 17.5,39.3 23.5,24.9 22.1,21.1 19.6,21.1 19.6,20.3 31.3,20.3 
	31.3,21.1 27.3,21.1 34.1,39.2 41.4,21.1 35.9,21.1 35.9,20.3 45.5,20.3 45.5,21.1 42.4,21.1 31.9,47.3 24,26.1 15.1,47.3 5.6,21.1 
	1.7,21.1 "/>
<path class="st0" d="M72.6,44.7c-0.5,0.4-1.1,0.7-1.8,1c-0.7,0.3-1.6,0.4-2.6,0.4c-1.9,0-3.2-0.4-4.1-1.2c-0.8-0.8-1.4-1.9-1.7-3.4
	h-0.1c-0.2,0.4-0.4,0.8-0.6,1.3c-0.3,0.5-0.7,1-1.3,1.5c-0.6,0.5-1.3,0.9-2.3,1.2c-0.9,0.3-2.1,0.5-3.6,0.5c-1.6,0-2.9-0.2-3.9-0.6
	c-1-0.4-1.7-0.8-2.3-1.4c-0.5-0.5-0.9-1.2-1.1-1.8c-0.2-0.7-0.3-1.3-0.3-1.9c0-1.4,0.3-2.5,0.8-3.3c0.5-0.8,1.3-1.5,2.1-2
	c0.9-0.5,1.9-0.9,2.9-1.2c1.1-0.3,2.2-0.6,3.2-1c1.3-0.4,2.3-0.8,3.2-1.1c0.8-0.3,1.5-0.7,2-1.1c0.5-0.4,0.8-1,1-1.7
	c0.2-0.7,0.3-1.6,0.3-2.8c0-0.9-0.1-1.8-0.2-2.5c-0.1-0.7-0.3-1.4-0.6-1.9c-0.3-0.5-0.8-0.9-1.3-1.2c-0.6-0.3-1.4-0.4-2.3-0.4
	c-1.3,0-2.3,0.2-3.2,0.7c-0.8,0.4-1.3,1.2-1.3,2.2c0,0.7,0.1,1.3,0.2,2c0.1,0.6,0.2,1.1,0.2,1.4c0,0.5-0.2,1-0.6,1.4
	c-0.4,0.4-1,0.6-1.7,0.6c-1.3,0-2.1-0.2-2.4-0.7c-0.3-0.5-0.5-1.1-0.5-1.8c0-0.9,0.2-1.7,0.6-2.5c0.4-0.8,1-1.5,1.7-2.1
	c0.8-0.6,1.7-1.1,2.9-1.4c1.1-0.4,2.5-0.5,3.9-0.5c1.8,0,3.3,0.2,4.5,0.7c1.2,0.4,2.2,1.1,2.9,1.8c0.7,0.8,1.3,1.6,1.6,2.6
	c0.3,1,0.5,2,0.5,3v14.6c0,1.1,0.2,1.9,0.5,2.3c0.4,0.4,0.9,0.6,1.5,0.6c0.4,0,0.9-0.1,1.3-0.2c0.5-0.2,0.9-0.4,1.3-0.7L72.6,44.7z
	 M62.4,31h-0.1c-0.1,0.5-0.7,1-1.9,1.5l-4.4,1.8c-1.2,0.5-2.2,1.2-2.9,2.1c-0.7,0.9-1,2.1-1,3.4c0,0.6,0.1,1.2,0.2,1.8
	c0.1,0.6,0.3,1.2,0.6,1.7c0.3,0.5,0.7,0.9,1.3,1.2c0.6,0.3,1.3,0.5,2.2,0.5c1.3,0,2.3-0.3,3.1-0.8c0.8-0.5,1.4-1.2,1.8-2
	c0.4-0.8,0.7-1.7,0.8-2.7c0.1-1,0.2-1.8,0.2-2.6V31z"/>
<polygon class="st0" points="74.4,44.6 78.9,44.6 78.9,4 74.4,4 74.4,3.2 84,3.2 84,44.6 88.5,44.6 88.5,45.4 74.4,45.4 "/>
<polygon class="st0" points="91.7,44.6 96.2,44.6 96.2,4 91.7,4 91.7,3.2 101.3,3.2 101.3,31.2 101.9,31.2 113.6,21.1 109.4,21.1 
	109.4,20.3 118.5,20.3 118.5,21.1 115,21.1 105.8,28.9 118.8,44.6 121.3,44.6 121.3,45.4 108.1,45.4 108.1,44.6 112.3,44.6 
	101.9,32 101.3,32 101.3,44.6 104.5,44.6 104.5,45.4 91.7,45.4 "/>
<path class="st0" d="M124.8,37.2h0.6c0.3,0.9,0.6,1.9,1.1,2.8c0.4,1,1,1.8,1.7,2.6c0.7,0.8,1.6,1.5,2.7,2c1.1,0.5,2.3,0.8,3.8,0.8
	c1.2,0,2.4-0.4,3.3-1.1c1-0.8,1.5-2,1.5-3.7c0-1.5-0.4-2.5-1.1-3.1c-0.8-0.6-1.6-1.1-2.7-1.4l-4.6-1.6c-0.6-0.2-1.2-0.4-1.9-0.7
	c-0.7-0.3-1.3-0.7-1.9-1.2c-0.6-0.5-1.1-1.2-1.4-2c-0.4-0.8-0.6-1.9-0.6-3.2c0-1.1,0.2-2.1,0.6-3c0.4-0.9,1-1.8,1.8-2.5
	c0.7-0.7,1.6-1.2,2.7-1.6c1-0.4,2.2-0.6,3.4-0.6c0.9,0,1.5,0.1,2.1,0.2c0.5,0.1,1,0.3,1.4,0.4c0.4,0.1,0.7,0.3,1.1,0.4
	c0.3,0.1,0.7,0.2,1.1,0.2c0.4,0,0.7-0.2,0.9-0.5h0.6v6.7h-0.6c-0.3-0.9-0.6-1.7-0.9-2.5c-0.4-0.8-0.8-1.5-1.3-2.1
	c-0.5-0.6-1.1-1.1-1.8-1.5c-0.7-0.4-1.6-0.5-2.5-0.5c-1.9,0-3.3,0.4-4.4,1.3c-1,0.8-1.5,2-1.5,3.4c0,1.2,0.4,2.2,1.3,2.8
	c0.9,0.6,2.2,1.2,3.9,1.8l4.3,1.4c1.8,0.6,3.3,1.5,4.5,2.6c1.2,1.1,1.8,2.5,1.8,4.3c0,1.1-0.2,2.1-0.6,3.1c-0.4,1-1,1.9-1.8,2.7
	c-0.8,0.8-1.8,1.4-2.9,1.8c-1.1,0.5-2.5,0.7-3.9,0.7c-0.9,0-1.6-0.1-2.4-0.3c-0.7-0.2-1.4-0.4-2-0.6c-0.6-0.2-1.2-0.4-1.7-0.6
	c-0.5-0.2-1-0.3-1.4-0.3c-0.4,0-0.7,0.1-0.9,0.3c-0.2,0.2-0.4,0.4-0.5,0.6h-0.6V37.2z"/>
<path class="st0" d="M177.8,2.8c-12.3,0-22.3,10-22.3,22.3c0,12.3,10,22.3,22.3,22.3c12.3,0,22.2-10,22.2-22.3
	C200,12.7,190,2.8,177.8,2.8 M193,29c-0.6,1.3-1.7,2-3.1,2.3c-0.4,0.1-0.9,0.1-1.3,0.1c0,0-0.1,0-0.1,0c0-0.2,0.1-0.4,0.1-0.6
	c0.1-0.5,0-1.1-0.2-1.6c-0.3-0.7-0.8-1-1.5-1.2c-0.7-0.2-1.5,0-2.2,0.2c-1,0.4-1.9,0.9-2.5,1.8c-0.4,0.5-0.6,1.1-0.6,1.8
	c0,0.1,0,0.1,0,0.2c0.2,0.1,0.3,0.1,0.5,0.2c0.6,0.2,1,0.6,1.2,1.2c0.3,0.7,0.1,1.4-0.3,2c-0.4,0.5-0.9,0.8-1.5,0.9
	c-0.1,0-0.1,0-0.1,0.1c0.1,0.6,0.4,1.1,0.8,1.5c0.3,0.2,0.5,0.4,0.8,0.6c0.4,0.3,0.7,0.6,0.9,1.1c0,0.1,0,0.1,0.1,0.2
	c0.1,0.2,0.1,0.2-0.1,0.3c-0.3,0.2-0.7,0.2-1,0.2c-0.6,0-1.1-0.1-1.6-0.3c-0.1,0-0.1,0-0.2,0c-0.4,0.5-0.8,1-1.3,1.4
	c-0.3,0.4-0.7,0.7-1.2,0.9c-0.2,0.1-0.5,0.2-0.7,0.2c-0.2,0-0.4,0-0.6-0.1c-0.5-0.2-0.9-0.5-1.3-0.9c-0.5-0.5-0.9-1-1.4-1.5
	c-0.1-0.1-0.1-0.1-0.2-0.1c-0.6,0.2-1.3,0.3-1.9,0.3c-0.3,0-0.6-0.1-0.8-0.2c-0.1,0-0.1-0.1-0.1-0.2c0.1-0.5,0.4-0.8,0.8-1.1
	c0.3-0.3,0.6-0.5,1-0.8c0.4-0.4,0.8-0.8,0.9-1.4c0-0.1,0-0.2,0-0.3c-0.1,0-0.3-0.1-0.4-0.1c-0.7-0.2-1.2-0.7-1.5-1.3
	c-0.4-0.9-0.1-2,0.8-2.5c0.3-0.2,0.5-0.3,0.8-0.4c0-0.5-0.1-0.9-0.3-1.4c-0.5-0.9-1.2-1.5-2.1-2c-0.6-0.3-1.3-0.5-2.1-0.6
	c-0.5,0-1,0-1.4,0.2c-0.7,0.3-1.1,0.9-1.2,1.7c-0.1,0.5,0,0.9,0.1,1.3c0,0,0,0.1,0,0.1c0,0,0,0,0,0c-0.9,0-1.8-0.1-2.6-0.6
	c-1.1-0.6-1.8-1.4-2.1-2.6c-0.6-2.1-0.3-4,1.2-5.6c0.8-0.8,1.7-1.2,2.8-1.4c2.1-0.3,3.9,0.3,5.6,1.7c1.2,1,2.1,2.2,2.9,3.5
	c0.4,0.7,0.7,1.4,1,2.1c0,0,0,0.1,0,0.1c0,0,0,0,0,0c0-0.3,0.1-0.6,0.1-0.9c0-1.3-0.3-2.6-0.8-3.8c-0.4-1.1-0.9-2.1-1.4-3.1
	c-0.4-0.9-0.9-1.9-1.1-2.9c-0.2-0.9-0.4-1.9-0.3-2.8c0.1-1.2,0.5-2.4,1.2-3.4c0.5-0.8,1.2-1.5,1.9-2.2c0.8-0.7,1.5-1.4,2.3-2.2
	c0.1-0.1,0.1-0.1,0.1,0c1,1,2.2,2,3.1,3.1c0.7,0.8,1.3,1.7,1.7,2.7c0.4,1,0.6,2,0.5,3.1c-0.1,1.2-0.4,2.4-0.9,3.5
	c-0.4,0.9-0.8,1.8-1.3,2.7c-0.5,1-0.9,2.1-1.2,3.2c-0.2,1-0.3,2-0.2,3.1c0,0,0,0,0,0c0.1-0.3,0.2-0.6,0.4-0.9c0.7-1.5,1.5-2.8,2.6-4
	c1-1.1,2.3-2,3.8-2.4c1.2-0.3,2.4-0.4,3.5,0c1.5,0.4,2.5,1.3,3.1,2.7C193.8,25.8,193.8,27.5,193,29"/>
</svg>
